<?xml version="1.0" encoding="utf-8"?>
<!-- Generator: Adobe Illustrator 19.0.0, SVG Export Plug-In . SVG Version: 6.00 Build 0)  -->
<svg version="1.1" id="Overlays" xmlns="http://www.w3.org/2000/svg" xmlns:xlink="http://www.w3.org/1999/xlink" x="0px" y="0px"
	 viewBox="-157 384.2 296.9 25.8" style="enable-background:new -157 384.2 296.9 25.8;" xml:space="preserve">
<style type="text/css">
	.st0{fill:none;stroke:#BDB8A5;stroke-width:5;stroke-miterlimit:10;}
	.st1{fill:#BDB8A5;}
</style>
<circle class="st0" cx="-147.1" cy="397.1" r="7.4"/>
<path class="st1" d="M116.4,397.1c0-1.9,1.6-3.5,3.5-3.5l0,0c1.9,0,3.5,1.6,3.5,3.5l0,0c0,1.9-1.6,3.5-3.5,3.5l0,0
	C118,400.6,116.4,399,116.4,397.1z M106.4,397.1c0-1.9,1.6-3.5,3.5-3.5l0,0c1.9,0,3.5,1.6,3.5,3.5l0,0c0,1.9-1.6,3.5-3.5,3.5l0,0
	C108,400.6,106.4,399,106.4,397.1z M96.4,397.1c0-1.9,1.6-3.5,3.5-3.5l0,0c1.9,0,3.5,1.6,3.5,3.5l0,0c0,1.9-1.6,3.5-3.5,3.5l0,0
	C98,400.6,96.4,399,96.4,397.1z M86.4,397.1c0-1.9,1.6-3.5,3.5-3.5l0,0c1.9,0,3.5,1.6,3.5,3.5l0,0c0,1.9-1.6,3.5-3.5,3.5l0,0
	C88,400.6,86.4,399,86.4,397.1z M76.4,397.1c0-1.9,1.6-3.5,3.5-3.5l0,0c1.9,0,3.5,1.6,3.5,3.5l0,0c0,1.9-1.6,3.5-3.5,3.5l0,0
	C78,400.6,76.4,399,76.4,397.1z M66.4,397.1c0-1.9,1.6-3.5,3.5-3.5l0,0c1.9,0,3.5,1.6,3.5,3.5l0,0c0,1.9-1.6,3.5-3.5,3.5l0,0
	C68,400.6,66.4,399,66.4,397.1z M56.4,397.1c0-1.9,1.6-3.5,3.5-3.5l0,0c1.9,0,3.5,1.6,3.5,3.5l0,0c0,1.9-1.6,3.5-3.5,3.5l0,0
	C58,400.6,56.4,399,56.4,397.1z M46.4,397.1c0-1.9,1.6-3.5,3.5-3.5l0,0c1.9,0,3.5,1.6,3.5,3.5l0,0c0,1.9-1.6,3.5-3.5,3.5l0,0
	C48,400.6,46.4,399,46.4,397.1z M36.4,397.1c0-1.9,1.6-3.5,3.5-3.5l0,0c1.9,0,3.5,1.6,3.5,3.5l0,0c0,1.9-1.6,3.5-3.5,3.5l0,0
	C38,400.6,36.4,399,36.4,397.1z M26.4,397.1c0-1.9,1.6-3.5,3.5-3.5l0,0c1.9,0,3.5,1.6,3.5,3.5l0,0c0,1.9-1.6,3.5-3.5,3.5l0,0
	C28,400.6,26.4,399,26.4,397.1z M16.4,397.1c0-1.9,1.6-3.5,3.5-3.5l0,0c1.9,0,3.5,1.6,3.5,3.5l0,0c0,1.9-1.6,3.5-3.5,3.5l0,0
	C18,400.6,16.4,399,16.4,397.1z M6.4,397.1c0-1.9,1.6-3.5,3.5-3.5l0,0c1.9,0,3.5,1.6,3.5,3.5l0,0c0,1.9-1.6,3.5-3.5,3.5l0,0
	C8,400.6,6.4,399,6.4,397.1z M-3.6,397.1c0-1.9,1.6-3.5,3.5-3.5l0,0c1.9,0,3.5,1.6,3.5,3.5l0,0c0,1.9-1.6,3.5-3.5,3.5l0,0
	C-2,400.6-3.6,399-3.6,397.1z M-13.6,397.1c0-1.9,1.6-3.5,3.5-3.5l0,0c1.9,0,3.5,1.6,3.5,3.5l0,0c0,1.9-1.6,3.5-3.5,3.5l0,0
	C-12,400.6-13.6,399-13.6,397.1z M-23.6,397.1c0-1.9,1.6-3.5,3.5-3.5l0,0c1.9,0,3.5,1.6,3.5,3.5l0,0c0,1.9-1.6,3.5-3.5,3.5l0,0
	C-22,400.6-23.6,399-23.6,397.1z M-33.6,397.1c0-1.9,1.6-3.5,3.5-3.5l0,0c1.9,0,3.5,1.6,3.5,3.5l0,0c0,1.9-1.6,3.5-3.5,3.5l0,0
	C-32,400.6-33.6,399-33.6,397.1z M-43.6,397.1c0-1.9,1.6-3.5,3.5-3.5l0,0c1.9,0,3.5,1.6,3.5,3.5l0,0c0,1.9-1.6,3.5-3.5,3.5l0,0
	C-42,400.6-43.6,399-43.6,397.1z M-53.6,397.1c0-1.9,1.6-3.5,3.5-3.5l0,0c1.9,0,3.5,1.6,3.5,3.5l0,0c0,1.9-1.6,3.5-3.5,3.5l0,0
	C-52,400.6-53.6,399-53.6,397.1z M-63.6,397.1c0-1.9,1.6-3.5,3.5-3.5l0,0c1.9,0,3.5,1.6,3.5,3.5l0,0c0,1.9-1.6,3.5-3.5,3.5l0,0
	C-62,400.6-63.6,399-63.6,397.1z M-73.6,397.1c0-1.9,1.6-3.5,3.5-3.5l0,0c1.9,0,3.5,1.6,3.5,3.5l0,0c0,1.9-1.6,3.5-3.5,3.5l0,0
	C-72,400.6-73.6,399-73.6,397.1z M-83.6,397.1c0-1.9,1.6-3.5,3.5-3.5l0,0c1.9,0,3.5,1.6,3.5,3.5l0,0c0,1.9-1.6,3.5-3.5,3.5l0,0
	C-82,400.6-83.6,399-83.6,397.1z M-93.6,397.1c0-1.9,1.6-3.5,3.5-3.5l0,0c1.9,0,3.5,1.6,3.5,3.5l0,0c0,1.9-1.6,3.5-3.5,3.5l0,0
	C-92,400.6-93.6,399-93.6,397.1z M-103.6,397.1c0-1.9,1.6-3.5,3.5-3.5l0,0c1.9,0,3.5,1.6,3.5,3.5l0,0c0,1.9-1.6,3.5-3.5,3.5l0,0
	C-102,400.6-103.6,399-103.6,397.1z M-113.6,397.1c0-1.9,1.6-3.5,3.5-3.5l0,0c1.9,0,3.5,1.6,3.5,3.5l0,0c0,1.9-1.6,3.5-3.5,3.5l0,0
	C-112,400.6-113.6,399-113.6,397.1z M-123.6,397.1c0-1.9,1.6-3.5,3.5-3.5l0,0c1.9,0,3.5,1.6,3.5,3.5l0,0c0,1.9-1.6,3.5-3.5,3.5l0,0
	C-122,400.6-123.6,399-123.6,397.1z M-133.6,397.1c0-1.9,1.6-3.5,3.5-3.5l0,0c1.9,0,3.5,1.6,3.5,3.5l0,0c0,1.9-1.6,3.5-3.5,3.5l0,0
	C-132,400.6-133.6,399-133.6,397.1z"/>
<polygon class="st1" points="127.1,410 139.9,397.1 127.1,384.2 "/>
</svg>
