<?xml version="1.0" encoding="utf-8"?>
<!-- Generator: Adobe Illustrator 19.0.0, SVG Export Plug-In . SVG Version: 6.00 Build 0)  -->
<svg version="1.1" id="Layer_1" xmlns="http://www.w3.org/2000/svg" xmlns:xlink="http://www.w3.org/1999/xlink" x="0px" y="0px"
	 viewBox="0 0 32 32" style="enable-background:new 0 0 32 32;" xml:space="preserve">
<style type="text/css">
	.st0{fill:#010101;}
</style>
<path class="st0" d="M26.7,0H5.3C2.4,0,0,2.4,0,5.3v21.3C0,29.6,2.4,32,5.3,32h21.3c2.9,0,5.3-2.4,5.3-5.3V5.3C32,2.4,29.6,0,26.7,0
	z M27.2,16H22v14h-6V16h-2.9v-4.6H16v-3c0-4,1.7-6.4,6.5-6.4H28v5h-4.5c-1.3,0-1.5,0.7-1.5,2l0,2.5h6L27.2,16z"/>
</svg>
