<?xml version="1.0" encoding="utf-8"?>
<!-- Generator: Adobe Illustrator 19.0.0, SVG Export Plug-In . SVG Version: 6.00 Build 0)  -->
<svg version="1.1" id="Head" xmlns="http://www.w3.org/2000/svg" xmlns:xlink="http://www.w3.org/1999/xlink" x="0px" y="0px"
	 viewBox="-102 105.1 405.1 583.9" style="enable-background:new -102 105.1 405.1 583.9;" xml:space="preserve">
<style type="text/css">
	.st0{fill:#FFFFFF;}
	.st1{fill:#799EA4;}
	.st2{opacity:0.8;fill:#FF00FF;enable-background:new    ;}
	.st3{fill:none;stroke:#000000;stroke-width:6;stroke-linecap:round;stroke-miterlimit:10;}
	.st4{fill:none;stroke:#000000;stroke-width:5;stroke-linecap:round;stroke-miterlimit:10;}
</style>
<g>
	<path class="st0" d="M89.8,643.7c-3.4,0-4.3-0.9-12.5-9c-4.2-4.1-10.2-10.2-17.9-18c-12.8-13-30.1-30.6-51.4-52.3
		c-28.5-29.2-56.5-57.9-57.3-58.8l-0.3-0.3c-0.2-0.2-0.3-0.3-0.4-0.4c-18.5-14.8-30-42.7-30-73c0-13.8,2.4-27.4,6.9-39.5V392l0.5-1
		c7.3-24.9-4.2-34.6-5.8-35.7c-5.4-3.2-9.7-7.8-12.5-13.3c-0.2-0.4-0.6-1.2-0.6-1.2c-0.1-0.2-0.2-0.4-0.3-0.7s-0.2-0.5-0.3-0.8
		c-0.4-0.8-0.7-1.8-1-2.7c-0.2-0.7-0.4-1.4-0.5-1.9c-0.2-0.6-0.3-1.3-0.4-2c0-0.2-0.1-0.5-0.1-0.7c-0.1-0.6-0.2-1.2-0.2-1.8
		c0-0.3-0.1-0.7-0.1-1.1s0-0.8-0.1-1.2c0-0.4,0-0.7,0-1.1c0-0.6,0-1.2,0.1-1.8c0-0.4,0-0.7,0.1-1.1l0.1-0.5c0-0.2,0.1-0.5,0.1-0.8
		c0-0.2,0.1-0.4,0.1-0.6c0.1-0.4,0.1-0.8,0.2-1.2c0.1-0.5,0.2-0.9,0.3-1.4c0.1-0.4,0.2-0.9,0.4-1.4c0.1-0.2,0.1-0.5,0.2-0.7
		c0.1-0.2,0.1-0.4,0.2-0.6v-0.2l0.1-0.3c0.1-0.4,0.3-0.7,0.4-1.1c0.1-0.3,0.2-0.6,0.4-0.9c0.1-0.3,0.3-0.6,0.4-1
		c0.4-0.9,0.8-1.7,1.3-2.5c0.2-0.3,0.4-0.6,0.5-1c0.2-0.3,0.4-0.6,0.6-0.9c0.1-0.2,0.3-0.4,0.4-0.6c0.1-0.2,0.2-0.3,0.3-0.5
		c0.6-0.9,1.3-1.7,2-2.5l0.2-0.2c1.9-2.5,10.9-15.1,12.4-27.7c4.7-92.4,81-164.7,173.7-164.7c96,0,174,78.1,174,174
		c0,6.8-0.4,13.7-1.2,20.4c10.2,2.4,17.6,13.1,20.9,30.4c2.9,15.4,2.5,34.9-1.1,54.9c-3.2,17.2-8.4,33.1-15,45.8
		c-2.4,4.6-4.9,8.7-7.6,12.2c-8.5,11.3-16.4,14.4-22,14.9c-1,6.9-2.3,13.8-4,20.7c-8.6,33.8-25.9,64.1-50,87.4l-0.2,0.2
		c-5.2,4.7-10.9,9.4-16.8,14.2c-12.1,9.7-25.5,19.4-39.9,28.8c-19.2,12.6-35.5,21.8-43.5,26.2l-1.7,0.9
		C91.8,643.7,89.8,643.7,89.8,643.7z"/>
	<g>
		<path class="st1" d="M100,120.1c92,0,166.5,74.6,166.5,166.5c0,9.1-0.7,17.9-2.1,26.6c-0.1,0.5-0.2,1.1-0.3,1.6
			c1.5-0.5,2.9-0.8,4.4-0.8c0.7,0,1.4,0.1,2,0.2c15.3,2.8,21.9,37.2,14.7,76.8c-3.1,17-8.2,32.1-14.3,43.7c-2.2,4.2-4.5,8-6.9,11.1
			c-5.7,7.6-11.8,11.9-17.6,11.9c-0.7,0-1.4-0.1-2-0.2c-1-0.2-2-0.5-3-1c-0.9,9.1-2.4,18.3-4.8,27.4c-8.5,33.6-25.6,62.3-48,83.9
			c-5.3,4.8-10.9,9.4-16.5,13.9c-13.3,10.6-26.9,20.3-39.4,28.4c-19.1,12.6-35.4,21.7-42.9,25.8l0,0c-0.9,0-40.6-40.4-76.5-77.1
			c-29.5-30.2-56.4-57.9-57.1-58.6l0,0c-0.8-0.9-1.3-1.3-1.3-1.3c-16.3-12.8-27.5-38.2-27.5-67.4c0-13.9,2.5-26.9,6.9-38.1l0,0
			c9.5-31.3-6.9-43.6-8.6-44.8c-0.1-0.1-0.1-0.1-0.1-0.1c-4.2-2.4-7.6-6.1-9.9-10.4c-0.1-0.3-0.3-0.5-0.4-0.8
			c-0.1-0.2-0.2-0.4-0.3-0.6s-0.2-0.5-0.3-0.7c-0.3-0.7-0.5-1.4-0.8-2.1c-0.2-0.5-0.3-1-0.4-1.4c-0.1-0.5-0.2-1-0.3-1.5
			c0-0.2-0.1-0.3-0.1-0.5c-0.1-0.5-0.1-0.9-0.2-1.4c0-0.3-0.1-0.6-0.1-0.9s0-0.6,0-0.9c0-0.3,0-0.6,0-0.9c0-0.5,0-1,0-1.5
			c0-0.3,0-0.5,0-0.8c0-0.2,0-0.3,0-0.5s0-0.4,0.1-0.5c0-0.2,0-0.4,0.1-0.5c0-0.3,0.1-0.6,0.2-0.9c0.1-0.3,0.1-0.7,0.2-1
			c0.1-0.4,0.2-0.7,0.3-1.1c0.1-0.2,0.1-0.4,0.2-0.6c0.1-0.2,0.1-0.4,0.2-0.6v-0.1c0.1-0.3,0.2-0.6,0.3-0.9s0.2-0.5,0.3-0.8
			c0.1-0.2,0.2-0.4,0.3-0.6c0.3-0.7,0.7-1.4,1-2.1c0.1-0.2,0.2-0.4,0.4-0.6c0.2-0.3,0.3-0.5,0.5-0.8c0.1-0.2,0.2-0.3,0.3-0.5
			l0.1-0.1l0,0c0.5-0.8,1.2-1.6,1.8-2.3l0,0c0,0,0,0,0-0.1c1-1.4,12.4-16.3,14.2-31.9l0,0C-61.9,190,10.9,120.1,100,120.1
			 M100,105.1c-46.8,0-91.3,17.8-125.2,50.1c-33.7,32.1-53.5,75.2-56.1,121.5c-1.2,8.7-7,18.4-10.6,23.4l0,0l-0.4,0.5
			c-0.7,0.9-1.5,1.8-2.1,2.8c-0.2,0.3-0.4,0.5-0.5,0.6c-0.2,0.3-0.4,0.6-0.5,0.8c-0.2,0.4-0.5,0.7-0.7,1.1c-0.3,0.4-0.5,0.8-0.7,1.3
			c-0.5,1-1.1,2-1.5,3c-0.2,0.4-0.4,0.8-0.5,1.3c-0.1,0.3-0.3,0.7-0.4,1.1c-0.2,0.5-0.4,1-0.5,1.4v0.1l0,0l-0.2,0.6v0.1
			c-0.1,0.2-0.1,0.4-0.2,0.6c-0.1,0.3-0.2,0.5-0.2,0.8c-0.2,0.6-0.3,1.1-0.4,1.7c-0.1,0.6-0.3,1.1-0.3,1.7c-0.1,0.5-0.2,1-0.3,1.5
			c0,0.2-0.1,0.5-0.1,0.7c0,0.4-0.1,0.8-0.1,1.1v0.4c0,0.5-0.1,1-0.1,1.4c0,0.7-0.1,1.5-0.1,2.2c0,0.4,0,0.9,0,1.3
			c0,0.5,0,1,0.1,1.5c0,0.5,0.1,0.9,0.1,1.4c0.1,0.7,0.2,1.4,0.3,2.2c0,0.3,0.1,0.6,0.2,0.9c0.1,0.8,0.3,1.6,0.5,2.4
			c0.1,0.6,0.4,1.5,0.7,2.4c0.4,1.1,0.8,2.2,1.2,3.3c0.1,0.3,0.2,0.6,0.4,0.9c0.2,0.4,0.3,0.7,0.4,0.9v0.1l0.1,0.1l0.1,0.1
			c0.2,0.3,0.3,0.6,0.5,0.9v0.1v0.1c3.4,6.6,8.6,12.2,14.9,16c1.6,1.3,8.3,8.4,3,26.8l-1,2v0.8c-4.5,12.6-6.9,26.6-6.9,40.8
			c0,16.1,3,31.8,8.8,45.6c5.7,13.6,13.8,25,23.6,32.9l0.2,0.3c1.1,1.2,30.4,31.3,57.4,59c21.3,21.7,38.6,39.4,51.4,52.4
			c7.7,7.8,13.8,13.9,18,18c2.4,2.3,4.1,4.1,5.5,5.3c2.6,2.5,6.2,5.9,12.4,5.9h3.9l3.3-1.9c8.1-4.4,24.6-13.7,43.9-26.4
			c14.6-9.6,28.3-19.5,40.5-29.3c6-4.8,11.8-9.7,17.1-14.4l0.2-0.2l0.2-0.2c25.2-24.3,43.2-55.8,52.1-91c1.4-5.4,2.5-10.8,3.4-16.2
			c6.3-2,13.9-6.6,21.4-16.6c2.9-3.8,5.7-8.3,8.3-13.2c7-13.4,12.5-30,15.8-48c3.8-20.9,4.2-41.4,1.1-57.7
			c-3.9-20.7-12.6-29.8-20.2-33.9c0.4-5.1,0.7-10.3,0.7-15.5c0-24.5-4.8-48.3-14.3-70.7c-9.1-21.6-22.2-41-38.9-57.7
			c-16.7-16.7-36.1-29.8-57.7-38.9C148.2,109.9,124.5,105.1,100,105.1L100,105.1z"/>
	</g>
</g>
<g>
	<path d="M-8.8,579.2c-3.3,0-8.2-1.4-12.4-8.2c-0.3-0.5-0.7-1-1.1-1.7c-7.5-11.9-27.6-43.4-26.4-69c0.4-8.2,2.9-15.2,7.6-20.7
		l3.7-4.3l3.8,4.2c4.7,5.2,11.4,8.2,18.4,8.2c3.7,0,7.3-0.8,10.7-2.4c14.7-8.9,25.8-13.3,33.9-13.3c6.4,0,10.2,2.8,12.1,6
		c2.1-0.4,5-1.3,7.4-3.4l2.3-1.9l71.2,27.4l0.2,0.1c0.6,0.3,13.7,6.7,13.7,20v44.6c0,6.5-5.3,11.8-11.8,11.8s-11.8-5.3-11.8-11.8
		v-34.7c-12.7,2.6-43.9,8.1-86.6,9.1h-0.5l-0.5-0.1c-0.4-0.1-7.7-1.5-13.4-7.8c-2.6,3.5-6.5,6.3-12,6.3l0,0c-0.2,0-0.4,0-0.6,0h-0.2
		l-14-1.2l0.3,0.7c4.6,9.6,8.9,20,12.8,31l0.2,0.5c0.4,1.1,0.7,2.1,1.1,3.2l1.4,4.2l-4,1.9C-5.1,578.8-7,579.2-8.8,579.2z"/>
	<path class="st1" d="M29.3,477c8.5,0,8.7,6.3,8.7,6.3s0.2,0,0.5,0c1.9,0,8.2-0.3,13.5-4.8l68.3,26.3c0,0,10.9,5.2,10.9,15.5v44.6
		c0,3.8-3.1,6.8-6.8,6.8s-6.8-3.1-6.8-6.8V524c0,0-36.3,9-91.7,10.3c0,0-11.2-2-14.9-14c0,0-2,12.4-11.4,12.4c-0.1,0-0.3,0-0.4,0
		l-22.9-2l4.4,8.7c4.1,8.6,8.4,18.7,12.5,30.4c0.4,1.2,0.8,2.4,1.3,3.7c-0.9,0.4-2,0.8-3.3,0.8c-2.4,0-5.3-1.3-8.2-5.9
		c-5.4-8.6-27.9-42.4-26.7-67.8c0.3-6.6,2.2-12.7,6.4-17.6c5.4,6,13.3,9.8,22.1,9.8c4.7,0,9.1-1.1,13.1-3
		C13.9,479.9,23.5,477,29.3,477 M29.3,467c-9,0-20.8,4.5-36.3,13.9c-2.6,1.2-5.4,1.8-8.3,1.8c-5.6,0-10.9-2.4-14.7-6.5l-7.6-8.4
		l-7.4,8.6c-5.4,6.3-8.4,14.3-8.8,23.7c-1.1,24.3,15,52.7,27.2,71.9c0.4,0.6,0.8,1.2,1.1,1.7c5.5,8.7,12.1,10.6,16.7,10.6
		c2.6,0,5.2-0.6,7.7-1.8l7.9-3.9L4,570.2c-0.4-1.1-0.8-2.2-1.1-3.3l-0.2-0.4c-3-8.5-6.2-16.7-9.7-24.4l5.3,0.5h0.2h0.2
		c0.3,0,0.5,0,0.8,0c4.8,0,8.9-1.7,12.2-4.3c4.4,3.4,9.1,5.2,12.3,5.8l1,0.2h1c37.4-0.9,66.2-5.2,81.5-8v28.6
		c0,9.3,7.5,16.8,16.8,16.8s16.8-7.5,16.8-16.8v-44.6c0-13.1-10.4-21.6-16.6-24.5l-0.3-0.2l-0.4-0.1l-68.1-26.4l-5.5-2.1l-4.5,3.8
		c-0.7,0.6-1.5,1.1-2.3,1.4C40.3,469.2,35.8,467,29.3,467L29.3,467z"/>
</g>
<g>
	<path d="M33.1,684c-17.9,0-27.4-7.1-27.8-7.4l-0.9-0.7l-0.5-1c-12.7-25.3-11.8-59.8-10.8-73.5l0.7-9.7l7.5,6.2
		c13.6,11.2,35.2,17.9,57.9,17.9l0,0c1.2,0,2.4,0,3.5-0.1c24.1-0.7,57.5-11.5,68.9-26.2c1.2-1.6,3.1-2.5,5-2.5s3.8,0.9,5.1,2.4
		c1.2,1.5,1.7,3.5,1.2,5.4c-5.4,24.1-17.7,43.7-36.4,58.2C79.9,673.6,55.2,684,33.1,684z"/>
	<path class="st1" d="M136.6,591.9c0.8,0,1.6,0.7,1.4,1.7c-4.5,19.9-14.6,39.8-34.6,55.4c-30.8,23.9-54.4,30-70.3,30
		c-16.4,0-24.7-6.4-24.7-6.4C-4,648.2-2.8,614-2,601.7c13.3,10.9,35.6,19,61.1,19c1.2,0,2.5,0,3.7-0.1c25.7-0.8,60.2-12,72.7-28.2
		C135.8,592.1,136.2,591.9,136.6,591.9 M-10.5,581.6l-1.4,19.3c-1,14.1-1.9,49.8,11.3,76.2l1,2.1l1.8,1.4c1.1,0.9,11.6,8.4,30.8,8.4
		c23.3,0,49-10.8,76.4-32.1c19.7-15.2,32.5-35.8,38.2-61.1c0.8-3.4,0-6.9-2.2-9.6s-5.5-4.3-9-4.3s-6.8,1.6-9,4.4
		c-9.4,12.2-39.8,23.5-65.1,24.3c-1.1,0-2.3,0.1-3.4,0.1c-21.2,0-42.2-6.4-54.7-16.8L-10.5,581.6L-10.5,581.6z"/>
</g>
<g>
	<path d="M7.5,606.4c-0.8-0.5-20-12.5-30.8-48.3l-3.7-12l10.9,6.3c0.1,0.1,15.2,8.4,41.5,8.4l0,0c16.6,0,34.1-3.3,52-9.8l13.7-5
		l-7.8,12.4c-1,1.5-24,37.2-72.1,48.6l-2,0.5L7.5,606.4z"/>
	<path class="st1" d="M79.1,555.7c0,0-22.4,35.4-69,46.4c0,0-18.2-11.1-28.6-45.4c0,0,15.8,9.1,44,9.1
		C40.1,565.8,58.1,563.3,79.1,555.7 M-35.7,534.9l7.6,24.7c11.4,37.6,32.1,50.6,33,51.1l3.5,2.1l4-0.9
		c50.1-11.9,74.2-49.2,75.2-50.8l15.6-24.7l-27.5,10c-17.3,6.3-34.3,9.5-50.3,9.5c-24.2,0-38.3-7.4-39-7.8L-35.7,534.9L-35.7,534.9z
		"/>
</g>
<g>
	<g>
		<path class="st0" d="M59.6,646.9c-25.6,0-48.9-16.1-58-40.1c-1.5-4.1-2.7-8.3-3.3-12.6l-0.1-0.2v-0.1c-1.9-6.7-4-13.4-6.1-19.7
			c-0.3-0.9-0.6-1.7-0.9-2.6l-0.6-1.6c-0.3-0.9-0.6-1.7-0.9-2.6c-0.4-1.1-0.8-2.2-1.2-3.3c-0.2-0.5-0.4-1-0.5-1.4l0,0l-0.6-1.6
			c-0.2-0.6-0.5-1.3-0.7-1.9c-0.3-0.7-0.6-1.4-0.8-2.1L-15,555l-0.9-2.1c-0.3-0.6-0.5-1.3-0.8-1.9c-1.6-3.8-3.2-7.3-4.9-10.7
			c-1.4-2.9-2.8-5.7-4.3-8.5l-0.1-0.1c-9.1-17.2-16.8-26.4-19.7-29.6l-0.3-0.4c-0.4-0.4-0.6-0.6-0.7-0.7
			C-64.1,487.3-75,460.8-75,431.8c0-13.5,2.4-26.9,6.9-38.6v-0.1l0.2-0.3c8.8-29.3-6-40.6-7.7-41.8c-4.6-2.7-8.4-6.6-10.8-11.4
			c-0.1-0.3-0.3-0.5-0.4-0.8l-0.1-0.2c-0.1-0.2-0.2-0.3-0.2-0.5c-0.1-0.2-0.2-0.5-0.3-0.7c-0.3-0.7-0.6-1.5-0.8-2.3
			c-0.2-0.6-0.3-1.1-0.4-1.6s-0.3-1.1-0.4-1.7c0-0.2-0.1-0.4-0.1-0.6c-0.1-0.5-0.1-1-0.2-1.5c0-0.3-0.1-0.6-0.1-1c0-0.3,0-0.6,0-0.9
			s0-0.6,0-1c0-0.6,0-1.1,0.1-1.6c0-0.2,0-0.5,0.1-0.8v-0.5c0-0.2,0-0.4,0.1-0.6c0-0.2,0-0.4,0.1-0.6c0-0.4,0.1-0.7,0.2-1
			c0.1-0.4,0.1-0.7,0.2-1.1c0.1-0.4,0.2-0.8,0.3-1.2c0.1-0.2,0.1-0.4,0.2-0.6c0.1-0.2,0.1-0.4,0.2-0.6l0,0l0.1-0.2
			c0.1-0.3,0.2-0.7,0.4-1c0.1-0.2,0.2-0.5,0.3-0.8c0.1-0.2,0.2-0.5,0.3-0.8c0.3-0.7,0.7-1.5,1.1-2.2c0.1-0.2,0.3-0.5,0.4-0.7
			c0.2-0.3,0.4-0.6,0.6-0.9c0.1-0.2,0.2-0.4,0.4-0.6c0,0,0.1-0.1,0.2-0.2c0.6-0.8,1.2-1.6,1.8-2.3l0.1-0.1
			c1.5-2,11.9-16.1,13.6-30.5C-64.2,188,9.9,117.6,100,117.6c93.2,0,169,75.8,169,169c0,8.4-0.6,16.8-1.8,25c0.4,0,0.9-0.1,1.3-0.1
			c0.8,0,1.7,0.1,2.5,0.2c8.5,1.6,14.8,11,17.8,26.6c2.8,14.8,2.4,33.7-1.1,53.1c-3.1,16.7-8.1,32.1-14.5,44.4
			c-2.3,4.3-4.7,8.2-7.2,11.5c-6.4,8.5-13.2,12.9-19.6,12.9c-0.8,0-1.7-0.1-2.5-0.2c-0.1,0-0.2,0-0.4-0.1
			c-0.9,8.3-2.4,16.5-4.5,24.7c-8.3,32.9-25.2,62.4-48.7,85.1c-5.2,4.7-10.8,9.4-16.6,14.1c-11.9,9.6-25.3,19.2-39.6,28.6
			c-19,12.5-35.2,21.6-43.1,25.9c-2.1,1.2-3.6,1.9-4.2,2.3l0,0c-0.1,0-0.2,0.1-0.2,0.1c-0.2,0.1-0.3,0.1-0.3,0.1h-0.1
			C77.9,644.9,68.9,646.9,59.6,646.9z"/>
		<path d="M100,120.1c92,0,166.5,74.6,166.5,166.5c0,9.1-0.7,17.9-2.1,26.6c-0.1,0.5-0.2,1.1-0.3,1.6c1.5-0.5,2.9-0.8,4.4-0.8
			c0.7,0,1.4,0.1,2,0.2c15.3,2.8,21.9,37.2,14.7,76.8c-3.1,17-8.2,32.1-14.3,43.7c-2.2,4.2-4.5,8-6.9,11.1
			c-5.7,7.6-11.8,11.9-17.6,11.9c-0.7,0-1.4-0.1-2-0.2c-1-0.2-2-0.5-3-1c-0.9,9.1-2.4,18.3-4.8,27.4c-8.5,33.6-25.6,62.3-48,83.9
			c-5.3,4.8-10.9,9.4-16.5,13.9c-13.3,10.6-26.9,20.3-39.4,28.4c-19.1,12.6-35.4,21.7-42.9,25.8c-2.2,1.2-3.7,2-4.3,2.3
			c0,0-0.1,0-0.1,0.1c-0.1,0.1-0.2,0.1-0.2,0.1l0,0c-7.8,3.7-16.5,5.8-25.7,5.8c-25.5,0-47.2-16-55.7-38.5c-1.5-3.9-2.6-8-3.2-12.3
			v-0.1c-2-7.2-4.1-13.9-6.3-20.2c-0.4-1.2-0.8-2.5-1.3-3.7c-0.4-1.1-0.7-2.1-1.1-3.1c-0.4-1.1-0.8-2.2-1.2-3.3c-0.4-1-0.8-2-1.2-3
			l0,0c-0.2-0.6-0.5-1.3-0.7-1.9c-0.3-0.7-0.6-1.4-0.9-2.1s-0.6-1.4-0.9-2.1c-0.3-0.7-0.6-1.4-0.9-2.1s-0.6-1.3-0.9-2
			c-1.6-3.8-3.3-7.4-4.9-10.7c-1.5-3.1-2.9-5.9-4.3-8.6l-0.1-0.1c-9.2-17.5-17.1-26.8-20-30.1l0,0c-0.8-0.9-1.3-1.3-1.3-1.3
			c-16.3-12.8-27.5-38.2-27.5-67.4c0-13.9,2.5-26.9,6.9-38.1l0,0c9.5-31.3-6.9-43.6-8.6-44.8c-0.1-0.1-0.1-0.1-0.1-0.1
			c-4.2-2.4-7.6-6.1-9.9-10.4c-0.1-0.3-0.3-0.5-0.4-0.8c-0.1-0.2-0.2-0.4-0.3-0.6c-0.1-0.2-0.2-0.5-0.3-0.7
			c-0.3-0.7-0.5-1.4-0.8-2.1c-0.2-0.5-0.3-1-0.4-1.4c-0.1-0.5-0.2-1-0.3-1.5c0-0.2-0.1-0.3-0.1-0.5c-0.1-0.5-0.1-0.9-0.2-1.4
			c0-0.3-0.1-0.6-0.1-0.9c0-0.3,0-0.6,0-0.9s0-0.6,0-0.9c0-0.5,0-1,0-1.5c0-0.3,0-0.5,0-0.8c0-0.2,0-0.3,0-0.5s0-0.4,0.1-0.5
			c0-0.2,0-0.4,0.1-0.5c0-0.3,0.1-0.6,0.2-0.9c0.1-0.3,0.1-0.7,0.2-1c0.1-0.4,0.2-0.7,0.3-1.1c0.1-0.2,0.1-0.4,0.2-0.6
			s0.1-0.4,0.2-0.6v-0.1c0.1-0.3,0.2-0.6,0.3-0.9c0.1-0.3,0.2-0.5,0.3-0.8c0.1-0.2,0.2-0.4,0.3-0.6c0.3-0.7,0.7-1.4,1-2.1
			c0.1-0.2,0.2-0.4,0.4-0.6c0.2-0.3,0.3-0.5,0.5-0.8c0.1-0.2,0.2-0.3,0.3-0.5l0.1-0.1l0,0c0.5-0.8,1.2-1.6,1.8-2.3l0,0
			c0,0,0,0,0-0.1c1-1.4,12.4-16.3,14.2-31.9l0,0C-61.9,190,10.9,120.1,100,120.1 M100,115.1c-44.3,0-86.3,16.8-118.3,47.3
			c-31.9,30.4-50.7,71.3-53,115.1c-1.7,13.4-11.2,26.7-13,29.1l0,0l-0.1,0.2c-0.7,0.8-1.3,1.6-1.9,2.4c-0.1,0.1-0.2,0.2-0.3,0.4
			c-0.1,0.2-0.3,0.4-0.4,0.6c-0.2,0.3-0.4,0.6-0.6,0.9c-0.2,0.3-0.3,0.5-0.5,0.9c-0.4,0.8-0.8,1.5-1.2,2.4c-0.1,0.3-0.3,0.6-0.4,0.9
			c-0.1,0.3-0.2,0.6-0.3,0.9c-0.1,0.3-0.3,0.7-0.4,1v0.1l0,0v0.1l0,0c-0.1,0.2-0.1,0.4-0.2,0.7c-0.1,0.2-0.1,0.4-0.2,0.7
			c-0.1,0.4-0.2,0.9-0.3,1.3c-0.1,0.4-0.2,0.8-0.2,1.2c-0.1,0.4-0.1,0.8-0.2,1.1c0,0.2-0.1,0.4-0.1,0.6s-0.1,0.5-0.1,0.7v0.5
			c0,0.3-0.1,0.7-0.1,1c0,0.6-0.1,1.1-0.1,1.7c0,0.3,0,0.7,0,1c0,0.4,0,0.7,0.1,1.1c0,0.4,0,0.7,0.1,1c0.1,0.5,0.1,1.1,0.2,1.7
			c0,0.2,0.1,0.4,0.1,0.7c0.1,0.6,0.2,1.3,0.4,1.9c0.1,0.5,0.3,1.1,0.5,1.8c0.3,0.9,0.6,1.7,0.9,2.5c0.1,0.3,0.2,0.5,0.3,0.7
			c0.1,0.2,0.2,0.4,0.3,0.6l0.1,0.1l0,0l0,0c0.1,0.3,0.3,0.5,0.4,0.8l0,0l0,0c2.7,5.2,6.7,9.4,11.7,12.4c2,1.4,14.7,11.8,6.7,38.7
			l-0.3,0.7v0.3c-4.5,11.9-6.9,25.3-6.9,39c0,29.6,11.2,56.8,29.2,71.1c0.1,0.1,0.3,0.3,0.6,0.6l0.3,0.3
			c2.8,3.1,10.3,12.1,19.3,29.1l0.1,0.1c1.4,2.7,2.9,5.5,4.2,8.4c1.6,3.3,3.2,6.9,4.8,10.5c0.3,0.6,0.6,1.3,0.8,2l0.3,0.7
			c0.2,0.4,0.4,0.9,0.5,1.3l0.6,1.4l0.3,0.7c0.3,0.7,0.6,1.4,0.8,2.1c0.2,0.6,0.5,1.2,0.7,1.9l1.2,3.2l0,0c0.4,1,0.8,2,1.1,3l0,0
			l0,0c0.3,0.8,0.6,1.7,0.9,2.5l0.2,0.6l0.4,1.1c0.3,0.8,0.6,1.7,0.9,2.5c2.2,6.4,4.2,13,6.1,19.7c0.7,4.5,1.8,8.9,3.4,13.1
			c4.6,12.1,12.6,22.5,23.3,30c10.9,7.7,23.7,11.7,37.1,11.7c9.7,0,19-2.1,27.7-6.2h0.1c0,0,0.1-0.1,0.3-0.2c0.1,0,0.2-0.1,0.4-0.2
			l0,0c0.7-0.4,2.1-1.1,4.2-2.3c7.9-4.3,24.2-13.5,43.3-26c14.4-9.4,27.7-19.1,39.7-28.7c5.9-4.7,11.5-9.5,16.7-14.1l0.1-0.1
			l0.1-0.1c23.8-23,40.9-52.9,49.3-86.3c1.9-7.4,3.3-15,4.3-22.5c0.2,0,0.4,0,0.6,0c7.3,0,14.7-4.8,21.6-13.9
			c2.6-3.4,5.1-7.4,7.4-11.8c6.6-12.5,11.7-28.1,14.8-45.1c3.6-19.7,4-38.9,1.1-54c-3.2-16.7-10.2-26.8-19.8-28.6
			c-0.5-0.1-0.9-0.1-1.4-0.2c1-7.4,1.5-15,1.5-22.5c0-45.8-17.8-88.9-50.2-121.3c-15.8-15.8-34.1-28.1-54.5-36.8
			C145.6,119.6,123.1,115.1,100,115.1L100,115.1z"/>
	</g>
	<g>
		<path class="st0" d="M59.6,646.9c-25.6,0-48.9-16.1-58-40.1c-1.5-4.1-2.7-8.3-3.3-12.6l-0.1-0.2v-0.1c-1.9-6.7-4-13.4-6.1-19.7
			c-0.3-0.9-0.6-1.7-0.9-2.6l-0.6-1.6c-0.3-0.9-0.6-1.7-0.9-2.6c-0.4-1.1-0.8-2.2-1.2-3.3c-0.2-0.5-0.4-1-0.5-1.4l0,0l-0.6-1.6
			c-0.2-0.6-0.5-1.3-0.7-1.9c-0.3-0.7-0.6-1.4-0.8-2.1L-15,555l-0.9-2.1c-0.3-0.6-0.5-1.3-0.8-1.9c-1.6-3.8-3.2-7.3-4.9-10.7
			c-1.4-2.9-2.8-5.7-4.3-8.5l-0.1-0.1c-9.1-17.2-16.8-26.4-19.7-29.6l-0.3-0.4c-0.4-0.4-0.6-0.6-0.7-0.7
			C-64.1,487.3-75,460.8-75,431.8c0-13.5,2.4-26.9,6.9-38.6v-0.1l0.2-0.3c8.8-29.3-6-40.6-7.7-41.8c-4.6-2.7-8.4-6.6-10.8-11.4
			c-0.1-0.3-0.3-0.5-0.4-0.8l-0.1-0.2c-0.1-0.2-0.2-0.3-0.2-0.5c-0.1-0.2-0.2-0.5-0.3-0.7c-0.3-0.7-0.6-1.5-0.8-2.3
			c-0.2-0.6-0.3-1.1-0.4-1.6s-0.3-1.1-0.4-1.7c0-0.2-0.1-0.4-0.1-0.6c-0.1-0.5-0.1-1-0.2-1.5c0-0.3-0.1-0.6-0.1-1c0-0.3,0-0.6,0-0.9
			s0-0.6,0-1c0-0.6,0-1.1,0.1-1.6c0-0.2,0-0.5,0.1-0.8v-0.5c0-0.2,0-0.4,0.1-0.6c0-0.2,0-0.4,0.1-0.6c0-0.4,0.1-0.7,0.2-1
			c0.1-0.4,0.1-0.7,0.2-1.1c0.1-0.4,0.2-0.8,0.3-1.2c0.1-0.2,0.1-0.4,0.2-0.6c0.1-0.2,0.1-0.4,0.2-0.6l0,0l0.1-0.2
			c0.1-0.3,0.2-0.7,0.4-1c0.1-0.2,0.2-0.5,0.3-0.8c0.1-0.2,0.2-0.5,0.3-0.8c0.3-0.7,0.7-1.5,1.1-2.2c0.1-0.2,0.3-0.5,0.4-0.7
			c0.2-0.3,0.4-0.6,0.6-0.9c0.1-0.2,0.2-0.4,0.4-0.6c0,0,0.1-0.1,0.2-0.2c0.6-0.8,1.2-1.6,1.8-2.3l0.1-0.1
			c1.5-2,11.9-16.1,13.6-30.5C-64.2,188,9.9,117.6,100,117.6c93.2,0,169,75.8,169,169c0,8.4-0.6,16.8-1.8,25c0.4,0,0.9-0.1,1.3-0.1
			c0.8,0,1.7,0.1,2.5,0.2c8.5,1.6,14.8,11,17.8,26.6c2.8,14.8,2.4,33.7-1.1,53.1c-3.1,16.7-8.1,32.1-14.5,44.4
			c-2.3,4.3-4.7,8.2-7.2,11.5c-6.4,8.5-13.2,12.9-19.6,12.9c-0.8,0-1.7-0.1-2.5-0.2c-0.1,0-0.2,0-0.4-0.1
			c-0.9,8.3-2.4,16.5-4.5,24.7c-8.3,32.9-25.2,62.4-48.7,85.1c-5.2,4.7-10.8,9.4-16.6,14.1c-11.9,9.6-25.3,19.2-39.6,28.6
			c-19,12.5-35.2,21.6-43.1,25.9c-2.1,1.2-3.6,1.9-4.2,2.3l0,0c-0.1,0-0.2,0.1-0.2,0.1c-0.2,0.1-0.3,0.1-0.3,0.1h-0.1
			C77.9,644.9,68.9,646.9,59.6,646.9z"/>
		<path d="M100,120.1c92,0,166.5,74.6,166.5,166.5c0,9.1-0.7,17.9-2.1,26.6c-0.1,0.5-0.2,1.1-0.3,1.6c1.5-0.5,2.9-0.8,4.4-0.8
			c0.7,0,1.4,0.1,2,0.2c15.3,2.8,21.9,37.2,14.7,76.8c-3.1,17-8.2,32.1-14.3,43.7c-2.2,4.2-4.5,8-6.9,11.1
			c-5.7,7.6-11.8,11.9-17.6,11.9c-0.7,0-1.4-0.1-2-0.2c-1-0.2-2-0.5-3-1c-0.9,9.1-2.4,18.3-4.8,27.4c-8.5,33.6-25.6,62.3-48,83.9
			c-5.3,4.8-10.9,9.4-16.5,13.9c-13.3,10.6-26.9,20.3-39.4,28.4c-19.1,12.6-35.4,21.7-42.9,25.8c-2.2,1.2-3.7,2-4.3,2.3
			c0,0-0.1,0-0.1,0.1c-0.1,0.1-0.2,0.1-0.2,0.1l0,0c-7.8,3.7-16.5,5.8-25.7,5.8c-25.5,0-47.2-16-55.7-38.5c-1.5-3.9-2.6-8-3.2-12.3
			v-0.1c-2-7.2-4.1-13.9-6.3-20.2c-0.4-1.2-0.8-2.5-1.3-3.7c-0.4-1.1-0.7-2.1-1.1-3.1c-0.4-1.1-0.8-2.2-1.2-3.3c-0.4-1-0.8-2-1.2-3
			l0,0c-0.2-0.6-0.5-1.3-0.7-1.9c-0.3-0.7-0.6-1.4-0.9-2.1s-0.6-1.4-0.9-2.1c-0.3-0.7-0.6-1.4-0.9-2.1s-0.6-1.3-0.9-2
			c-1.6-3.8-3.3-7.4-4.9-10.7c-1.5-3.1-2.9-5.9-4.3-8.6l-0.1-0.1c-9.2-17.5-17.1-26.8-20-30.1l0,0c-0.8-0.9-1.3-1.3-1.3-1.3
			c-16.3-12.8-27.5-38.2-27.5-67.4c0-13.9,2.5-26.9,6.9-38.1l0,0c9.5-31.3-6.9-43.6-8.6-44.8c-0.1-0.1-0.1-0.1-0.1-0.1
			c-4.2-2.4-7.6-6.1-9.9-10.4c-0.1-0.3-0.3-0.5-0.4-0.8c-0.1-0.2-0.2-0.4-0.3-0.6c-0.1-0.2-0.2-0.5-0.3-0.7
			c-0.3-0.7-0.5-1.4-0.8-2.1c-0.2-0.5-0.3-1-0.4-1.4c-0.1-0.5-0.2-1-0.3-1.5c0-0.2-0.1-0.3-0.1-0.5c-0.1-0.5-0.1-0.9-0.2-1.4
			c0-0.3-0.1-0.6-0.1-0.9c0-0.3,0-0.6,0-0.9s0-0.6,0-0.9c0-0.5,0-1,0-1.5c0-0.3,0-0.5,0-0.8c0-0.2,0-0.3,0-0.5s0-0.4,0.1-0.5
			c0-0.2,0-0.4,0.1-0.5c0-0.3,0.1-0.6,0.2-0.9c0.1-0.3,0.1-0.7,0.2-1c0.1-0.4,0.2-0.7,0.3-1.1c0.1-0.2,0.1-0.4,0.2-0.6
			s0.1-0.4,0.2-0.6v-0.1c0.1-0.3,0.2-0.6,0.3-0.9c0.1-0.3,0.2-0.5,0.3-0.8c0.1-0.2,0.2-0.4,0.3-0.6c0.3-0.7,0.7-1.4,1-2.1
			c0.1-0.2,0.2-0.4,0.4-0.6c0.2-0.3,0.3-0.5,0.5-0.8c0.1-0.2,0.2-0.3,0.3-0.5l0.1-0.1l0,0c0.5-0.8,1.2-1.6,1.8-2.3l0,0
			c0,0,0,0,0-0.1c1-1.4,12.4-16.3,14.2-31.9l0,0C-61.9,190,10.9,120.1,100,120.1 M100,115.1c-44.3,0-86.3,16.8-118.3,47.3
			c-31.9,30.4-50.7,71.3-53,115.1c-1.7,13.4-11.2,26.7-13,29.1l0,0l-0.1,0.2c-0.7,0.8-1.3,1.6-1.9,2.4c-0.1,0.1-0.2,0.2-0.3,0.4
			c-0.1,0.2-0.3,0.4-0.4,0.6c-0.2,0.3-0.4,0.6-0.6,0.9c-0.2,0.3-0.3,0.5-0.5,0.9c-0.4,0.8-0.8,1.5-1.2,2.4c-0.1,0.3-0.3,0.6-0.4,0.9
			c-0.1,0.3-0.2,0.6-0.3,0.9c-0.1,0.3-0.3,0.7-0.4,1v0.1l0,0v0.1l0,0c-0.1,0.2-0.1,0.4-0.2,0.7c-0.1,0.2-0.1,0.4-0.2,0.7
			c-0.1,0.4-0.2,0.9-0.3,1.3c-0.1,0.4-0.2,0.8-0.2,1.2c-0.1,0.4-0.1,0.8-0.2,1.1c0,0.2-0.1,0.4-0.1,0.6s-0.1,0.5-0.1,0.7v0.5
			c0,0.3-0.1,0.7-0.1,1c0,0.6-0.1,1.1-0.1,1.7c0,0.3,0,0.7,0,1c0,0.4,0,0.7,0.1,1.1c0,0.4,0,0.7,0.1,1c0.1,0.5,0.1,1.1,0.2,1.7
			c0,0.2,0.1,0.4,0.1,0.7c0.1,0.6,0.2,1.3,0.4,1.9c0.1,0.5,0.3,1.1,0.5,1.8c0.3,0.9,0.6,1.7,0.9,2.5c0.1,0.3,0.2,0.5,0.3,0.7
			c0.1,0.2,0.2,0.4,0.3,0.6l0.1,0.1l0,0l0,0c0.1,0.3,0.3,0.5,0.4,0.8l0,0l0,0c2.7,5.2,6.7,9.4,11.7,12.4c2,1.4,14.7,11.8,6.7,38.7
			l-0.3,0.7v0.3c-4.5,11.9-6.9,25.3-6.9,39c0,29.6,11.2,56.8,29.2,71.1c0.1,0.1,0.3,0.3,0.6,0.6l0.3,0.3
			c2.8,3.1,10.3,12.1,19.3,29.1l0.1,0.1c1.4,2.7,2.9,5.5,4.2,8.4c1.6,3.3,3.2,6.9,4.8,10.5c0.3,0.6,0.6,1.3,0.8,2l0.3,0.7
			c0.2,0.4,0.4,0.9,0.5,1.3l0.6,1.4l0.3,0.7c0.3,0.7,0.6,1.4,0.8,2.1c0.2,0.6,0.5,1.2,0.7,1.9l1.2,3.2l0,0c0.4,1,0.8,2,1.1,3l0,0
			l0,0c0.3,0.8,0.6,1.7,0.9,2.5l0.2,0.6l0.4,1.1c0.3,0.8,0.6,1.7,0.9,2.5c2.2,6.4,4.2,13,6.1,19.7c0.7,4.5,1.8,8.9,3.4,13.1
			c4.6,12.1,12.6,22.5,23.3,30c10.9,7.7,23.7,11.7,37.1,11.7c9.7,0,19-2.1,27.7-6.2h0.1c0,0,0.1-0.1,0.3-0.2c0.1,0,0.2-0.1,0.4-0.2
			l0,0c0.7-0.4,2.1-1.1,4.2-2.3c7.9-4.3,24.2-13.5,43.3-26c14.4-9.4,27.7-19.1,39.7-28.7c5.9-4.7,11.5-9.5,16.7-14.1l0.1-0.1
			l0.1-0.1c23.8-23,40.9-52.9,49.3-86.3c1.9-7.4,3.3-15,4.3-22.5c0.2,0,0.4,0,0.6,0c7.3,0,14.7-4.8,21.6-13.9
			c2.6-3.4,5.1-7.4,7.4-11.8c6.6-12.5,11.7-28.1,14.8-45.1c3.6-19.7,4-38.9,1.1-54c-3.2-16.7-10.2-26.8-19.8-28.6
			c-0.5-0.1-0.9-0.1-1.4-0.2c1-7.4,1.5-15,1.5-22.5c0-45.8-17.8-88.9-50.2-121.3c-15.8-15.8-34.1-28.1-54.5-36.8
			C145.6,119.6,123.1,115.1,100,115.1L100,115.1z"/>
	</g>
	<path class="st2" d="M85.5,638.5c0.5-0.3,2-1.1,4.4-2.3C88.4,637,87,637.8,85.5,638.5z"/>
	<ellipse cx="-29.4" cy="366" rx="12.4" ry="14.4"/>
	<ellipse cx="88.2" cy="366" rx="12.4" ry="14.4"/>
	<path class="st3" d="M61.4,463.2c-0.7,8.4-3.9,13.5-7.5,16.6"/>
	<path class="st4" d="M-19.6,365.1c0,0,6.1,50.1-20.1,81c-2,2.6-3.6,5.5-4.7,8.7c-1.1,3.2-1.7,6.5-1.7,10.1c0,7.9,3,15.1,7.9,20.5"
		/>
	<path d="M131.3,520.2v44.6c0,3.8-3.1,6.8-6.8,6.8c-3.8,0-6.8-3.1-6.8-6.8v-40.9c0,0-36.3,9-91.7,10.3c0,0-11.2-2-14.9-14
		c0,0-2,12.7-11.8,12.3l-22.9-2l4.4,8.7c4.1,8.6,8.4,18.7,12.5,30.4c0.4,1.2,0.8,2.4,1.3,3.7c-2.7,1.3-7.2,1.8-11.5-5.1
		c-5.4-8.6-27.9-42.4-26.7-67.8c0.3-6.6,2.2-12.7,6.4-17.6c5.4,6,13.3,9.8,22.1,9.8c4.7,0,9.1-1.1,13.1-3
		c39.6-24.1,40.2-6.4,40.2-6.4s7.8,0.5,14.1-4.8l68.3,26.3C120.4,504.8,131.3,509.9,131.3,520.2z"/>
	<path d="M135.5,592.5c0.9-1.2,2.8-0.3,2.5,1.2c-4.5,19.9-14.6,39.8-34.6,55.4c-62.5,48.5-95.1,23.6-95.1,23.6
		C-4,648.2-2.8,614-2,601.7c13.9,11.4,37.7,19.8,64.8,19C88.5,619.9,123,608.7,135.5,592.5z"/>
	<path d="M79.1,555.7c0,0-22.4,35.4-69,46.4c0,0-18.2-11.1-28.6-45.4C-18.6,556.7,18.2,577.8,79.1,555.7z"/>
	<path d="M131.3,520.2v44.6c0,3.8-3.1,6.8-6.8,6.8c-3.8,0-6.8-3.1-6.8-6.8v-40.9c0,0-36.3,9-91.7,10.3c0,0-11.2-2-14.9-14
		c0,0-2,12.7-11.8,12.3l-22.9-2l4.4,8.7c4.1,8.6,8.4,18.7,12.5,30.4c0.4,1.2,0.8,2.4,1.3,3.7c-2.7,1.3-7.2,1.8-11.5-5.1
		c-5.4-8.6-27.9-42.4-26.7-67.8c0.3-6.6,2.2-12.7,6.4-17.6c5.4,6,13.3,9.8,22.1,9.8c4.7,0,9.1-1.1,13.1-3
		c39.6-24.1,40.2-6.4,40.2-6.4s7.8,0.5,14.1-4.8l68.3,26.3C120.4,504.8,131.3,509.9,131.3,520.2z"/>
	<path d="M135.5,592.5c0.9-1.2,2.8-0.3,2.5,1.2c-4.5,19.9-14.6,39.8-34.6,55.4c-62.5,48.5-95.1,23.6-95.1,23.6
		C-4,648.2-2.8,614-2,601.7c13.9,11.4,37.7,19.8,64.8,19C88.5,619.9,123,608.7,135.5,592.5z"/>
	<path d="M79.1,555.7c0,0-22.4,35.4-69,46.4c0,0-18.2-11.1-28.6-45.4C-18.6,556.7,18.2,577.8,79.1,555.7z"/>
	<path class="st4" d="M79.8,471c0,0,12.8,24.1,38.6,35.5"/>
	<path d="M169.7,342.2c0.2,1.1-1.3,1.7-1.9,0.8c-0.5-0.7-1-1.4-1.6-2.2c-7-9.5-23.1-27.3-45.8-28.7c-30.7-1.8-72.6,24.9-73.9,25.7
		l0,0c-2.8,2.1-5.6,3.8-8.4,5c-7.9,3.6-15.2,3.6-18.3-0.4c-1.8-2.4-1.8-5.8-0.4-9.6c1.8-4.9,6.1-10.3,12.1-14.8
		c2-1.5,4.1-2.8,6.1-3.9l0,0c1-0.7,37.4-25.5,84.1-19.1c35.2,4.8,44.9,31.1,47.5,44.3C169.4,340.3,169.6,341.3,169.7,342.2z"/>
	<path d="M-37.1,344.8c-7.9-4.3-28.9-14.4-48.1-6.4c-1.8-3.5-2.8-7.5-2.8-11.7c0-5.4,1.7-10.4,4.5-14.5l0,0
		c14.5-2.4,39.7-1.5,48.7,30.7C-34.4,344.3-35.9,345.5-37.1,344.8z"/>
	<path class="st4" d="M259.4,437.5c3,1.9,5.1,7.6,5.1,14.3c0,8.2-3.2,14.9-7.2,14.9c-2.7,0-5-3-6.2-7.4"/>
	<path class="st4" d="M266.8,428.3c3,1.9,5.1,7.6,5.1,14.3c0,8.2-3.2,14.9-7.2,14.9c-1.8,0-3.5-1.4-4.7-3.6"/>
	<path class="st3" d="M247.9,328.3c5.1-7.2,11.8-13.5,20.4-16.8"/>
</g>
</svg>
