<?xml version="1.0" encoding="utf-8"?>
<!-- Generator: Adobe Illustrator 19.0.0, SVG Export Plug-In . SVG Version: 6.00 Build 0)  -->
<svg version="1.1" id="Layer_1" xmlns="http://www.w3.org/2000/svg" xmlns:xlink="http://www.w3.org/1999/xlink" x="0px" y="0px"
	 viewBox="-289 381 32 32" style="enable-background:new -289 381 32 32;" xml:space="preserve">
<style type="text/css">
	.st0{fill:#010101;}
</style>
<g id="XMLID_28_">
	<g id="XMLID_76_">
		<path id="XMLID_77_" class="st0" d="M-270.7,395.1L-270.7,395.1C-270.7,395-270.7,395.1-270.7,395.1L-270.7,395.1z M-260.1,381
			H-286c-1.6,0-3,1.4-3,3v26c0,1.7,1.4,3,3,3h25.9c1.7,0,3.1-1.4,3.1-3v-26C-257,382.4-258.4,381-260.1,381z M-280.8,387.1
			c1.4,0,2.2,1,2.3,2.3c0,1.3-0.9,2.3-2.3,2.3l0,0c-1.4,0-2.2-1-2.2-2.3C-283.1,388.1-282.2,387.1-280.8,387.1z M-278.3,406.9h-4.6
			v-13.7h4.6V406.9z M-261.6,406.9h-4.5v-7.2c0-1.8-0.5-3-2.1-3c-1.2,0-2,0.8-2.3,1.6c-0.1,0.3-0.1,0.7-0.1,1.1v7.5h-4.7
			c0,0,0.1-12.6,0-13.8h4.7v1.9c0.6-0.9,1.7-2.2,4.1-2.2c3,0,5,2.3,5,6.4v7.7H-261.6z"/>
	</g>
</g>
</svg>
