<?xml version="1.0" encoding="utf-8"?>
<!-- Generator: Adobe Illustrator 19.0.0, SVG Export Plug-In . SVG Version: 6.00 Build 0)  -->
<svg version="1.1" id="Layer_1" xmlns="http://www.w3.org/2000/svg" xmlns:xlink="http://www.w3.org/1999/xlink" x="0px" y="0px"
	 viewBox="-36 -109.1 538.2 1011.1" style="enable-background:new -36 -109.1 538.2 1011.1;" xml:space="preserve">
<style type="text/css">
	.st0{fill:#DAD7C6;stroke:#BDB8A5;stroke-width:5;stroke-miterlimit:10;}
	.st1{fill:#BDB8A5;}
	.st2{fill:none;stroke:#BDB8A5;stroke-width:2;stroke-linecap:round;stroke-miterlimit:10;stroke-dasharray:5,5;}
	.st3{fill:#FFFFFF;stroke:#BDB8A5;stroke-width:5;stroke-miterlimit:10;}
	.st4{fill:none;stroke:#BDB8A5;stroke-width:2;stroke-linejoin:round;stroke-miterlimit:10;}
</style>
<circle class="st0" cx="342.9" cy="-44.4" r="7.4"/>
<polygon class="st1" points="480.4,-6.6 491.3,11.2 502.2,-6.6 "/>
<path class="st1" d="M491.3-3.3c-1.4,0-2.5-1.1-2.5-2.5v-3.3c0-1.4,1.1-2.5,2.5-2.5s2.5,1.1,2.5,2.5v3.3
	C493.8-4.4,492.7-3.3,491.3-3.3z M491.3-14.6c-1.4,0-2.5-1.1-2.5-2.5v-6c0-1.4,1.1-2.5,2.5-2.5s2.5,1.1,2.5,2.5v6
	C493.8-15.7,492.7-14.6,491.3-14.6z M490.4-28.5c-1.1,0-2.1-0.7-2.4-1.8c-0.5-1.8-1.2-3.3-2.1-4.7c-0.8-1.1-0.5-2.7,0.6-3.5
	c1.1-0.8,2.7-0.5,3.5,0.6c1.2,1.8,2.2,3.9,2.8,6.2c0.4,1.3-0.4,2.7-1.7,3.1C490.8-28.5,490.6-28.5,490.4-28.5z M482-39.1
	c-0.4,0-0.8-0.1-1.2-0.3c-1.5-0.8-3.2-1.4-5-1.8c-1.3-0.3-2.2-1.6-1.9-3c0.3-1.3,1.6-2.2,3-1.9c2.3,0.5,4.4,1.3,6.3,2.3
	c1.2,0.6,1.7,2.2,1,3.4C483.7-39.6,482.9-39.1,482-39.1z M467.8-41.7h-5.4c-1.4,0-2.5-1.1-2.5-2.5s1.1-2.5,2.5-2.5h5.3
	c0.1,0,0.3,0,0.6,0c1.4-0.1,2.6,0.9,2.7,2.3c0.1,1.4-0.9,2.6-2.3,2.7c-0.3,0-0.4,0-0.5,0L467.8-41.7z M454.4-41.7h-6
	c-1.4,0-2.5-1.1-2.5-2.5s1.1-2.5,2.5-2.5h6c1.4,0,2.5,1.1,2.5,2.5S455.8-41.7,454.4-41.7z M440.4-41.7h-6c-1.4,0-2.5-1.1-2.5-2.5
	s1.1-2.5,2.5-2.5h6c1.4,0,2.5,1.1,2.5,2.5S441.8-41.7,440.4-41.7z M426.4-41.7h-6c-1.4,0-2.5-1.1-2.5-2.5s1.1-2.5,2.5-2.5h6
	c1.4,0,2.5,1.1,2.5,2.5S427.8-41.7,426.4-41.7z M412.4-41.7h-6c-1.4,0-2.5-1.1-2.5-2.5s1.1-2.5,2.5-2.5h6c1.4,0,2.5,1.1,2.5,2.5
	S413.8-41.7,412.4-41.7z M398.4-41.7h-6c-1.4,0-2.5-1.1-2.5-2.5s1.1-2.5,2.5-2.5h6c1.4,0,2.5,1.1,2.5,2.5S399.8-41.7,398.4-41.7z
	 M384.4-41.7h-6c-1.4,0-2.5-1.1-2.5-2.5s1.1-2.5,2.5-2.5h6c1.4,0,2.5,1.1,2.5,2.5S385.8-41.7,384.4-41.7z M370.4-41.7h-6
	c-1.4,0-2.5-1.1-2.5-2.5s1.1-2.5,2.5-2.5h6c1.4,0,2.5,1.1,2.5,2.5S371.8-41.7,370.4-41.7z M356.4-41.7h-6c-1.4,0-2.5-1.1-2.5-2.5
	s1.1-2.5,2.5-2.5h6c1.4,0,2.5,1.1,2.5,2.5S357.8-41.7,356.4-41.7z"/>
<ellipse transform="matrix(-0.7578 -0.6524 0.6524 -0.7578 -290.64 1384.8616)" class="st2" cx="111.7" cy="746.4" rx="171.8" ry="103.5"/>
<ellipse transform="matrix(5.077409e-002 -0.9987 0.9987 5.077409e-002 -640.931 784.2432)" class="st2" cx="92.1" cy="729.3" rx="171.8" ry="103.5"/>
<path id="Cut_3_" class="st1" d="M231.4,656.8v16.8c0,0.3-0.1,0.6-0.4,0.7l-13.1,8.7l-13.1-8.7c-0.2-0.2-0.4-0.4-0.4-0.7v-16.8
	c0-0.7,0.8-1.1,1.4-0.7l12.1,8l12.1-8C230.6,655.6,231.4,656.1,231.4,656.8z"/>
<g>
	<circle class="st0" cx="271.6" cy="480.9" r="23"/>
	<path class="st1" d="M256.8,499.1h-1.4v-2.7h1.4V499.1z M284.4,496.4h-3.1v2.7h3.1V496.4z M279.8,496.4h-3.1v2.7h3.1V496.4z
		 M275.2,496.4h-3.1v2.7h3.1V496.4z M270.6,496.4h-3.1v2.7h3.1V496.4z M266,496.4h-3.1v2.7h3.1V496.4z M261.4,496.4h-3.1v2.7h3.1
		V496.4z M287.4,496.4H286v2.7h1.4V496.4z M278,481.7h4.1V479H278c-0.1-0.3-0.1-0.5-0.2-0.8l7.1-4.1l-1.3-2.3l-7.1,4.1
		c-0.2-0.2-0.3-0.4-0.5-0.5l2.1-3.7l-2.3-1.3l-2.1,3.7c-0.2-0.1-0.5-0.1-0.7-0.2V467h-2.7v6.9c-0.2,0.1-0.5,0.1-0.7,0.2l-2.1-3.7
		l-2.3,1.3l2.1,3.7c-0.2,0.1-0.4,0.3-0.5,0.5l-7.1-4.1l-1.3,2.3l7.1,4.1c-0.1,0.2-0.2,0.5-0.2,0.7h-4.2v2.7h4.1
		c0,0.3,0.1,0.5,0.2,0.8l-7,4.1l1.3,2.3l7-4c0.2,0.2,0.3,0.4,0.6,0.6l-2,3.5l2.3,1.3l2-3.5c0.3,0.1,0.6,0.2,0.8,0.2v5h-3l4.3,4.3
		l4.3-4.3h-3v-5c0.3-0.1,0.6-0.1,0.8-0.2l2,3.5l2.3-1.3l-2-3.5c0.2-0.2,0.4-0.4,0.6-0.6l7,4l1.3-2.3l-7-4
		C277.9,482.2,278,482,278,481.7z"/>
</g>
<g>
	<circle class="st3" cx="292.4" cy="-19.4" r="23.5"/>
	<polygon class="st1" points="288.5,-23.2 288.5,-30.2 277.6,-19.4 288.4,-8.6 288.4,-15.6 296.2,-15.6 296.2,-8.6 307.1,-19.4 
		296.3,-30.2 296.3,-23.2 	"/>
</g>
<g>
	<path class="st4" d="M222.2-59.6c0,0,1.2-0.5-5.6-12.5c-6.8-12-7.8-11.2-7.8-11.2c-13.1,4.3-20,4.8-20,4.8l0,0
		c-4.2-3.4-8.9-6.2-14-8.3h0.4c0,0-3.1-6.3-5.9-20c0,0,0.1-1.3-13.5-1.3s-13.5,1.3-13.5,1.3c-2.6,12.6-5.4,18.9-5.8,19.9
		c-0.3,0.1-0.7,0.2-1,0.4c-4.5,1.9-8.8,4.4-12.6,7.4v-0.1c0,0-6.9-0.6-19.9-5.2c0,0-1-0.8-8,11.1c-7,11.8-5.9,12.4-5.9,12.4
		C99.2-51.4,103-45.5,103-45.5v-0.1c-0.5,3-0.8,6-0.8,9.1c0,2.7,0.2,5.4,0.6,8l0,0c0,0-3.9,5.8-14.2,15.1c0,0-1.2,0.5,5.6,12.5
		s7.8,11.3,7.8,11.3c13.1-4.3,20-4.8,20-4.8V5.5c4.2,3.4,8.9,6.3,14.1,8.3h-0.4c0,0,3.1,6.3,5.9,20c0,0-0.1,1.3,13.5,1.3
		s13.5-1.3,13.5-1.3c2.6-12.5,5.4-18.9,5.8-19.8c4.9-1.9,9.5-4.5,13.6-7.7v0.1c0,0,6.9,0.6,19.9,5.2c0,0,1,0.8,8-11.1
		s5.9-12.4,5.9-12.4c-10.1-9.5-13.9-15.4-13.9-15.4v0.1c0.5-3,0.8-6,0.8-9.1c0-2.7-0.2-5.4-0.6-7.9l0,0
		C208.1-44.5,211.9-50.3,222.2-59.6z M155.4,8.7c-24.9,0-45.2-20.3-45.2-45.3s20.3-45.3,45.2-45.3s45.2,20.3,45.2,45.3
		C200.6-11.6,180.3,8.7,155.4,8.7z M155.4-76.5c-22,0-39.8,17.9-39.8,39.9s17.9,39.9,39.8,39.9c22,0,39.8-17.9,39.8-39.9
		S177.4-76.5,155.4-76.5z M155.4-11.9c-13.6,0-24.6-11-24.6-24.7c0-13.6,11-24.7,24.6-24.7S180-50.2,180-36.6
		C180-22.9,169-11.9,155.4-11.9z"/>
</g>
</svg>
