<?xml version="1.0" encoding="utf-8"?>
<!-- Generator: Adobe Illustrator 19.0.0, SVG Export Plug-In . SVG Version: 6.00 Build 0)  -->
<svg version="1.1" xmlns="http://www.w3.org/2000/svg" xmlns:xlink="http://www.w3.org/1999/xlink" x="0px" y="0px"
	 viewBox="0 0 380.9 567.4" style="enable-background:new 0 0 380.9 567.4;" xml:space="preserve">
<style type="text/css">
	.st0{fill:none;stroke:#000000;stroke-width:2;stroke-linecap:round;stroke-miterlimit:10;stroke-dasharray:5,5;}
	.st1{fill:#799EA4;}
	.st2{fill:#C25047;}
	.st3{fill:none;stroke:#000000;stroke-width:2;stroke-linecap:round;stroke-miterlimit:10;}
</style>
<g id="Overlays">
	<line class="st0" x1="99.7" y1="13.8" x2="354.8" y2="13.8"/>
	<line class="st0" x1="16.3" y1="304.9" x2="152.9" y2="304.9"/>
	<line class="st0" x1="12.2" y1="553.4" x2="46.1" y2="553.4"/>
	<polygon class="st1" points="135.4,521.3 135.4,521.4 117.8,539 117.8,530.9 90.1,530.9 90.1,511.4 117.8,511.4 117.8,503.5 	"/>
</g>
<g id="Icons">
	<path id="Cut_2_" d="M143,534.7v-20.2c0-0.4,0.2-0.7,0.5-0.9l15.8-10.5l15.8,10.5c0.3,0.2,0.5,0.5,0.5,0.9v20.2
		c0,0.9-1,1.4-1.7,0.9l-14.6-9.7l-14.6,9.7C143.9,536.1,143,535.6,143,534.7z"/>
	<g>
		<g>
			<path class="st2" d="M138.6,239.8l4.2,14.8l4.2-14.8l-4.2-14.8L138.6,239.8z M142.7,249l-2.8-9.2h5.6L142.7,249z"/>
			<path class="st2" d="M142.7,218.7c-11.6,0-21.1,9.4-21.1,21.1c0,11.6,9.4,21.1,21.1,21.1c11.6,0,21.1-9.4,21.1-21.1
				C163.8,228.2,154.4,218.7,142.7,218.7z M142.7,256.3c-9.1,0-16.5-7.4-16.5-16.5c0-9.1,7.4-16.5,16.5-16.5
				c9.1,0,16.5,7.4,16.5,16.5C159.3,248.9,151.9,256.3,142.7,256.3z"/>
		</g>
	</g>
	<path id="Option_Keys_1_" d="M111.8,385V413h28V385H111.8z M133.1,400.1H127v6.2h-2.4v-6.2h-6.2v-2.4h6.2v-6.2h2.4v6.2h6.1V400.1z
		 M146.9,388.6V420h-31.5v-3.5h28v-28H146.9z"/>
	<path class="st2" d="M263.6,394.1c-8.4,0-15.2,6.8-15.2,15.2s15.2,22.7,15.2,22.7s15.2-14.4,15.2-22.7S271.9,394.1,263.6,394.1
		 M263.6,418.6c-5.2,0-9.5-4.2-9.5-9.5c0-5.2,4.2-9.5,9.5-9.5s9.5,4.2,9.5,9.5C273,414.3,268.8,418.6,263.6,418.6z"/>
	<path d="M73.9,548.9c0,0,0.2-0.1-1.1-2.4c-1.3-2.3-1.5-2.2-1.5-2.2c-2.6,0.8-3.9,0.9-3.9,0.9l0,0c-0.8-0.7-1.7-1.2-2.7-1.6h0.1
		c0,0-0.6-1.2-1.2-3.9c0,0,0-0.2-2.6-0.2c-2.7,0-2.6,0.2-2.6,0.2c-0.5,2.5-1,3.7-1.1,3.9c-0.1,0-0.1,0-0.2,0.1
		c-0.9,0.4-1.7,0.9-2.5,1.4l0,0c0,0-1.3-0.1-3.9-1c0,0-0.2-0.2-1.6,2.2c-1.4,2.3-1.1,2.4-1.1,2.4c2,1.9,2.7,3,2.7,3l0,0
		c-0.1,0.6-0.2,1.2-0.2,1.8c0,0.5,0,1,0.1,1.6l0,0c0,0-0.8,1.1-2.8,3c0,0-0.2,0.1,1.1,2.4c1.3,2.3,1.5,2.2,1.5,2.2
		c2.6-0.8,3.9-0.9,3.9-0.9l0,0c0.8,0.7,1.7,1.2,2.7,1.6H57c0,0,0.6,1.2,1.2,3.9c0,0,0,0.2,2.6,0.2c2.7,0,2.6-0.2,2.6-0.2
		c0.5-2.5,1-3.7,1.1-3.9c1-0.4,1.8-0.9,2.7-1.5l0,0c0,0,1.3,0.1,3.9,1c0,0,0.2,0.2,1.6-2.2c1.4-2.3,1.1-2.4,1.1-2.4
		c-2-1.9-2.7-3-2.7-3l0,0c0.1-0.6,0.1-1.2,0.1-1.8c0-0.5,0-1-0.1-1.6l0,0C71.1,551.8,71.9,550.7,73.9,548.9z M60.8,562.2
		c-4.9,0-8.8-4-8.8-8.9c0-4.9,4-8.9,8.8-8.9c4.9,0,8.8,4,8.8,8.9C69.7,558.2,65.7,562.2,60.8,562.2z M60.8,545.6
		c-4.3,0-7.8,3.5-7.8,7.8c0,4.3,3.5,7.8,7.8,7.8c4.3,0,7.8-3.5,7.8-7.8C68.6,549.1,65.1,545.6,60.8,545.6z M60.8,558.2
		c-2.7,0-4.8-2.2-4.8-4.8c0-2.7,2.2-4.8,4.8-4.8c2.7,0,4.8,2.2,4.8,4.8C65.7,556,63.5,558.2,60.8,558.2z"/>
	<path d="M179.5,300.4c0,0,0.2-0.1-1.1-2.4c-1.3-2.3-1.5-2.2-1.5-2.2c-2.6,0.8-3.9,0.9-3.9,0.9l0,0c-0.8-0.7-1.7-1.2-2.7-1.6h0.1
		c0,0-0.6-1.2-1.2-3.9c0,0,0-0.2-2.6-0.2c-2.7,0-2.6,0.2-2.6,0.2c-0.5,2.5-1,3.7-1.1,3.9c-0.1,0-0.1,0-0.2,0.1
		c-0.9,0.4-1.7,0.9-2.5,1.4l0,0c0,0-1.3-0.1-3.9-1c0,0-0.2-0.2-1.6,2.2c-1.4,2.3-1.1,2.4-1.1,2.4c2,1.9,2.7,3,2.7,3l0,0
		c-0.1,0.6-0.2,1.2-0.2,1.8c0,0.5,0,1,0.1,1.6l0,0c0,0-0.8,1.1-2.8,3c0,0-0.2,0.1,1.1,2.4c1.3,2.3,1.5,2.2,1.5,2.2
		c2.6-0.8,3.9-0.9,3.9-0.9l0,0c0.8,0.7,1.7,1.2,2.7,1.6h-0.1c0,0,0.6,1.2,1.2,3.9c0,0,0,0.2,2.6,0.2c2.7,0,2.6-0.2,2.6-0.2
		c0.5-2.5,1-3.7,1.1-3.9c1-0.4,1.8-0.9,2.7-1.5l0,0c0,0,1.3,0.1,3.9,1c0,0,0.2,0.2,1.6-2.2c1.4-2.3,1.1-2.4,1.1-2.4
		c-2-1.9-2.7-3-2.7-3l0,0c0.1-0.6,0.1-1.2,0.1-1.8c0-0.5,0-1-0.1-1.6l0,0C176.7,303.4,177.5,302.2,179.5,300.4z M166.5,313.8
		c-4.9,0-8.8-4-8.8-8.9c0-4.9,4-8.9,8.8-8.9c4.9,0,8.8,4,8.8,8.9C175.3,309.8,171.3,313.8,166.5,313.8z M166.5,297.1
		c-4.3,0-7.8,3.5-7.8,7.8c0,4.3,3.5,7.8,7.8,7.8c4.3,0,7.8-3.5,7.8-7.8C174.2,300.6,170.7,297.1,166.5,297.1z M166.5,309.7
		c-2.7,0-4.8-2.2-4.8-4.8c0-2.7,2.2-4.8,4.8-4.8c2.7,0,4.8,2.2,4.8,4.8C171.3,307.6,169.1,309.7,166.5,309.7z"/>
	<path d="M380.9,9.5c0,0,0.2-0.1-1.1-2.4c-1.3-2.3-1.5-2.2-1.5-2.2c-2.6,0.8-3.9,0.9-3.9,0.9l0,0c-0.8-0.7-1.7-1.2-2.7-1.6h0.1
		c0,0-0.6-1.2-1.2-3.9c0,0,0-0.2-2.6-0.2c-2.7,0-2.6,0.2-2.6,0.2c-0.5,2.5-1,3.7-1.1,3.9c-0.1,0-0.1,0-0.2,0.1
		c-0.9,0.4-1.7,0.9-2.5,1.4l0,0c0,0-1.3-0.1-3.9-1c0,0-0.2-0.2-1.6,2.2c-1.4,2.3-1.1,2.4-1.1,2.4c2,1.9,2.7,3,2.7,3l0,0
		c-0.1,0.6-0.2,1.2-0.2,1.8c0,0.5,0,1,0.1,1.6l0,0c0,0-0.8,1.1-2.8,3c0,0-0.2,0.1,1.1,2.4c1.3,2.3,1.5,2.2,1.5,2.2
		c2.6-0.8,3.9-0.9,3.9-0.9l0,0c0.8,0.7,1.7,1.2,2.7,1.6H364c0,0,0.6,1.2,1.2,3.9c0,0,0,0.2,2.6,0.2c2.7,0,2.6-0.2,2.6-0.2
		c0.5-2.5,1-3.7,1.1-3.9c1-0.4,1.8-0.9,2.7-1.5l0,0c0,0,1.3,0.1,3.9,1c0,0,0.2,0.2,1.6-2.2c1.4-2.3,1.1-2.4,1.1-2.4
		c-2-1.9-2.7-3-2.7-3l0,0c0.1-0.6,0.1-1.2,0.1-1.8c0-0.5,0-1-0.1-1.6l0,0C378.2,12.4,378.9,11.3,380.9,9.5z M367.9,22.8
		c-4.9,0-8.8-4-8.8-8.9c0-4.9,4-8.9,8.8-8.9c4.9,0,8.8,4,8.8,8.9C376.7,18.9,372.7,22.8,367.9,22.8z M367.9,6.2
		c-4.3,0-7.8,3.5-7.8,7.8c0,4.3,3.5,7.8,7.8,7.8c4.3,0,7.8-3.5,7.8-7.8C375.7,9.7,372.2,6.2,367.9,6.2z M367.9,18.8
		c-2.7,0-4.8-2.2-4.8-4.8c0-2.7,2.2-4.8,4.8-4.8c2.7,0,4.8,2.2,4.8,4.8C372.7,16.6,370.5,18.8,367.9,18.8z"/>
	<circle class="st3" cx="8.1" cy="304.9" r="3.7"/>
	<circle class="st3" cx="4.7" cy="553.4" r="3.7"/>
	<circle class="st3" cx="92" cy="14" r="3.7"/>
</g>
</svg>
