<?xml version="1.0" encoding="utf-8"?>
<!-- Generator: Adobe Illustrator 19.0.0, SVG Export Plug-In . SVG Version: 6.00 Build 0)  -->
<svg version="1.1" id="Layer_1" xmlns="http://www.w3.org/2000/svg" xmlns:xlink="http://www.w3.org/1999/xlink" x="0px" y="0px"
	 viewBox="-212 -27.7 185.9 847.7" style="enable-background:new -212 -27.7 185.9 847.7;" xml:space="preserve">
<style type="text/css">
	.st0{fill:#C25047;}
	.st1{fill:#C25045;}
	.st2{fill:none;stroke:#000000;stroke-width:2;stroke-linecap:round;stroke-miterlimit:10;stroke-dasharray:5,5;}
	.st3{fill:none;stroke:#000000;stroke-width:2;stroke-linecap:round;stroke-miterlimit:10;}
	.st4{fill:none;stroke:#000000;stroke-width:4;stroke-linecap:round;stroke-miterlimit:10;}
</style>
<g>
	<path d="M-114.8,431.2c0-1.9,1.6-3.5,3.5-3.5l0,0c1.9,0,3.5,1.6,3.5,3.5l0,0c0,1.9-1.6,3.5-3.5,3.5l0,0
		C-113.2,434.7-114.8,433.1-114.8,431.2z M-124.8,431.2c0-1.9,1.6-3.5,3.5-3.5l0,0c1.9,0,3.5,1.6,3.5,3.5l0,0c0,1.9-1.6,3.5-3.5,3.5
		l0,0C-123.2,434.7-124.8,433.1-124.8,431.2z M-134.8,431.2c0-1.9,1.6-3.5,3.5-3.5l0,0c1.9,0,3.5,1.6,3.5,3.5l0,0
		c0,1.9-1.6,3.5-3.5,3.5l0,0C-133.2,434.7-134.8,433.1-134.8,431.2z M-144.8,431.2c0-1.9,1.6-3.5,3.5-3.5l0,0c1.9,0,3.5,1.6,3.5,3.5
		l0,0c0,1.9-1.6,3.5-3.5,3.5l0,0C-143.2,434.7-144.8,433.1-144.8,431.2z M-154.8,431.2c0-1.9,1.6-3.5,3.5-3.5l0,0
		c1.9,0,3.5,1.6,3.5,3.5l0,0c0,1.9-1.6,3.5-3.5,3.5l0,0C-153.2,434.7-154.8,433.1-154.8,431.2z"/>
	<polygon points="-105,443.6 -92.1,430.7 -105,417.8 	"/>
</g>
<g>
	<path d="M-39.8,137.3h9.1V150v2.6h-2.6V150h-2.6v2.6h-2.6V150h-2.6v2.6h-2.6V150h-2.6v2.6H-49V150h-2.6v2.6h-2.6V150v-12.7h9.1
		v-5.2h5.2v5.2H-39.8z M-42.8,154.8l-3.9,6.7h7.8L-42.8,154.8z"/>
</g>
<g>
	<rect x="-153.5" y="72.3" class="st0" width="4.7" height="38.1"/>
	<polygon class="st0" points="-146.8,87.7 -146.8,71.3 -132.7,79.5 	"/>
	<path class="st0" d="M-126.7,108.7c0,5.3-9.4,9.5-21.4,9.6v-3.7c12.1-0.1,18.6-3.2,18.9-5.6l0,0c0-2.9-7.6-5.3-17.6-5.8v-1.1
		c8.1,0.4,14.8,1.9,18,4C-127.5,106.7-126.7,107.7-126.7,108.7z"/>
	<path class="st0" d="M-159.4,121.2v-3.4c-8.4-1-16.3-3.6-16.3-9c0-1.7,2.2-3.5,5.8-4.5c3.6-1.2,8.6-2.1,14.3-2.3v1.1
		c-6.2,0.3-11.5,1.4-14.6,2.8c-1.4,0.6-2.4,1.4-2.8,2.1c-0.1,0.3-0.2,0.5-0.2,0.7l0,0c0.1,1.7,5,4.6,13.8,5.7v-3.3l7.6,5.3
		L-159.4,121.2z"/>
</g>
<g>
	<g>
		<path class="st1" d="M-49.5,412.9h-23.1c-1.8,0-3.3,1.5-3.3,3.3v29c0,1.8,1.5,3.3,3.3,3.3h23.1c1.8,0,3.3-1.5,3.3-3.3v-29
			C-46.2,414.4-47.7,412.9-49.5,412.9z M-71.5,417.3h8.9v8.9h-8.9V417.3z M-50.6,444.1h-3l-1.4-1.4h-12l-1.4,1.4h-3.1v-14.8h20.8
			L-50.6,444.1L-50.6,444.1z M-50.6,426.2h-8.9v-8.9h8.9V426.2z"/>
	</g>
</g>
<g>
	<path class="st0" d="M-40.5,344.7v-3.4h6.1v-19.4h-19.4v19.4h6.1v3.4h-6.5l10,10l10-10H-40.5z M-42.4,337.1h-3.1V334h3.1V337.1z
		 M-42.4,332.4h-3.1v-6.2h3.1V332.4z"/>
	<g>
		<g>
			<rect x="-62" y="354.6" class="st0" width="2.2" height="3"/>
			<path class="st0" d="M-31.2,357.6h-4.3v-3h4.3V357.6z M-38.3,357.6h-4.3v-3h4.3V357.6z M-45.5,357.6h-4.3v-3h4.3V357.6z
				 M-52.6,357.6h-4.3v-3h4.3V357.6z"/>
			<rect x="-28.4" y="354.6" class="st0" width="2.2" height="3"/>
		</g>
	</g>
</g>
<g>
	<path d="M-106.9,197.9l-14.5-14.5c0.1-0.4,0.1-0.8,0.1-1.2c0-3.8-3-6.8-6.8-6.8c-0.9,0-1.8,0.2-2.6,0.5l3.8,3.8
		c0.7,0.7,0.7,1.8,0,2.5l-1.4,1.4c-0.7,0.7-1.8,0.7-2.5,0l-3.8-3.8c-0.3,0.7-0.4,1.5-0.4,2.3c0,3.8,3,6.8,6.8,6.8
		c0.3,0,0.6,0,0.9-0.1l14.6,14.6c1.5,1.5,4,1.5,5.6,0l0.1-0.1C-105.4,201.9-105.4,199.4-106.9,197.9z M-109.7,202.8
		c-1.2,0-2.1-0.9-2.1-2.1c0-1.2,0.9-2.1,2.1-2.1s2.1,0.9,2.1,2.1C-107.6,201.8-108.6,202.8-109.7,202.8z M-106.7,181.1l-7.5,7.5
		l-1.2-1.2l7.9-7.9c0.1-0.1,0.1-0.2,0.1-0.3s0-0.2-0.1-0.3c-0.2-0.2-0.5-0.2-0.7,0l-7.9,7.9l-1-1l7.9-7.9c0.1-0.1,0.1-0.2,0.1-0.3
		s0-0.2-0.1-0.3c-0.2-0.2-0.5-0.2-0.7,0l-7.9,7.9l-1.2-1.2l7.5-7.5c1.3-1.3,3.4-1.3,4.6,0l0.1,0.1
		C-105.4,177.8-105.4,179.9-106.7,181.1z M-125.1,192.9l1.7,1.7l-4.5,4.5l-0.6,2l-5,3.6l-1.7-1.7l3.6-5l2-0.6L-125.1,192.9z"/>
</g>
<g>
	<rect x="-165.4" y="590.2" width="42.1" height="3.5"/>
	<polygon points="-165.4,590.1 -163.4,593 -162.2,592.1 -160.5,590.9 -146.1,580.6 -143.4,578.7 -129.1,568.5 -131,565.7 	"/>
	<path d="M-137,587.6c0,1-0.2,2.1-0.4,3h3.2c0.2-1,0.3-2,0.3-3c0-5-2.7-9.5-6.8-11.8l-2.3,2.3C-139.4,579.8-137,583.4-137,587.6z"/>
</g>
<g>
	<line class="st2" x1="-41.8" y1="807.6" x2="-41.8" y2="562.4"/>
	<path d="M-29.1,541.6c0,0,0.2-0.1-1.1-2.4c-1.3-2.3-1.5-2.2-1.5-2.2c-2.6,0.8-3.9,0.9-3.9,0.9l0,0c-0.8-0.7-1.7-1.2-2.7-1.6h0.1
		c0,0-0.6-1.2-1.2-3.9c0,0,0-0.2-2.6-0.2c-2.7,0-2.6,0.2-2.6,0.2c-0.5,2.5-1,3.7-1.1,3.9c-0.1,0-0.1,0-0.2,0.1
		c-0.9,0.4-1.7,0.9-2.5,1.4l0,0c0,0-1.3-0.1-3.9-1c0,0-0.2-0.2-1.6,2.2c-1.4,2.3-1.1,2.4-1.1,2.4c2,1.9,2.7,3,2.7,3l0,0
		c-0.1,0.6-0.2,1.2-0.2,1.8c0,0.5,0,1,0.1,1.6l0,0c0,0-0.8,1.1-2.8,3c0,0-0.2,0.1,1.1,2.4c1.3,2.3,1.5,2.2,1.5,2.2
		c2.6-0.8,3.9-0.9,3.9-0.9l0,0c0.8,0.7,1.7,1.2,2.7,1.6h0c0,0,0.6,1.2,1.2,3.9c0,0,0,0.2,2.6,0.2c2.7,0,2.6-0.2,2.6-0.2
		c0.5-2.5,1-3.7,1.1-3.9c1-0.4,1.8-0.9,2.7-1.5l0,0c0,0,1.3,0.1,3.9,1c0,0,0.2,0.2,1.6-2.2c1.4-2.3,1.1-2.4,1.1-2.4
		c-2-1.9-2.7-3-2.7-3l0,0c0.1-0.6,0.1-1.2,0.1-1.8c0-0.5,0-1-0.1-1.6l0,0C-31.9,544.6-31.2,543.4-29.1,541.6z M-42.2,555
		c-4.9,0-8.8-4-8.8-8.9s4-8.9,8.8-8.9c4.9,0,8.8,4,8.8,8.9S-37.3,555-42.2,555z M-42.2,538.3c-4.3,0-7.8,3.5-7.8,7.8
		s3.5,7.8,7.8,7.8s7.8-3.5,7.8-7.8S-37.9,538.3-42.2,538.3z M-42.2,550.9c-2.7,0-4.8-2.2-4.8-4.8c0-2.7,2.2-4.8,4.8-4.8
		c2.7,0,4.8,2.2,4.8,4.8C-37.4,548.8-39.5,550.9-42.2,550.9z"/>
	<circle class="st3" cx="-41.8" cy="815.3" r="3.7"/>
</g>
<g>
	<path d="M-179.2,46.4c0-1.9,1.6-3.5,3.5-3.5l0,0c1.9,0,3.5,1.6,3.5,3.5l0,0c0,1.9-1.6,3.5-3.5,3.5l0,0
		C-177.6,49.9-179.2,48.3-179.2,46.4z M-179.2,36.4c0-1.9,1.6-3.5,3.5-3.5l0,0c1.9,0,3.5,1.6,3.5,3.5l0,0c0,1.9-1.6,3.5-3.5,3.5l0,0
		C-177.6,39.9-179.2,38.3-179.2,36.4z M-179.2,26.4c0-1.9,1.6-3.5,3.5-3.5l0,0c1.9,0,3.5,1.6,3.5,3.5l0,0c0,1.9-1.6,3.5-3.5,3.5l0,0
		C-177.6,29.9-179.2,28.3-179.2,26.4z M-179.2,16.4c0-1.9,1.6-3.5,3.5-3.5l0,0c1.9,0,3.5,1.6,3.5,3.5l0,0c0,1.9-1.6,3.5-3.5,3.5l0,0
		C-177.6,19.9-179.2,18.3-179.2,16.4z M-179.2,6.4c0-1.9,1.6-3.5,3.5-3.5l0,0c1.9,0,3.5,1.6,3.5,3.5l0,0c0,1.9-1.6,3.5-3.5,3.5l0,0
		C-177.6,9.9-179.2,8.3-179.2,6.4z M-179.2-3.6c0-1.9,1.6-3.5,3.5-3.5l0,0c1.9,0,3.5,1.6,3.5,3.5l0,0c0,1.9-1.6,3.5-3.5,3.5l0,0
		C-177.6-0.1-179.2-1.7-179.2-3.6z"/>
	<polygon points="-188.5,53.8 -175.7,66.7 -162.8,53.8 	"/>
	<circle class="st4" cx="-175.7" cy="-19.3" r="6.4"/>
</g>
<g>
	<path d="M-47.2,298.1c0-1.9,1.6-3.5,3.5-3.5l0,0c1.9,0,3.5,1.6,3.5,3.5l0,0c0,1.9-1.6,3.5-3.5,3.5l0,0
		C-45.6,301.6-47.2,300-47.2,298.1z M-47.2,288.1c0-1.9,1.6-3.5,3.5-3.5l0,0c1.9,0,3.5,1.6,3.5,3.5l0,0c0,1.9-1.6,3.5-3.5,3.5l0,0
		C-45.6,291.6-47.2,290-47.2,288.1z M-47.2,278.1c0-1.9,1.6-3.5,3.5-3.5l0,0c1.9,0,3.5,1.6,3.5,3.5l0,0c0,1.9-1.6,3.5-3.5,3.5l0,0
		C-45.6,281.6-47.2,280-47.2,278.1z M-47.2,268.1c0-1.9,1.6-3.5,3.5-3.5l0,0c1.9,0,3.5,1.6,3.5,3.5l0,0c0,1.9-1.6,3.5-3.5,3.5l0,0
		C-45.6,271.6-47.2,270-47.2,268.1z M-47.2,258.1c0-1.9,1.6-3.5,3.5-3.5l0,0c1.9,0,3.5,1.6,3.5,3.5l0,0c0,1.9-1.6,3.5-3.5,3.5l0,0
		C-45.6,261.6-47.2,260-47.2,258.1z M-47.2,248.1c0-1.9,1.6-3.5,3.5-3.5l0,0c1.9,0,3.5,1.6,3.5,3.5l0,0c0,1.9-1.6,3.5-3.5,3.5l0,0
		C-45.6,251.6-47.2,250-47.2,248.1z M-47.2,238.1c0-1.9,1.6-3.5,3.5-3.5l0,0c1.9,0,3.5,1.6,3.5,3.5l0,0c0,1.9-1.6,3.5-3.5,3.5l0,0
		C-45.6,241.6-47.2,240-47.2,238.1z M-47.2,228.1c0-1.9,1.6-3.5,3.5-3.5l0,0c1.9,0,3.5,1.6,3.5,3.5l0,0c0,1.9-1.6,3.5-3.5,3.5l0,0
		C-45.6,231.6-47.2,230-47.2,228.1z M-47.2,218.1c0-1.9,1.6-3.5,3.5-3.5l0,0c1.9,0,3.5,1.6,3.5,3.5l0,0c0,1.9-1.6,3.5-3.5,3.5l0,0
		C-45.6,221.6-47.2,220-47.2,218.1z M-47.2,208.1c0-1.9,1.6-3.5,3.5-3.5l0,0c1.9,0,3.5,1.6,3.5,3.5l0,0c0,1.9-1.6,3.5-3.5,3.5l0,0
		C-45.6,211.6-47.2,210-47.2,208.1z M-47.2,198.1c0-1.9,1.6-3.5,3.5-3.5l0,0c1.9,0,3.5,1.6,3.5,3.5l0,0c0,1.9-1.6,3.5-3.5,3.5l0,0
		C-45.6,201.6-47.2,200-47.2,198.1z M-47.2,188.1c0-1.9,1.6-3.5,3.5-3.5l0,0c1.9,0,3.5,1.6,3.5,3.5l0,0c0,1.9-1.6,3.5-3.5,3.5l0,0
		C-45.6,191.6-47.2,190-47.2,188.1z"/>
	<polygon points="-56.1,304.5 -43.2,317.4 -30.3,304.5 	"/>
	<circle class="st4" cx="-43.7" cy="173.4" r="6.4"/>
</g>
<g>
	<g>
		<path class="st1" d="M-174.2,406.6h-33c-2.6,0-4.8,2.2-4.8,4.8V453c0,2.6,2.1,4.8,4.8,4.8h33.1c2.6,0,4.8-2.2,4.8-4.8v-41.6
			C-169.4,408.8-171.5,406.6-174.2,406.6z M-175.8,451.4h-29.8V413h29.9v38.4H-175.8z"/>
	</g>
</g>
</svg>
