<?xml version="1.0" encoding="utf-8"?>
<!-- Generator: Adobe Illustrator 19.0.0, SVG Export Plug-In . SVG Version: 6.00 Build 0)  -->
<svg version="1.1" id="Layer_1" xmlns="http://www.w3.org/2000/svg" xmlns:xlink="http://www.w3.org/1999/xlink" x="0px" y="0px"
	 viewBox="-34 -122.3 542.9 1036.3" style="enable-background:new -34 -122.3 542.9 1036.3;" xml:space="preserve">
<style type="text/css">
	.st0{fill:#DAD7C6;stroke:#BDB8A5;stroke-width:5;stroke-miterlimit:10;}
	.st1{fill:#BDB8A5;}
	.st2{fill:none;stroke:#BDB8A5;stroke-width:2;stroke-linecap:round;stroke-miterlimit:10;stroke-dasharray:5,5;}
	.st3{fill:none;stroke:#BDB8A5;stroke-width:2;stroke-linejoin:round;stroke-miterlimit:10;}
</style>
<circle class="st0" cx="499" cy="371.5" r="7.4"/>
<path class="st1" d="M478.5,371.5c0-1.9,1.6-3.5,3.5-3.5l0,0c1.9,0,3.5,1.6,3.5,3.5l0,0c0,1.9-1.6,3.5-3.5,3.5l0,0
	C480.1,375,478.5,373.4,478.5,371.5z M468.5,371.5c0-1.9,1.6-3.5,3.5-3.5l0,0c1.9,0,3.5,1.6,3.5,3.5l0,0c0,1.9-1.6,3.5-3.5,3.5l0,0
	C470.1,375,468.5,373.4,468.5,371.5z M458.5,371.5c0-1.9,1.6-3.5,3.5-3.5l0,0c1.9,0,3.5,1.6,3.5,3.5l0,0c0,1.9-1.6,3.5-3.5,3.5l0,0
	C460.1,375,458.5,373.4,458.5,371.5z M448.5,371.5c0-1.9,1.6-3.5,3.5-3.5l0,0c1.9,0,3.5,1.6,3.5,3.5l0,0c0,1.9-1.6,3.5-3.5,3.5l0,0
	C450.1,375,448.5,373.4,448.5,371.5z M438.5,371.5c0-1.9,1.6-3.5,3.5-3.5l0,0c1.9,0,3.5,1.6,3.5,3.5l0,0c0,1.9-1.6,3.5-3.5,3.5l0,0
	C440.1,375,438.5,373.4,438.5,371.5z M428.5,371.5c0-1.9,1.6-3.5,3.5-3.5l0,0c1.9,0,3.5,1.6,3.5,3.5l0,0c0,1.9-1.6,3.5-3.5,3.5l0,0
	C430.1,375,428.5,373.4,428.5,371.5z M418.5,371.5c0-1.9,1.6-3.5,3.5-3.5l0,0c1.9,0,3.5,1.6,3.5,3.5l0,0c0,1.9-1.6,3.5-3.5,3.5l0,0
	C420.1,375,418.5,373.4,418.5,371.5z M408.5,371.5c0-1.9,1.6-3.5,3.5-3.5l0,0c1.9,0,3.5,1.6,3.5,3.5l0,0c0,1.9-1.6,3.5-3.5,3.5l0,0
	C410.1,375,408.5,373.4,408.5,371.5z M398.5,371.5c0-1.9,1.6-3.5,3.5-3.5l0,0c1.9,0,3.5,1.6,3.5,3.5l0,0c0,1.9-1.6,3.5-3.5,3.5l0,0
	C400.1,375,398.5,373.4,398.5,371.5z M388.5,371.5c0-1.9,1.6-3.5,3.5-3.5l0,0c1.9,0,3.5,1.6,3.5,3.5l0,0c0,1.9-1.6,3.5-3.5,3.5l0,0
	C390.1,375,388.5,373.4,388.5,371.5z M378.5,371.5c0-1.9,1.6-3.5,3.5-3.5l0,0c1.9,0,3.5,1.6,3.5,3.5l0,0c0,1.9-1.6,3.5-3.5,3.5l0,0
	C380.1,375,378.5,373.4,378.5,371.5z M368.5,371.5c0-1.9,1.6-3.5,3.5-3.5l0,0c1.9,0,3.5,1.6,3.5,3.5l0,0c0,1.9-1.6,3.5-3.5,3.5l0,0
	C370.1,375,368.5,373.4,368.5,371.5z M358.5,371.5c0-1.9,1.6-3.5,3.5-3.5l0,0c1.9,0,3.5,1.6,3.5,3.5l0,0c0,1.9-1.6,3.5-3.5,3.5l0,0
	C360.1,375,358.5,373.4,358.5,371.5z M348.5,371.5c0-1.9,1.6-3.5,3.5-3.5l0,0c1.9,0,3.5,1.6,3.5,3.5l0,0c0,1.9-1.6,3.5-3.5,3.5l0,0
	C350.1,375,348.5,373.4,348.5,371.5z M338.5,371.5c0-1.9,1.6-3.5,3.5-3.5l0,0c1.9,0,3.5,1.6,3.5,3.5l0,0c0,1.9-1.6,3.5-3.5,3.5l0,0
	C340.1,375,338.5,373.4,338.5,371.5z M328.5,371.5c0-1.9,1.6-3.5,3.5-3.5l0,0c1.9,0,3.5,1.6,3.5,3.5l0,0c0,1.9-1.6,3.5-3.5,3.5l0,0
	C330.1,375,328.5,373.4,328.5,371.5z M318.5,371.5c0-1.9,1.6-3.5,3.5-3.5l0,0c1.9,0,3.5,1.6,3.5,3.5l0,0c0,1.9-1.6,3.5-3.5,3.5l0,0
	C320.1,375,318.5,373.4,318.5,371.5z M308.5,371.5c0-1.9,1.6-3.5,3.5-3.5l0,0c1.9,0,3.5,1.6,3.5,3.5l0,0c0,1.9-1.6,3.5-3.5,3.5l0,0
	C310.1,375,308.5,373.4,308.5,371.5z M298.5,371.5c0-1.9,1.6-3.5,3.5-3.5l0,0c1.9,0,3.5,1.6,3.5,3.5l0,0c0,1.9-1.6,3.5-3.5,3.5l0,0
	C300.1,375,298.5,373.4,298.5,371.5z M288.5,371.5c0-1.9,1.6-3.5,3.5-3.5l0,0c1.9,0,3.5,1.6,3.5,3.5l0,0c0,1.9-1.6,3.5-3.5,3.5l0,0
	C290.1,375,288.5,373.4,288.5,371.5z M278.5,371.5c0-1.9,1.6-3.5,3.5-3.5l0,0c1.9,0,3.5,1.6,3.5,3.5l0,0c0,1.9-1.6,3.5-3.5,3.5l0,0
	C280.1,375,278.5,373.4,278.5,371.5z M268.5,371.5c0-1.9,1.6-3.5,3.5-3.5l0,0c1.9,0,3.5,1.6,3.5,3.5l0,0c0,1.9-1.6,3.5-3.5,3.5l0,0
	C270.1,375,268.5,373.4,268.5,371.5z M258.5,371.5c0-1.9,1.6-3.5,3.5-3.5l0,0c1.9,0,3.5,1.6,3.5,3.5l0,0c0,1.9-1.6,3.5-3.5,3.5l0,0
	C260.1,375,258.5,373.4,258.5,371.5z M248.5,371.5c0-1.9,1.6-3.5,3.5-3.5l0,0c1.9,0,3.5,1.6,3.5,3.5l0,0c0,1.9-1.6,3.5-3.5,3.5l0,0
	C250.1,375,248.5,373.4,248.5,371.5z M238.5,371.5c0-1.9,1.6-3.5,3.5-3.5l0,0c1.9,0,3.5,1.6,3.5,3.5l0,0c0,1.9-1.6,3.5-3.5,3.5l0,0
	C240.1,375,238.5,373.4,238.5,371.5z M228.5,371.5c0-1.9,1.6-3.5,3.5-3.5l0,0c1.9,0,3.5,1.6,3.5,3.5l0,0c0,1.9-1.6,3.5-3.5,3.5l0,0
	C230.1,375,228.5,373.4,228.5,371.5z"/>
<polygon class="st1" points="224.9,358.6 212,371.5 224.9,384.4 "/>
<ellipse transform="matrix(-0.7578 -0.6524 0.6524 -0.7578 484.4657 280.6318)" class="st2" cx="294.3" cy="50.4" rx="171.8" ry="103.5"/>
<ellipse transform="matrix(5.077409e-002 -0.9987 0.9987 5.077409e-002 210.3203 322.0798)" class="st2" cx="274.6" cy="50.4" rx="171.8" ry="103.5"/>
<g id="Icons">
	<path class="st1" d="M41.4-11.7h-15v-35.2H53v8.6h5.7v-10c0-2.4-2-4.4-4.4-4.4H25c-2.4,0-4.4,2-4.4,4.4v37.9C20.6-8,22.6-6,25-6
		h29.4c2.4,0,4.4-2,4.4-4.4v-1.4H53L41.4-11.7L41.4-11.7z"/>
	<path class="st1" d="M60.9-36H42.1c-3.2,0-5.8,2.6-5.8,5.8v0.7l-5.8,4.3l5.8,4.4v0.6c0,3.2,2.6,5.8,5.8,5.8h18.8
		c3.2,0,5.8-2.6,5.8-5.8v-10.1C66.7-33.5,64.1-36,60.9-36 M44.1-19.3h-2.4v-9.8h-2.4v-1.7l4.8-0.4V-19.3z M54.3-19.3h-8.1v-1.6
		L50-25c0.6-0.6,1-1.2,1.2-1.6s0.4-0.8,0.4-1.2c0-0.5-0.1-0.9-0.4-1.2c-0.3-0.3-0.7-0.5-1.1-0.5c-0.6,0-1,0.2-1.3,0.6
		s-0.4,0.9-0.4,1.5H46l0,0c0-1.1,0.3-2,1.1-2.7c0.7-0.7,1.7-1.1,3-1.1c1.2,0,2.2,0.3,2.9,1c0.7,0.6,1,1.5,1,2.5c0,0.7-0.2,1.4-0.6,2
		s-1,1.4-2,2.4L49.3-21l0,0h5V-19.3z M62.5-20.1c-0.8,0.6-1.8,0.9-3,0.9c-1.1,0-2-0.3-2.8-0.9s-1.2-1.4-1.1-2.5v-0.1h2.3
		c0,0.5,0.2,0.8,0.5,1.1c0.3,0.3,0.7,0.4,1.2,0.4s1-0.1,1.3-0.5c0.3-0.3,0.5-0.7,0.5-1.2c0-0.6-0.2-1.1-0.5-1.4s-0.8-0.4-1.4-0.4
		h-1.3v-1.8h1.3c0.6,0,1-0.1,1.3-0.4s0.4-0.7,0.4-1.2s-0.1-0.9-0.4-1.1c-0.3-0.3-0.7-0.4-1.2-0.4c-0.4,0-0.8,0.1-1.1,0.4
		c-0.3,0.3-0.5,0.6-0.5,1h-2.3l0,0c0-0.9,0.3-1.7,1.1-2.3c0.7-0.6,1.7-0.9,2.8-0.9c1.2,0,2.2,0.3,2.9,0.9c0.7,0.6,1.1,1.4,1.1,2.5
		c0,0.5-0.2,1-0.5,1.5s-0.8,0.8-1.3,1.1c0.7,0.2,1.2,0.6,1.5,1.1s0.5,1,0.5,1.7C63.7-21.5,63.3-20.7,62.5-20.1"/>
	<path class="st3" d="M222.4,732.3c0,0,2.2-1-10.7-23.9c-12.9-22.9-14.9-21.5-14.9-21.5c-25.1,8.3-38.3,9.1-38.3,9.1v0.1
		c-8-6.6-17.1-11.9-26.8-15.8h0.7c0,0-5.8-12-11.2-38.2c0,0,0.3-2.4-25.8-2.4c-26,0-25.8,2.4-25.8,2.4c-4.9,24-10.2,36-11.1,37.9
		c-0.6,0.2-1.3,0.5-1.9,0.7c-8.7,3.6-16.7,8.4-24,14.1l0.1-0.2c0,0-13.2-1.1-38.1-9.9c0,0-1.9-1.5-15.3,21.2
		c-13.4,22.6-11.2,23.6-11.2,23.6C-12.5,747.7-5.4,759-5.4,759l0.1-0.1c-0.9,5.7-1.5,11.5-1.5,17.4c0,5.2,0.4,10.2,1.1,15.2v-0.1
		c0,0-7.4,11.1-27.1,28.9c0,0-2.2,1,10.7,23.9s14.8,21.5,14.8,21.5c25.1-8.3,38.3-9.1,38.3-9.1v-0.1c8,6.6,17.1,11.9,26.8,15.8h-0.7
		c0,0,5.9,12,11.2,38.2c0,0-0.3,2.4,25.8,2.4c26,0,25.8-2.4,25.8-2.4c4.9-24,10.2-36,11.1-37.9c9.4-3.6,18.1-8.6,25.9-14.8l-0.1,0.1
		c0,0,13.2,1.1,38.1,9.9c0,0,1.9,1.5,15.3-21.2s11.2-23.6,11.2-23.6c-19.4-18.2-26.5-29.5-26.5-29.5l-0.1,0.1
		c1-5.7,1.5-11.5,1.5-17.4c0-5.2-0.4-10.2-1.1-15.2l0,0C195.3,761.2,202.6,750.1,222.4,732.3z M94.8,862.9
		c-47.6,0-86.3-38.8-86.3-86.5s38.7-86.5,86.3-86.5s86.3,38.8,86.3,86.5C181.1,824,142.3,862.9,94.8,862.9z M94.8,700
		c-42,0-76.1,34.2-76.1,76.3s34.1,76.3,76.1,76.3c41.9,0,76.1-34.2,76.1-76.3C170.8,734.3,136.7,700,94.8,700z M94.8,823.5
		c-26,0-47-21.1-47-47.1s21-47.1,47-47.1s47,21.1,47,47.1S120.7,823.5,94.8,823.5z"/>
</g>
</svg>
