<?xml version="1.0" encoding="utf-8"?>
<!-- Generator: Adobe Illustrator 19.0.0, SVG Export Plug-In . SVG Version: 6.00 Build 0)  -->
<svg version="1.1" id="Layer_1" xmlns="http://www.w3.org/2000/svg" xmlns:xlink="http://www.w3.org/1999/xlink" x="0px" y="0px"
	 viewBox="0 0 32 32" style="enable-background:new 0 0 32 32;" xml:space="preserve">
<style type="text/css">
	.st0{fill:#010101;}
</style>
<path class="st0" d="M26,0c1.7,0,3.1,0.6,4.2,1.8C31.4,2.9,32,4.3,32,6v20c0,1.7-0.6,3.1-1.8,4.2C29.1,31.4,27.7,32,26,32H10.9
	c1.2-1.7,1.9-3.2,2.3-4.4c0.1-0.5,0.5-1.9,1.1-4.4c0.3,0.5,0.8,1,1.5,1.4c0.7,0.4,1.5,0.6,2.3,0.6c2.5,0,4.6-1,6.2-3.1
	c1.6-2,2.4-4.6,2.4-7.8c0-1.2-0.2-2.3-0.7-3.4c-0.5-1.1-1.2-2.1-2-2.9c-0.9-0.8-1.9-1.5-3.2-2c-1.3-0.5-2.6-0.8-4.1-0.8
	c-1.4,0-2.8,0.2-4.1,0.6c-1.3,0.4-2.3,0.9-3.2,1.6C8.5,8.2,7.8,8.9,7.2,9.8c-0.6,0.9-1.1,1.7-1.4,2.7c-0.3,0.9-0.4,1.8-0.4,2.8
	c0,1.4,0.3,2.7,0.8,3.8c0.5,1.1,1.4,1.8,2.4,2.3c0.2,0.1,0.3,0.1,0.5,0c0.1-0.1,0.2-0.2,0.3-0.4c0.1-0.6,0.2-1,0.3-1.3
	c0.1-0.3,0-0.6-0.2-0.9c-0.7-0.9-1-1.9-1-3.1c0-2.1,0.7-3.9,2.2-5.3C12,8.8,13.9,8,16.2,8c2.1,0,3.7,0.6,4.8,1.7
	c1.2,1.1,1.7,2.6,1.7,4.4c0,2.3-0.5,4.3-1.4,6s-2.1,2.5-3.6,2.5c-0.8,0-1.5-0.3-2-0.9c-0.5-0.6-0.7-1.3-0.5-2.2
	c0.1-0.5,0.3-1.1,0.6-1.9c0.3-0.8,0.5-1.5,0.6-2.1c0.2-0.6,0.2-1.1,0.2-1.6c0-0.7-0.2-1.2-0.6-1.7c-0.4-0.5-0.9-0.7-1.6-0.7
	c-0.8,0-1.6,0.4-2.2,1.2c-0.6,0.8-0.9,1.8-0.9,2.9c0,1,0.2,1.8,0.5,2.5l-2,8.6c-0.3,1.4-0.4,3.2-0.1,5.3H6c-1.7,0-3.1-0.6-4.2-1.8
	C0.6,29.1,0,27.7,0,26V6c0-1.7,0.6-3.1,1.8-4.2C2.9,0.6,4.3,0,6,0H26z"/>
</svg>
