<?xml version="1.0" encoding="utf-8"?>
<!-- Generator: Adobe Illustrator 19.0.0, SVG Export Plug-In . SVG Version: 6.00 Build 0)  -->
<svg version="1.1" xmlns="http://www.w3.org/2000/svg" xmlns:xlink="http://www.w3.org/1999/xlink" x="0px" y="0px"
	 viewBox="0 0 370.6 737.7" style="enable-background:new 0 0 370.6 737.7;" xml:space="preserve">
<style type="text/css">
	.st0{fill:#FFFFFF;stroke:#799EA4;stroke-width:10;stroke-miterlimit:10;}
	.st1{fill:none;stroke:#799EA4;stroke-width:25;stroke-miterlimit:10;}
	.st2{fill:#BDB8A5;}
	.st3{fill:#FFFFFF;}
	.st4{opacity:0.95;fill:#FFFFFF;}
	.st5{opacity:0.9;fill:#FFFFFF;}
	.st6{opacity:0.3;}
</style>
<g id="Overlays">
	<circle class="st0" cx="40.4" cy="702.5" r="30.2"/>
	<circle class="st0" cx="299.1" cy="474.2" r="30.2"/>
	<circle class="st0" cx="335.4" cy="323.1" r="30.2"/>
	<circle class="st0" cx="266.6" cy="215.7" r="30.2"/>
	<circle class="st0" cx="266.3" cy="129.7" r="30.2"/>
	<circle class="st0" cx="35.2" cy="35.2" r="30.2"/>
	<path class="st0" d="M132.3,184.7h69.8c6.6,0,12,5.4,12,12v69.8c0,6.6-5.4,12-12,12h-69.8c-6.6,0-12-5.4-12-12v-69.8
		C120.3,190.1,125.7,184.7,132.3,184.7z"/>
	<path class="st0" d="M164.5,35.1h44.2c6.6,0,12,5.4,12,12v44.2c0,6.6-5.4,12-12,12h-44.2c-6.6,0-12-5.4-12-12V47.1
		C152.5,40.5,157.9,35.1,164.5,35.1z"/>
	<path class="st1" d="M236.1,129.7h-30.3c0,0-36.3,0.2-36.3,36.3v14.9"/>
	<path class="st1" d="M264.3,246.5v40.3c0,0,0.2,36.3,36.3,36.3h5.9"/>
	<path class="st0" d="M318,596.8v119c0,8.1-6.7,14.8-14.8,14.8l-119-0.1c-7.8-0.4-14.1-6.9-14.1-14.8v-68.1H118
		c-8.2,0-14.8-6.7-14.8-14.8v-119c0-8.1,6.7-14.8,14.8-14.8h119c8.2,0,14.8,6.7,14.8,14.8V582l51.4,0C311.4,582,318,588.7,318,596.8
		z"/>
</g>
<g id="Icons">
	<g>
		<path class="st2" d="M161.1,43.7v51.2h51.2V43.7H161.1z M197.9,44.6h6.3v6.3h-6.3V44.6z M197.9,51.8h6.3v6.3h-6.3V51.8z
			 M197.9,58.9h6.3v6.3h-6.3V58.9z M197.9,66.1h6.3v6.3h-6.3V66.1z M190.7,44.6h6.3v6.3h-6.3V44.6z M190.7,51.8h6.3v6.3h-6.3V51.8z
			 M190.7,58.9h6.3v6.3h-6.3V58.9z M183.6,44.6h6.3v6.3h-6.3V44.6z M183.6,51.8h6.3v6.3h-6.3V51.8z M176.4,44.6h6.3v6.3h-6.3V44.6z
			 M211.4,86.8h-4.1c0,0.1,0,0.3,0,0.4c0,0.2,0,0.3,0,0.4h4.1V94h-6.3v-4.1c-0.1,0-0.3,0-0.4,0s-0.3,0-0.4,0V94h-6.3v-5.8H197V94
			h-6.3v-5.8h-0.9V94h-6.3v-5.8h-0.9V94h-6.3v-5.8h-0.9V94h-6.3v-4.1c-0.1,0-0.3,0-0.4,0s-0.3,0-0.4,0V94H162v-6.3h4.1
			c0-0.1,0-0.3,0-0.4c0-0.2,0-0.3,0-0.4H162v-6.3h5.8v-0.9H162v-6.3h5.8v-0.9H162v-6.3h5.8v-0.9H162v-6.3h5.8v-0.9H162v-6.3h4.1
			c0-0.1,0-0.3,0-0.4c0-0.2,0-0.3,0-0.4H162v-6.3h6.3v4.1c0.1,0,0.3,0,0.4,0s0.3,0,0.4,0v-4.1h6.3v6.3h-4.1c0,0.1,0,0.3,0,0.4
			c0,0.2,0,0.3,0,0.4h4.1v5.1l0.9,0.9v-6h6.3v6.3h-6l0.9,0.9h5.1V64l0.9,0.9v-6h6.3v6.3h-6l0.9,0.9h5.1v5.1l0.9,0.9v-6h6.3v6.3h-6
			l0.9,0.9h5.1v5.1l0.9,0.9v-6h6.3v6.3h-6l0.9,0.9h5.1v4.1c0.1,0,0.3,0,0.4,0s0.3,0,0.4,0v-4.1h6.3V86.8z M211.4,79.6h-6.3v-6.3h6.3
			V79.6z M211.4,72.4h-6.3v-6.3h6.3V72.4z M211.4,65.2h-6.3v-6.3h6.3V65.2z M211.4,58.1h-6.3v-6.3h6.3V58.1z M211.4,50.9h-6.3v-6.3
			h6.3V50.9z"/>
		<polygon points="168.1,51.3 167.8,51.9 167.8,51.3 		"/>
		<polygon points="167.8,51.9 167.8,51.9 167.8,51.9 		"/>
		<path d="M169.9,53.8c-0.1,0-0.1,0.1-0.2,0.1v-0.3L169.9,53.8z"/>
		<path d="M207.3,86.8c-0.2-1.1-1.1-2-2.2-2.2c-0.1,0-0.3,0-0.4,0s-0.3,0-0.4,0c-0.3,0-0.5,0.1-0.8,0.3l-4.3-4.3l-9.3-9.3l-5.1-5.1
			l-0.9-0.9l-0.3-0.3l-0.9-0.9l-5.1-5.1l-0.9-0.9l-0.3-0.3l-5.2-5.2c0.1-0.2,0.2-0.5,0.2-0.7c0-0.1,0-0.3,0-0.4c0-0.2,0-0.3,0-0.4
			c-0.2-1.1-1.1-2-2.2-2.2c-0.1,0-0.3,0-0.4,0s-0.3,0-0.4,0c-1.1,0.2-2,1.1-2.2,2.2c0,0.1,0,0.3,0,0.4c0,0.2,0,0.3,0,0.4
			c0.2,1,0.8,1.8,1.8,2.1v30.9c-0.9,0.3-1.6,1.1-1.8,2.1c0,0.1,0,0.3,0,0.4c0,0.2,0,0.3,0,0.4c0.2,1.1,1.1,2,2.2,2.2
			c0.1,0,0.3,0,0.4,0s0.3,0,0.4,0c1-0.2,1.8-0.8,2.1-1.8h30.9c0.3,0.9,1.1,1.6,2.1,1.8c0.1,0,0.3,0,0.4,0s0.3,0,0.4,0
			c1.1-0.2,2-1.1,2.2-2.2c0-0.1,0-0.3,0-0.4C207.4,87.1,207.3,86.9,207.3,86.8z"/>
		<path class="st3" d="M171.3,86.3c-0.3-0.8-0.9-1.4-1.6-1.6V53.5l32.8,32.8H171.3z"/>
		<path d="M202.4,86.3h-0.3c0-0.1,0.1-0.2,0.1-0.2L202.4,86.3z"/>
	</g>
	<g>
		<path class="st2" d="M129.7,194.6v75h75v-75H129.7z M183.6,195.9h9.2v9.2h-9.2V195.9z M141.5,195.9h9.2v9.2h-9.2V195.9z
			 M131,195.9h9.2v9.2H131V195.9z M131,206.4h9.2v9.2H131V206.4z M140.2,268.3H131v-9.2h9.2V268.3z M140.2,257.7H131v-9.2h9.2V257.7
			z M150.7,268.3h-9.2v-9.2h9.2V268.3z M192.8,268.3h-9.2v-9.2h9.2V268.3z M203.3,268.3h-9.2v-9.2h9.2V268.3z M203.3,257.7h-9.2
			v-9.2h9.2V257.7z M203.3,226.2h-8.5v1.3h8.5v9.2h-8.5v1.3h8.5v9.2h-8.5c0,0.5-0.3,0.9-0.7,1.2l-0.1,0.1l-1.3,0.8v8.5h-9.2v-2.9
			l-1.3,0.8v2.2h-3.6l-1.4,0.9c0,0-0.1,0-0.1,0l-0.7,0.4h5.7v9.2h-9.2v-7.1l-1.3,0.8v6.3h-9.2V262l-1.3-0.8v7.1H152v-9.2h5.6
			l-2.2-1.3H152v-2.1l-1.3-0.8v2.9h-9.2v-8.5l-1.5-0.9c-0.4-0.2-0.7-0.7-0.7-1.2H131V238h8.4v-1.3H131v-9.2h8.4v-1.3H131V217h8.4
			c0-0.4,0.2-0.7,0.5-1c0,0,0.1-0.1,0.1-0.1c0.1-0.1,0.1-0.1,0.2-0.1l1.4-0.9v-8.4h9.2v2.9l1.3-0.8v-2.1h3.4l2.2-1.3H152v-9.2h9.2v7
			l1.3-0.8v-6.2h9.2v6.3l1.3,0.8v-7.1h9.2v9.2h-5.7l2.2,1.3h3.5v2.1l1.3,0.8v-2.9h9.2v8.5l1.3,0.8c0.1,0,0.1,0.1,0.2,0.1
			c0,0,0.1,0.1,0.1,0.1c0.3,0.2,0.4,0.6,0.4,1h8.5V226.2z M203.3,215.6h-9.2v-9.2h9.2V215.6z M203.3,205.1h-9.2v-9.2h9.2V205.1z"/>
		<polygon points="182.3,222.1 175.5,226.2 173.3,227.5 173.1,227.6 173.1,227.6 171.8,228.4 167.1,231.2 162.5,228.5 162.5,231.8 
			165.7,233.7 165.7,259.1 168.5,259.1 168.5,233.7 171.8,231.7 173.1,230.9 178.8,227.5 180.9,226.2 182.3,225.4 183.6,224.6 
			183.6,221.3 		"/>
		<polygon points="161.2,227.7 160.9,227.5 158.7,226.2 152,222.1 150.7,221.3 150.7,224.6 152,225.4 153.3,226.2 155.4,227.5 
			161.2,231 162.5,231.8 162.5,228.5 		"/>
		<path d="M194.4,216c0,0-0.1-0.1-0.1-0.1c-0.1,0-0.1-0.1-0.2-0.1l-1.3-0.8l-9.2-5.6l-1.3-0.8l-3.5-2.1l-2.2-1.3l-3.5-2.1l-1.3-0.8
			l-3.9-2.4c-0.4-0.2-0.9-0.2-1.3,0c0,0-0.1,0-0.1,0.1l-3.8,2.3l-1.3,0.8l-3.6,2.2l-2.2,1.3l-3.4,2.1l-1.3,0.8l-9.2,5.6l-1.4,0.9
			c-0.1,0-0.1,0.1-0.2,0.1c0,0-0.1,0.1-0.1,0.1c-0.3,0.2-0.5,0.6-0.5,1v30.2c0,0,0,0,0,0c0,0.5,0.3,0.9,0.7,1.2l1.5,0.9l9.2,5.6
			l1.3,0.8l3.5,2.1l2.2,1.3l3.6,2.2l1.3,0.8l3.8,2.3c0,0,0,0,0.1,0c0,0,0,0,0,0l0,0c0.1,0.1,0.2,0.1,0.4,0.1c0,0,0.1,0,0.1,0
			c0.1,0,0.1,0,0.2,0c0.3,0,0.5-0.1,0.7-0.2l3.9-2.4l1.3-0.8l3.5-2.1l0.7-0.4c0,0,0.1,0,0.1,0l1.4-0.9l3.6-2.2l1.3-0.8l9.2-5.6
			l1.3-0.8l0.1-0.1c0.4-0.2,0.7-0.7,0.7-1.2c0,0,0,0,0,0V217C194.9,216.6,194.7,216.2,194.4,216z"/>
		<polygon class="st3" points="167.1,202.6 190.7,216.9 190.7,217 167.1,231.2 143.5,217 143.4,216.9 		"/>
		<polygon class="st4" points="165.7,260.7 142.1,246.4 142.1,219.4 165.7,233.7 		"/>
		<polygon class="st5" points="168.5,260.7 168.5,233.7 192.1,219.4 192.1,246.4 		"/>
	</g>
	<g>
		<path class="st2" d="M237.1,597.6v-83.5H118.5v118.6h66.3v83.5h118.6V597.6H237.1z M220.4,516.2H235v14.6h-14.6V516.2z
			 M220.4,532.8H235v14.6h-14.6V532.8z M203.8,516.2h14.6v14.6h-14.6V516.2z M203.8,532.8h14.6v14.6h-14.6V532.8z M187.2,516.2h14.6
			v14.6h-14.6V516.2z M187.2,532.8h14.6v14.6h-14.6V532.8z M170.5,516.2h14.6v14.6h-14.6V516.2z M153.9,516.2h14.6v14.6h-14.6V516.2
			z M137.3,516.2h14.6v14.6h-14.6V516.2z M120.6,516.2h14.6v14.6h-14.6V516.2z M135.2,630.6h-14.6V616h14.6V630.6z M151.8,630.6
			h-14.6V616h14.6V630.6z M168.5,630.6h-14.6V616h14.6V630.6z M185.1,630.6h-14.6V616h14.6V630.6z M201.5,714.1H187v-14.6h14.6
			V714.1z M201.5,697.4H187v-14.6h14.6V697.4z M201.5,680.8H187v-14.6h14.6V680.8z M201.5,664.1H187v-14.6h14.6V664.1z M201.5,647.5
			H187V633h14.6V647.5z M201.7,630.6l0,0.3l-0.2,0H187V616l0.2,0h14.6V630.6z M218.1,714.1h-14.6v-14.6h14.6V714.1z M218.1,697.4
			h-14.6v-14.6h14.6V697.4z M218.1,680.8h-14.6v-14.6h14.6V680.8z M234.8,714.1h-14.6v-14.6h14.6V714.1z M268.1,714.1h-14.6v-14.6
			h14.6V714.1z M284.7,714.1h-14.6v-14.6h14.6V714.1z M284.7,697.4h-14.6v-14.6h14.6V697.4z M284.7,680.8h-14.6v-14.6h14.6V680.8z
			 M284.7,630.9h-10.2c0.2,0.7,0.5,1.4,0.7,2.1h9.5v14.6h-9.2c-0.2,0.7-0.4,1.4-0.6,2.1h9.9v14.6h-14.6v-3.4
			c-0.9,1.8-1.9,3.7-2.9,5.5h0.8v14.6h-9.7c-0.5,0.7-0.9,1.4-1.4,2.1h11v14.6h-14.6v-9.3c-0.8,1.1-1.4,2.1-2.1,3v6.4h-4.7l-1.6,2.1
			h6.2v14.6h-14.6v-14.6h6.2l-1.6-2.1h-4.7V691c-0.6-0.9-1.3-1.9-2.1-3v9.3h-14.6v-14.6h11c-0.5-0.7-0.9-1.4-1.4-2.1h-9.6v-14.6h0.8
			c-1-1.8-2-3.7-2.9-5.5v3.4h-14.6v-14.6h9.9c-0.3-0.7-0.5-1.4-0.6-2.1h-9.2V633h9.5c0-0.1,0.1-0.2,0.1-0.3c0.2-0.6,0.4-1.2,0.6-1.8
			h-10.2v-14.6l0-0.3l0.2,0h14.6v6.6c0.6-0.8,1.2-1.5,1.9-2.2v-4.1l0-0.3l0.3,0l4.8,0c0.9-0.6,1.9-1.2,2.8-1.8h-7.9v-9.7
			c-0.3,0-0.5,0.1-0.8,0.1c-0.3,0-0.7,0-1-0.1v9.5l0,0.3l-0.2,0h-14.6v-13.8h-1.9v13.5l0,0.3l-0.2,0H187v-13.8h-1.9v13.5h-14.6
			v-13.5h-2.1v13.5h-14.6v-13.5h-2.1v13.5h-14.6v-9.5c-0.3,0.1-0.7,0.1-1,0.1c-0.4,0-0.7,0-1-0.1v9.5h-14.6v-14.6h9.5
			c-0.1-0.3-0.1-0.7-0.1-1.1c0-0.4,0-0.7,0.1-1h-9.4v-14.6h13.5v-2.1h-13.5v-14.6h13.5V564h-13.5v-14.6h9.5
			c-0.1-0.4-0.1-0.7-0.1-1.1c0-0.4,0-0.7,0.1-1h-9.4v-14.6h14.6v9.4c0.3-0.1,0.7-0.1,1-0.1c0.3,0,0.7,0,1,0.1v-9.4h14.6v13.5h2.1
			v-13.5h14.6v9.4c0.3-0.1,0.7-0.1,1-0.1c0.3,0,0.7,0,1,0.1v-9.4h14.6v14.6h-9.4c0.1,0.3,0.1,0.7,0.1,1c0,0.3,0,0.7-0.1,1.1h9.5v9.4
			c0.3-0.1,0.7-0.1,1-0.1c0.4,0,0.7,0,1,0.1v-9.4h14.6V563h2.1v-13.5h14.6v9.4c0.3-0.1,0.7-0.1,1-0.1c0.4,0,0.7,0,1,0.1v-9.4H235
			V564h-9.4c0.1,0.3,0.1,0.7,0.1,1c0,0.4,0,0.7-0.1,1.1h9.5v14.6h-13.5v2.1H235v14.6h-9.4c0,0.1,0,0.2,0,0.3c0,0.2,0,0.5,0,0.7
			c0,0.4,0,0.7-0.1,1.1h9.5v12c0.6-0.2,1.2-0.3,1.9-0.5v-11.2h14.6v11.2c0.7,0.1,1.4,0.3,2.1,0.5v-11.8h14.6v14.6h-7.9
			c1.1,0.6,2.2,1.3,3.3,2.1h4.7v4.1c0.7,0.8,1.4,1.6,2.1,2.5v-6.6h14.6V630.9z M284.7,614.2h-14.6v-14.6h14.6V614.2z M301.3,714.1
			h-14.6v-14.6h14.6V714.1z M301.3,697.4h-14.6v-14.6h14.6V697.4z M301.3,680.8h-14.6v-14.6h14.6V680.8z M301.3,664.1h-14.6v-14.6
			h14.6V664.1z M301.3,647.5h-14.6V633h14.6V647.5z M301.3,630.9h-14.6v-14.6h14.6V630.9z M301.3,614.2h-14.6v-14.6h14.6V614.2z"/>
		<path d="M225.6,597.3c0.1,0.3,0.1,0.7,0.1,1c0,0.4,0,0.7-0.1,1.1c-0.4,2.6-2.5,4.7-5.1,5.1c-0.3,0.1-0.7,0.1-1,0.1
			c-0.4,0-0.7,0-1-0.1c-2.3-0.4-4.1-2-4.8-4.1h-71.5c-0.7,2.1-2.6,3.7-4.8,4.1c-0.3,0.1-0.7,0.1-1,0.1c-0.4,0-0.7,0-1-0.1
			c-2.6-0.4-4.7-2.5-5.1-5.1c-0.1-0.3-0.1-0.7-0.1-1.1c0-0.4,0-0.7,0.1-1c0.4-2.3,2-4.1,4.1-4.9v-38.2c-2.1-0.7-3.7-2.6-4.1-4.8
			c-0.1-0.4-0.1-0.7-0.1-1.1c0-0.4,0-0.7,0.1-1c0.4-2.6,2.5-4.7,5.1-5.1c0.3-0.1,0.7-0.1,1-0.1c0.4,0,0.7,0,1,0.1
			c2.3,0.4,4.1,2,4.8,4.1h21.5c0.7-2.1,2.6-3.7,4.8-4.1c0.3-0.1,0.7-0.1,1-0.1c0.4,0,0.7,0,1,0.1c2.6,0.4,4.7,2.5,5.1,5.1
			c0.1,0.3,0.1,0.7,0.1,1c0,0.4,0,0.7-0.1,1.1c-0.1,0.6-0.2,1.1-0.5,1.6l8.3,8.3c0.5-0.2,1.1-0.4,1.6-0.5c0.3-0.1,0.7-0.1,1-0.1
			c0.4,0,0.7,0,1,0.1c2.3,0.4,4.1,2,4.8,4.1h21.5c0.7-2.1,2.6-3.7,4.8-4.1c0.3-0.1,0.7-0.1,1-0.1c0.4,0,0.7,0,1,0.1
			c2.6,0.4,4.7,2.5,5.1,5.1c0.1,0.3,0.1,0.7,0.1,1c0,0.4,0,0.7-0.1,1.1c-0.4,2.2-2,4.1-4.1,4.8v21.5
			C223.6,593.2,225.2,595,225.6,597.3z M217.3,570.9c-1.8-0.6-3.2-2-3.8-3.8H192c-0.7,2.1-2.6,3.7-4.8,4.1c-0.3,0.1-0.7,0.1-1,0.1
			c-0.4,0-0.7,0-1-0.1c-2.6-0.4-4.7-2.5-5.1-5.1c-0.1-0.3-0.1-0.7-0.1-1.1c0-0.4,0-0.7,0.1-1c0.1-0.6,0.3-1.2,0.5-1.7l-8.3-8.3
			c-0.5,0.2-1.1,0.4-1.7,0.5c-0.3,0.1-0.7,0.1-1,0.1c-0.4,0-0.7,0-1-0.1c-2.3-0.4-4.1-2-4.8-4.1h-21.5c-0.6,1.8-2,3.2-3.8,3.8v38.2
			c1.8,0.6,3.2,2,3.8,3.8h71.5c0.6-1.8,2-3.2,3.8-3.8V570.9z"/>
		<path class="st6" d="M253.5,647.5v-14.6h5.9c-0.4-0.7-0.9-1.4-1.5-2.1h-4.4V627c-0.7-0.4-1.4-0.8-2.1-1.1v4.9h-14.6V626
			c-0.7,0.3-1.4,0.7-2.1,1.1v3.8h-4.4c-0.5,0.6-1,1.4-1.5,2.1h5.9v14.6h-7.1c0.3,0.7,0.6,1.4,1,2.1h6.1v6.3c0.7,0.4,1.4,0.8,2.1,1.1
			v-7.4h14.6v7.4c0.7-0.3,1.4-0.7,2.1-1.1v-6.3h6.1c0.4-0.7,0.7-1.4,1-2.1H253.5z M251.4,647.5h-14.6v-14.6h14.6V647.5z"/>
		<path class="st3" d="M270.8,633c-0.7-2-1.6-3.9-2.7-5.7c-3.1-4.9-7.7-8.7-13.2-10.9c-3.3-1.3-6.9-2.1-10.7-2.1
			c-3.8,0-7.4,0.8-10.8,2.1c-5.5,2.2-10.1,6.1-13.2,10.9c-1.1,1.8-2.1,3.7-2.7,5.7c-0.9,2.7-1.4,5.6-1.4,8.5c0,1.8,0.4,3.8,1,6
			c0.2,0.7,0.4,1.4,0.7,2.1c0.1,0.3,0.2,0.7,0.4,1c0.6,1.6,1.3,3.3,2.1,5c1.3,2.8,2.8,5.7,4.4,8.6c0.4,0.7,0.8,1.4,1.2,2.1
			c2.9,5.1,6.1,10.1,9,14.4c0.7,1.1,1.4,2.1,2.1,3.1c4.1,6,7.2,10.1,7.3,10.2l0,0l0,0c0.1-0.1,3.2-4.2,7.3-10.2c0.7-1,1.4-2,2.1-3.1
			c2.9-4.3,6.1-9.3,9-14.4c0.4-0.7,0.8-1.4,1.2-2.1c1.6-2.9,3.1-5.8,4.4-8.6c0.8-1.7,1.5-3.4,2.1-5c0.1-0.3,0.3-0.7,0.4-1
			c0.3-0.7,0.5-1.4,0.7-2.1c0.7-2.2,1-4.3,1-6C272.2,638.5,271.7,635.6,270.8,633z M265,647.5c-0.2,0.7-0.5,1.4-0.8,2.1
			c-2,4.9-5.9,8.8-10.7,11.1c-0.7,0.3-1.4,0.6-2.1,0.9c-2.3,0.8-4.7,1.2-7.3,1.2s-5-0.4-7.3-1.2c-0.7-0.2-1.4-0.5-2.1-0.9
			c-4.9-2.2-8.7-6.2-10.8-11.1c-0.3-0.7-0.5-1.4-0.8-2.1c-0.6-1.9-0.9-3.9-0.9-6c0-3,0.7-5.9,1.9-8.5c0.3-0.7,0.7-1.4,1.1-2.1
			c2.2-3.7,5.5-6.7,9.5-8.5c0.7-0.3,1.4-0.6,2.1-0.9c2.3-0.8,4.7-1.2,7.3-1.2s5,0.4,7.3,1.2c0.7,0.2,1.4,0.5,2.1,0.9
			c4,1.8,7.3,4.8,9.5,8.5c0.4,0.7,0.8,1.4,1.1,2.1c1.2,2.6,1.9,5.5,1.9,8.5C265.9,643.6,265.6,645.6,265,647.5z"/>
		<path d="M264.1,632.9c-0.3-0.7-0.7-1.4-1.1-2.1c-2.2-3.7-5.5-6.7-9.5-8.5c-0.7-0.3-1.4-0.6-2.1-0.9c-2.3-0.8-4.7-1.2-7.3-1.2
			s-5,0.4-7.3,1.2c-0.7,0.2-1.4,0.5-2.1,0.9c-4,1.8-7.3,4.8-9.5,8.5c-0.4,0.7-0.8,1.4-1.1,2.1c-1.2,2.6-1.9,5.5-1.9,8.5
			c0,2.1,0.3,4.1,0.9,6c0.2,0.7,0.5,1.4,0.7,2.1c2.1,4.8,5.9,8.8,10.8,11c0.7,0.3,1.4,0.6,2.1,0.9c2.3,0.8,4.7,1.2,7.3,1.2
			s5-0.4,7.3-1.2c0.7-0.2,1.4-0.5,2.1-0.9c4.8-2.2,8.7-6.2,10.8-11c0.3-0.7,0.5-1.4,0.7-2.1c0.6-1.9,0.9-3.9,0.9-6
			C265.9,638.5,265.2,635.6,264.1,632.9z M259.6,649.6c-1.5,2.6-3.6,4.8-6.1,6.3c-0.7,0.4-1.4,0.8-2.1,1.1c-2.2,1-4.7,1.5-7.3,1.5
			s-5.1-0.5-7.3-1.5c-0.7-0.3-1.4-0.7-2.1-1.1c-2.6-1.6-4.7-3.7-6.1-6.3c-0.4-0.7-0.7-1.4-1-2.1c-0.7-1.9-1.1-3.9-1.1-6
			c0-3.1,0.9-6,2.4-8.5c0.4-0.7,0.9-1.4,1.5-2.1c1.2-1.5,2.7-2.8,4.4-3.8c0.7-0.4,1.4-0.8,2.1-1.1c2.2-1,4.7-1.5,7.3-1.5
			s5.1,0.5,7.3,1.5c0.7,0.3,1.4,0.7,2.1,1.1c1.7,1,3.2,2.3,4.4,3.8c0.5,0.6,1,1.4,1.5,2.1c1.5,2.5,2.4,5.4,2.4,8.5
			c0,2.1-0.4,4.1-1.1,6C260.3,648.2,260,648.9,259.6,649.6z M264.1,632.9c-0.3-0.7-0.7-1.4-1.1-2.1c-2.2-3.7-5.5-6.7-9.5-8.5
			c-0.7-0.3-1.4-0.6-2.1-0.9c-2.3-0.8-4.7-1.2-7.3-1.2s-5,0.4-7.3,1.2c-0.7,0.2-1.4,0.5-2.1,0.9c-4,1.8-7.3,4.8-9.5,8.5
			c-0.4,0.7-0.8,1.4-1.1,2.1c-1.2,2.6-1.9,5.5-1.9,8.5c0,2.1,0.3,4.1,0.9,6c0.2,0.7,0.5,1.4,0.7,2.1c2.1,4.8,5.9,8.8,10.8,11
			c0.7,0.3,1.4,0.6,2.1,0.9c2.3,0.8,4.7,1.2,7.3,1.2s5-0.4,7.3-1.2c0.7-0.2,1.4-0.5,2.1-0.9c4.8-2.2,8.7-6.2,10.8-11
			c0.3-0.7,0.5-1.4,0.7-2.1c0.6-1.9,0.9-3.9,0.9-6C265.9,638.5,265.2,635.6,264.1,632.9z M259.6,649.6c-1.5,2.6-3.6,4.8-6.1,6.3
			c-0.7,0.4-1.4,0.8-2.1,1.1c-2.2,1-4.7,1.5-7.3,1.5s-5.1-0.5-7.3-1.5c-0.7-0.3-1.4-0.7-2.1-1.1c-2.6-1.6-4.7-3.7-6.1-6.3
			c-0.4-0.7-0.7-1.4-1-2.1c-0.7-1.9-1.1-3.9-1.1-6c0-3.1,0.9-6,2.4-8.5c0.4-0.7,0.9-1.4,1.5-2.1c1.2-1.5,2.7-2.8,4.4-3.8
			c0.7-0.4,1.4-0.8,2.1-1.1c2.2-1,4.7-1.5,7.3-1.5s5.1,0.5,7.3,1.5c0.7,0.3,1.4,0.7,2.1,1.1c1.7,1,3.2,2.3,4.4,3.8
			c0.5,0.6,1,1.4,1.5,2.1c1.5,2.5,2.4,5.4,2.4,8.5c0,2.1-0.4,4.1-1.1,6C260.3,648.2,260,648.9,259.6,649.6z M275.2,632.9
			c-0.2-0.7-0.4-1.4-0.7-2.1c-1.1-2.8-2.5-5.5-4.3-7.9c-0.6-0.9-1.3-1.7-2.1-2.5c-1.4-1.5-3-2.9-4.7-4.1c-1-0.7-2.1-1.5-3.3-2.1
			c-2.1-1.2-4.3-2.1-6.6-2.8c-0.7-0.2-1.4-0.4-2.1-0.5c-2.3-0.6-4.8-0.8-7.3-0.8c-2.5,0-5,0.3-7.3,0.8c-0.7,0.1-1.4,0.3-2.1,0.5
			c-2.3,0.7-4.6,1.6-6.6,2.8c-1.1,0.6-2.2,1.3-3.3,2.1c-1.7,1.2-3.2,2.6-4.7,4.1c-0.7,0.8-1.4,1.6-2.1,2.5c-1.8,2.4-3.3,5.1-4.3,7.9
			c-0.2,0.7-0.5,1.4-0.7,2.1c-0.8,2.7-1.2,5.6-1.2,8.5c0,1.8,0.3,3.8,0.9,6c0.2,0.7,0.4,1.4,0.6,2.1c1.1,3.5,2.7,7.3,4.7,11.1
			c0.9,1.8,1.9,3.7,2.9,5.5c2.8,5.1,5.9,10.1,8.8,14.6c0.5,0.7,0.9,1.4,1.4,2.1c1.2,1.9,2.5,3.6,3.5,5.2c0.7,1.1,1.4,2.1,2.1,3
			c2.2,3.1,3.7,5.1,3.9,5.4l0.7,1l1.6,2.1l1,1.4l1-1.4l1.6-2.1l0.7-1c0.3-0.3,1.7-2.3,3.9-5.4c0.6-0.9,1.3-1.9,2.1-3
			c1.1-1.6,2.3-3.3,3.5-5.2c0.5-0.7,0.9-1.4,1.4-2.1c2.9-4.5,6-9.5,8.8-14.6c1-1.8,2-3.7,2.9-5.5c2-3.9,3.6-7.7,4.7-11.1
			c0.2-0.7,0.5-1.4,0.6-2.1c0.6-2.2,0.9-4.2,0.9-6C276.4,638.5,276,635.7,275.2,632.9z M270.5,649.6c-0.1,0.3-0.2,0.7-0.4,1
			c-0.6,1.6-1.3,3.3-2.1,5c-1.3,2.8-2.8,5.7-4.4,8.6c-0.4,0.7-0.8,1.4-1.2,2.1c-2.9,5.1-6.1,10.1-9,14.4c-0.7,1.1-1.4,2.1-2.1,3.1
			c-4.1,6-7.2,10.1-7.3,10.2l0,0l0,0c-0.1-0.1-3.2-4.2-7.3-10.2c-0.7-1-1.4-2-2.1-3.1c-2.9-4.3-6.1-9.3-9-14.4
			c-0.4-0.7-0.8-1.4-1.2-2.1c-1.6-2.9-3.1-5.8-4.4-8.6c-0.8-1.7-1.5-3.4-2.1-5c-0.1-0.3-0.3-0.7-0.4-1c-0.2-0.7-0.5-1.4-0.7-2.1
			c-0.7-2.2-1-4.3-1-6c0-3,0.5-5.9,1.4-8.5c0.7-2,1.6-3.9,2.7-5.7c3.1-4.9,7.7-8.7,13.2-10.9c3.3-1.3,6.9-2.1,10.8-2.1
			s7.4,0.7,10.8,2.1c5.5,2.2,10.1,6.1,13.2,10.9c1.1,1.8,2.1,3.7,2.7,5.7c0.9,2.7,1.4,5.6,1.4,8.5c0,1.7-0.4,3.8-1,6
			C271,648.2,270.8,648.9,270.5,649.6z M263,630.9c-2.2-3.7-5.5-6.7-9.5-8.5c-0.7-0.3-1.4-0.6-2.1-0.9c-2.3-0.8-4.7-1.2-7.3-1.2
			s-5,0.4-7.3,1.2c-0.7,0.2-1.4,0.5-2.1,0.9c-4,1.8-7.3,4.8-9.5,8.5c-0.4,0.7-0.8,1.4-1.1,2.1c-1.2,2.6-1.9,5.5-1.9,8.5
			c0,2.1,0.3,4.1,0.9,6c0.2,0.7,0.5,1.4,0.7,2.1c2.1,4.8,5.9,8.8,10.8,11c0.7,0.3,1.4,0.6,2.1,0.9c2.3,0.8,4.7,1.2,7.3,1.2
			s5-0.4,7.3-1.2c0.7-0.2,1.4-0.5,2.1-0.9c4.8-2.2,8.7-6.2,10.8-11c0.3-0.7,0.5-1.4,0.7-2.1c0.6-1.9,0.9-3.9,0.9-6
			c0-3-0.7-5.9-1.9-8.5C263.7,632.2,263.4,631.5,263,630.9z M259.6,649.6c-1.5,2.6-3.6,4.8-6.1,6.3c-0.7,0.4-1.4,0.8-2.1,1.1
			c-2.2,1-4.7,1.5-7.3,1.5s-5.1-0.5-7.3-1.5c-0.7-0.3-1.4-0.7-2.1-1.1c-2.6-1.6-4.7-3.7-6.1-6.3c-0.4-0.7-0.7-1.4-1-2.1
			c-0.7-1.9-1.1-3.9-1.1-6c0-3.1,0.9-6,2.4-8.5c0.4-0.7,0.9-1.4,1.5-2.1c1.2-1.5,2.7-2.8,4.4-3.8c0.7-0.4,1.4-0.8,2.1-1.1
			c2.2-1,4.7-1.5,7.3-1.5s5.1,0.5,7.3,1.5c0.7,0.3,1.4,0.7,2.1,1.1c1.7,1,3.2,2.3,4.4,3.8c0.5,0.6,1,1.4,1.5,2.1
			c1.5,2.5,2.4,5.4,2.4,8.5c0,2.1-0.4,4.1-1.1,6C260.3,648.2,260,648.9,259.6,649.6z M264.1,632.9c-0.3-0.7-0.7-1.4-1.1-2.1
			c-2.2-3.7-5.5-6.7-9.5-8.5c-0.7-0.3-1.4-0.6-2.1-0.9c-2.3-0.8-4.7-1.2-7.3-1.2s-5,0.4-7.3,1.2c-0.7,0.2-1.4,0.5-2.1,0.9
			c-4,1.8-7.3,4.8-9.5,8.5c-0.4,0.7-0.8,1.4-1.1,2.1c-1.2,2.6-1.9,5.5-1.9,8.5c0,2.1,0.3,4.1,0.9,6c0.2,0.7,0.5,1.4,0.7,2.1
			c2.1,4.8,5.9,8.8,10.8,11c0.7,0.3,1.4,0.6,2.1,0.9c2.3,0.8,4.7,1.2,7.3,1.2s5-0.4,7.3-1.2c0.7-0.2,1.4-0.5,2.1-0.9
			c4.8-2.2,8.7-6.2,10.8-11c0.3-0.7,0.5-1.4,0.7-2.1c0.6-1.9,0.9-3.9,0.9-6C265.9,638.5,265.2,635.6,264.1,632.9z M259.6,649.6
			c-1.5,2.6-3.6,4.8-6.1,6.3c-0.7,0.4-1.4,0.8-2.1,1.1c-2.2,1-4.7,1.5-7.3,1.5s-5.1-0.5-7.3-1.5c-0.7-0.3-1.4-0.7-2.1-1.1
			c-2.6-1.6-4.7-3.7-6.1-6.3c-0.4-0.7-0.7-1.4-1-2.1c-0.7-1.9-1.1-3.9-1.1-6c0-3.1,0.9-6,2.4-8.5c0.4-0.7,0.9-1.4,1.5-2.1
			c1.2-1.5,2.7-2.8,4.4-3.8c0.7-0.4,1.4-0.8,2.1-1.1c2.2-1,4.7-1.5,7.3-1.5s5.1,0.5,7.3,1.5c0.7,0.3,1.4,0.7,2.1,1.1
			c1.7,1,3.2,2.3,4.4,3.8c0.5,0.6,1,1.4,1.5,2.1c1.5,2.5,2.4,5.4,2.4,8.5c0,2.1-0.4,4.1-1.1,6C260.3,648.2,260,648.9,259.6,649.6z
			 M264.1,632.9c-0.3-0.7-0.7-1.4-1.1-2.1c-2.2-3.7-5.5-6.7-9.5-8.5c-0.7-0.3-1.4-0.6-2.1-0.9c-2.3-0.8-4.7-1.2-7.3-1.2
			s-5,0.4-7.3,1.2c-0.7,0.2-1.4,0.5-2.1,0.9c-4,1.8-7.3,4.8-9.5,8.5c-0.4,0.7-0.8,1.4-1.1,2.1c-1.2,2.6-1.9,5.5-1.9,8.5
			c0,2.1,0.3,4.1,0.9,6c0.2,0.7,0.5,1.4,0.7,2.1c2.1,4.8,5.9,8.8,10.8,11c0.7,0.3,1.4,0.6,2.1,0.9c2.3,0.8,4.7,1.2,7.3,1.2
			s5-0.4,7.3-1.2c0.7-0.2,1.4-0.5,2.1-0.9c4.8-2.2,8.7-6.2,10.8-11c0.3-0.7,0.5-1.4,0.7-2.1c0.6-1.9,0.9-3.9,0.9-6
			C265.9,638.5,265.2,635.6,264.1,632.9z M259.6,649.6c-1.5,2.6-3.6,4.8-6.1,6.3c-0.7,0.4-1.4,0.8-2.1,1.1c-2.2,1-4.7,1.5-7.3,1.5
			s-5.1-0.5-7.3-1.5c-0.7-0.3-1.4-0.7-2.1-1.1c-2.6-1.6-4.7-3.7-6.1-6.3c-0.4-0.7-0.7-1.4-1-2.1c-0.7-1.9-1.1-3.9-1.1-6
			c0-3.1,0.9-6,2.4-8.5c0.4-0.7,0.9-1.4,1.5-2.1c1.2-1.5,2.7-2.8,4.4-3.8c0.7-0.4,1.4-0.8,2.1-1.1c2.2-1,4.7-1.5,7.3-1.5
			s5.1,0.5,7.3,1.5c0.7,0.3,1.4,0.7,2.1,1.1c1.7,1,3.2,2.3,4.4,3.8c0.5,0.6,1,1.4,1.5,2.1c1.5,2.5,2.4,5.4,2.4,8.5
			c0,2.1-0.4,4.1-1.1,6C260.3,648.2,260,648.9,259.6,649.6z"/>
	</g>
	<polygon points="261.7,122.1 252.1,131.8 252.1,127.7 249.5,127.7 249.5,138 263.5,123.9 	"/>
	<polygon points="281.2,130.8 278.3,133.6 278.3,120 275.8,120 275.8,139.8 283,132.6 	"/>
	<polygon points="273.8,139.8 273.8,116.4 250.5,139.8 	"/>
	<path d="M284.3,459.5v29.4h29.4L284.3,459.5z M286.5,486.7v-11.6l3.7,3.7l4.9-4.9l4.2,4.2l-4.9,4.9l3.6,3.6H286.5z"/>
	<polygon points="311.6,461.9 311.6,473.5 307.9,469.7 303.1,474.5 298.9,470.3 303.7,465.5 300,461.9 	"/>
	<path d="M21.3,19.7v29.4h29.4L21.3,19.7z M22.9,39.6h5.3V29.4l5.9,5.9v4.3h5.1l-8.2,8.2L22.9,39.6z"/>
	<polygon points="40.4,20.3 48.6,28.5 43.3,28.5 43.3,38.6 37.3,32.6 37.3,28.5 32.2,28.5 	"/>
	<polygon points="271.7,210 280.5,210 266.8,196.3 253.1,210 262,210 261.9,219.9 253.1,219.9 266.8,233.6 280.5,219.9 271.6,219.9 
			"/>
	<polygon points="347.1,312.2 342.8,310 346,319.6 325.5,309.3 324,312.3 344.5,322.6 334.9,325.8 339.1,328 351,324.1 	"/>
	<polygon points="351,337 321.6,322.3 321.6,337 	"/>
	<rect x="29.8" y="700.5" width="22.6" height="3.3"/>
	<polygon points="29.8,687.4 41.2,700.5 52.5,687.4 	"/>
	<polygon points="52.5,716.9 41.2,703.8 29.8,716.9 	"/>
</g>
</svg>
