<?xml version="1.0" encoding="utf-8"?>
<!-- Generator: Adobe Illustrator 19.0.0, SVG Export Plug-In . SVG Version: 6.00 Build 0)  -->
<svg version="1.1" xmlns="http://www.w3.org/2000/svg" xmlns:xlink="http://www.w3.org/1999/xlink" x="0px" y="0px"
	 viewBox="0 0 340.6 742.6" style="enable-background:new 0 0 340.6 742.6;" xml:space="preserve">
<style type="text/css">
	.st0{display:none;}
	.st1{display:inline;}
	.st2{fill:#FFFFFF;}
	.st3{fill:#799EA4;}
	.st4{opacity:0.8;fill:#FF00FF;}
	.st5{fill:none;stroke:#000000;stroke-width:6;stroke-linecap:round;stroke-miterlimit:10;}
	.st6{fill:none;stroke:#000000;stroke-width:5;stroke-linecap:round;stroke-miterlimit:10;}
	.st7{fill:#FFFFFF;stroke:#799EA4;stroke-width:10;stroke-miterlimit:10;}
	.st8{fill:#FFFFFF;stroke:#BDB8A5;stroke-width:10;stroke-miterlimit:10;}
	.st9{fill:none;stroke:#799EA4;stroke-width:25;stroke-miterlimit:10;}
	.st10{fill:#231F20;}
	.st11{fill:none;stroke:#799EA4;stroke-width:5;stroke-miterlimit:10;}
	.st12{fill:#BDB8A5;}
	.st13{fill:none;stroke:#799EA4;stroke-width:5;stroke-miterlimit:10;stroke-dasharray:5.128,3.0768;}
	.st14{fill:#231F20;stroke:#231F20;stroke-width:0.5;stroke-miterlimit:10;}
	.st15{fill:none;}
	.st16{opacity:0.1;fill:#FFFFFF;}
	.st17{opacity:0.3;fill:#FFFFFF;}
	.st18{fill:#FFFFFF;stroke:#231F20;stroke-width:2;stroke-miterlimit:10;}
	.st19{fill:#FFFFFF;stroke:#231F20;stroke-miterlimit:10;}
	.st20{fill:none;stroke:#231F20;stroke-miterlimit:10;}
</style>
<g id="Head" class="st0">
	<g class="st1">
		<path class="st2" d="M340.9,613.7c-3.4,0-4.3-0.9-12.5-9c-4.2-4.1-10.2-10.2-17.9-18c-12.8-13-30.1-30.6-51.4-52.3
			c-28.5-29.2-56.5-57.9-57.3-58.8l-0.3-0.3c-0.2-0.2-0.3-0.3-0.4-0.4c-18.5-14.8-30-42.7-30-73c0-13.8,2.4-27.4,6.9-39.5v-0.4
			l0.5-1c7.3-24.9-4.2-34.6-5.8-35.7c-5.4-3.2-9.7-7.8-12.5-13.3c-0.2-0.4-0.6-1.2-0.6-1.2c-0.1-0.2-0.2-0.4-0.3-0.7
			c-0.1-0.3-0.2-0.5-0.3-0.8c-0.4-0.8-0.7-1.8-1-2.7c-0.2-0.7-0.4-1.4-0.5-1.9c-0.2-0.6-0.3-1.3-0.4-2c0-0.2-0.1-0.5-0.1-0.7
			c-0.1-0.6-0.2-1.2-0.2-1.8c0-0.3-0.1-0.7-0.1-1.1c0-0.4,0-0.8-0.1-1.2c0-0.4,0-0.7,0-1.1c0-0.6,0-1.2,0.1-1.8c0-0.4,0-0.7,0.1-1.1
			l0.1-0.5c0-0.2,0.1-0.5,0.1-0.8c0-0.2,0.1-0.4,0.1-0.6c0.1-0.4,0.1-0.8,0.2-1.2c0.1-0.5,0.2-0.9,0.3-1.4c0.1-0.4,0.2-0.9,0.4-1.4
			c0.1-0.2,0.1-0.5,0.2-0.7c0.1-0.2,0.1-0.4,0.2-0.6l0-0.2l0.1-0.3c0.1-0.4,0.3-0.7,0.4-1.1c0.1-0.3,0.2-0.6,0.4-0.9
			c0.1-0.3,0.3-0.6,0.4-1c0.4-0.9,0.8-1.7,1.3-2.5c0.2-0.3,0.4-0.6,0.5-1c0.2-0.3,0.4-0.6,0.6-0.9c0.1-0.2,0.3-0.4,0.4-0.6
			c0.1-0.2,0.2-0.3,0.3-0.5c0.6-0.9,1.3-1.7,2-2.5l0.2-0.2c1.9-2.5,10.9-15.1,12.4-27.7c4.9-92.4,81.2-164.8,173.8-164.8
			c96,0,174,78.1,174,174c0,6.8-0.4,13.7-1.2,20.4c10.2,2.4,17.6,13.1,20.9,30.4c2.9,15.4,2.5,34.9-1.1,54.9
			c-3.2,17.2-8.4,33.1-15,45.8c-2.4,4.6-4.9,8.7-7.6,12.2c-8.5,11.3-16.4,14.4-22,14.9c-1,6.9-2.3,13.8-4,20.7
			c-8.6,33.8-25.9,64.1-50,87.4l-0.2,0.2c-5.2,4.7-10.9,9.4-16.8,14.2c-12.1,9.7-25.5,19.4-39.9,28.8
			c-19.2,12.6-35.5,21.8-43.5,26.2l-1.7,0.9C342.9,613.7,341,613.7,340.9,613.7z"/>
		<g>
			<path class="st3" d="M351.1,90.1c92,0,166.5,74.6,166.5,166.5c0,9.1-0.7,17.9-2.1,26.6c-0.1,0.5-0.2,1.1-0.3,1.6
				c1.5-0.5,2.9-0.8,4.4-0.8c0.7,0,1.4,0.1,2,0.2c15.3,2.8,21.9,37.2,14.7,76.8c-3.1,17-8.2,32.1-14.3,43.7c-2.2,4.2-4.5,8-6.9,11.1
				c-5.7,7.6-11.8,11.9-17.6,11.9c-0.7,0-1.4-0.1-2-0.2c-1-0.2-2-0.5-3-1c-0.9,9.1-2.4,18.3-4.8,27.4c-8.5,33.6-25.6,62.3-48,83.9
				c-5.3,4.8-10.9,9.4-16.5,13.9c-13.3,10.6-26.9,20.3-39.4,28.4c-19.1,12.6-35.4,21.7-42.9,25.8c0,0,0,0,0,0
				c-0.9,0-40.6-40.4-76.5-77.1c-29.5-30.2-56.4-57.9-57.1-58.6v0c-0.8-0.9-1.3-1.3-1.3-1.3c-16.3-12.8-27.5-38.2-27.5-67.4
				c0-13.9,2.5-26.9,6.9-38.1c0,0,0,0,0,0c9.5-31.3-6.9-43.6-8.6-44.8c-0.1-0.1-0.1-0.1-0.1-0.1c-4.2-2.4-7.6-6.1-9.9-10.4
				c-0.1-0.3-0.3-0.5-0.4-0.8c-0.1-0.2-0.2-0.4-0.3-0.6c-0.1-0.2-0.2-0.5-0.3-0.7c-0.3-0.7-0.5-1.4-0.8-2.1c-0.2-0.5-0.3-1-0.4-1.4
				c-0.1-0.5-0.2-1-0.3-1.5c0-0.2-0.1-0.3-0.1-0.5c-0.1-0.5-0.1-0.9-0.2-1.4c0-0.3-0.1-0.6-0.1-0.9c0-0.3,0-0.6,0-0.9
				c0-0.3,0-0.6,0-0.9c0-0.5,0-1,0-1.5c0-0.3,0-0.5,0-0.8c0-0.2,0-0.3,0-0.5c0-0.2,0-0.4,0.1-0.5c0-0.2,0-0.4,0.1-0.5
				c0-0.3,0.1-0.6,0.2-0.9c0.1-0.3,0.1-0.7,0.2-1c0.1-0.4,0.2-0.7,0.3-1.1c0.1-0.2,0.1-0.4,0.2-0.6c0.1-0.2,0.1-0.4,0.2-0.6
				c0,0,0-0.1,0-0.1c0.1-0.3,0.2-0.6,0.3-0.9c0.1-0.3,0.2-0.5,0.3-0.8c0.1-0.2,0.2-0.4,0.3-0.6c0.3-0.7,0.7-1.4,1-2.1
				c0.1-0.2,0.2-0.4,0.4-0.6c0.2-0.3,0.3-0.5,0.5-0.8c0.1-0.2,0.2-0.3,0.3-0.5c0,0,0.1-0.1,0.1-0.1h0c0.5-0.8,1.2-1.6,1.8-2.3
				c0,0,0,0,0,0c0,0,0,0,0-0.1c1-1.4,12.4-16.3,14.2-31.9v0C189.3,160,262,90.1,351.1,90.1 M351.1,75.1
				c-46.8,0-91.3,17.8-125.2,50.1c-33.7,32.1-53.5,75.2-56.1,121.5c-1.2,8.7-7,18.4-10.6,23.4l0,0l-0.4,0.5
				c-0.7,0.9-1.5,1.8-2.1,2.8c-0.2,0.3-0.4,0.5-0.5,0.6c-0.2,0.3-0.4,0.6-0.5,0.8c-0.2,0.4-0.5,0.7-0.7,1.1
				c-0.3,0.4-0.5,0.8-0.7,1.3c-0.5,1-1.1,2-1.5,3c-0.2,0.4-0.4,0.8-0.5,1.3c-0.1,0.3-0.3,0.7-0.4,1.1c-0.2,0.5-0.4,1-0.5,1.4l0,0.1
				c0,0,0,0,0,0l-0.2,0.6l0,0.1c-0.1,0.2-0.1,0.4-0.2,0.6c-0.1,0.3-0.2,0.5-0.2,0.8c-0.2,0.6-0.3,1.1-0.4,1.7
				c-0.1,0.6-0.3,1.1-0.3,1.7c-0.1,0.5-0.2,1-0.3,1.5c0,0.2-0.1,0.5-0.1,0.7c0,0.4-0.1,0.8-0.1,1.1l0,0.4c0,0.5-0.1,1-0.1,1.4
				c0,0.7-0.1,1.5-0.1,2.2c0,0.4,0,0.9,0,1.3c0,0.5,0,1,0.1,1.5c0,0.5,0.1,0.9,0.1,1.4c0.1,0.7,0.2,1.4,0.3,2.2
				c0,0.3,0.1,0.6,0.2,0.9c0.1,0.8,0.3,1.6,0.5,2.4c0.1,0.6,0.4,1.5,0.7,2.4c0.4,1.1,0.8,2.2,1.2,3.3c0.1,0.3,0.2,0.6,0.4,0.9
				c0.2,0.4,0.3,0.7,0.4,0.9l0,0.1l0.1,0.1l0.1,0.1c0.2,0.3,0.3,0.6,0.5,0.9l0,0.1l0,0.1c3.4,6.6,8.6,12.2,14.9,16
				c1.6,1.3,8.3,8.4,3,26.8l-1,2l0,0.8c-4.5,12.6-6.9,26.6-6.9,40.8c0,16.1,3,31.8,8.8,45.6c5.7,13.6,13.8,25,23.6,32.9l0.2,0.3
				c1.1,1.2,30.4,31.3,57.4,59c21.3,21.7,38.6,39.4,51.4,52.4c7.7,7.8,13.8,13.9,18,18c2.4,2.3,4.1,4.1,5.5,5.3
				c2.6,2.5,6.2,5.9,12.4,5.9h3.9l3.3-1.9c8.1-4.4,24.6-13.7,43.9-26.4c14.6-9.6,28.3-19.5,40.5-29.3c6-4.8,11.8-9.7,17.1-14.4
				l0.2-0.2l0.2-0.2c25.2-24.3,43.2-55.8,52.1-91c1.4-5.4,2.5-10.8,3.4-16.2c6.3-2,13.9-6.6,21.4-16.6c2.9-3.8,5.7-8.3,8.3-13.2
				c7-13.4,12.5-30,15.8-48c3.8-20.9,4.2-41.4,1.1-57.7c-3.9-20.7-12.6-29.8-20.2-33.9c0.4-5.1,0.7-10.3,0.7-15.5
				c0-24.5-4.8-48.3-14.3-70.7c-9.1-21.6-22.2-41-38.9-57.7c-16.7-16.7-36.1-29.8-57.7-38.9C399.4,79.9,375.6,75.1,351.1,75.1
				L351.1,75.1z"/>
		</g>
	</g>
	<g class="st1">
		<path d="M242.3,549.2c-3.3,0-8.2-1.4-12.4-8.2c-0.3-0.5-0.7-1-1.1-1.7c-7.5-11.9-27.6-43.4-26.4-69c0.4-8.2,2.9-15.2,7.6-20.7
			l3.7-4.3l3.8,4.2c4.7,5.2,11.4,8.2,18.4,8.2c3.7,0,7.3-0.8,10.7-2.4c14.7-8.9,25.8-13.3,33.9-13.3c6.4,0,10.2,2.8,12.1,6
			c2.1-0.4,5-1.3,7.4-3.4l2.3-1.9l71.2,27.4l0.2,0.1c0.6,0.3,13.7,6.7,13.7,20v44.6c0,6.5-5.3,11.8-11.8,11.8s-11.8-5.3-11.8-11.8
			v-34.7c-12.7,2.6-43.9,8.1-86.6,9.1l-0.5,0l-0.5-0.1c-0.4-0.1-7.7-1.5-13.4-7.8c-2.6,3.5-6.5,6.3-12,6.3c0,0,0,0,0,0
			c-0.2,0-0.4,0-0.6,0l-0.2,0l-14-1.2l0.3,0.7c4.6,9.6,8.9,20,12.8,31l0.2,0.5c0.4,1.1,0.7,2.1,1.1,3.2l1.4,4.2l-4,1.9
			C246,548.8,244.2,549.2,242.3,549.2z"/>
		<path class="st3" d="M280.5,447c8.5,0,8.7,6.3,8.7,6.3s0.2,0,0.5,0c1.9,0,8.2-0.3,13.5-4.8l68.3,26.3c0,0,10.9,5.2,10.9,15.5v44.6
			c0,3.8-3.1,6.8-6.8,6.8s-6.8-3.1-6.8-6.8v-40.9c0,0-36.3,9-91.7,10.3c0,0-11.2-2-14.9-14c0,0-2,12.4-11.4,12.4c-0.1,0-0.3,0-0.4,0
			l-22.9-2l4.4,8.7c4.1,8.6,8.4,18.7,12.5,30.4c0.4,1.2,0.8,2.4,1.3,3.7c-0.9,0.4-2,0.8-3.3,0.8c-2.4,0-5.3-1.3-8.2-5.9
			c-5.4-8.6-27.9-42.4-26.7-67.8c0.3-6.6,2.2-12.7,6.4-17.6c5.4,6,13.3,9.8,22.1,9.8c4.7,0,9.1-1.1,13.1-3
			C265,449.9,274.7,447,280.5,447 M280.5,437c-9,0-20.8,4.5-36.3,13.9c-2.6,1.2-5.4,1.8-8.3,1.8c-5.6,0-10.9-2.4-14.7-6.5l-7.6-8.4
			l-7.4,8.6c-5.4,6.3-8.4,14.3-8.8,23.7c-1.1,24.3,15,52.7,27.2,71.9c0.4,0.6,0.8,1.2,1.1,1.7c5.5,8.7,12.1,10.6,16.7,10.6
			c2.6,0,5.2-0.6,7.7-1.8l7.9-3.9l-2.8-8.4c-0.4-1.1-0.8-2.2-1.1-3.3l-0.2-0.4c-3-8.5-6.2-16.7-9.7-24.4l5.3,0.5l0.2,0l0.2,0
			c0.3,0,0.5,0,0.8,0c4.8,0,8.9-1.7,12.2-4.3c4.4,3.4,9.1,5.2,12.3,5.8l1,0.2l1,0c37.4-0.9,66.2-5.2,81.5-8v28.6
			c0,9.3,7.5,16.8,16.8,16.8c9.3,0,16.8-7.5,16.8-16.8v-44.6c0-13.1-10.4-21.6-16.6-24.5l-0.3-0.2l-0.4-0.1l-68.3-26.3l-5.5-2.1
			l-4.5,3.8c-0.7,0.6-1.5,1.1-2.3,1.4C291.5,439.2,286.9,437,280.5,437L280.5,437z"/>
	</g>
	<g class="st1">
		<path d="M284.2,654c-17.9,0-27.4-7.1-27.8-7.4l-0.9-0.7l-0.5-1c-12.7-25.3-11.8-59.8-10.8-73.5l0.7-9.7l7.5,6.2
			c13.6,11.2,35.2,17.9,57.9,17.9c0,0,0,0,0,0c1.2,0,2.4,0,3.5-0.1c24.1-0.7,57.5-11.5,68.9-26.2c1.2-1.6,3.1-2.5,5-2.5
			c1.9,0,3.8,0.9,5.1,2.4c1.2,1.5,1.7,3.5,1.2,5.4c-5.4,24.1-17.7,43.7-36.4,58.2C331.1,643.6,306.4,654,284.2,654z"/>
		<path class="st3" d="M387.7,561.9c0.8,0,1.6,0.7,1.4,1.7c-4.5,19.9-14.6,39.8-34.6,55.4c-30.8,23.9-54.4,30-70.3,30
			c-16.4,0-24.7-6.4-24.7-6.4c-12.3-24.4-11.2-58.7-10.3-70.9c13.3,10.9,35.6,19,61.1,19c1.2,0,2.5,0,3.7-0.1
			c25.7-0.8,60.2-12,72.7-28.2C386.9,562.1,387.3,561.9,387.7,561.9 M240.6,551.6l-1.4,19.3c-1,14.1-1.9,49.8,11.3,76.2l1,2.1
			l1.8,1.4c1.1,0.9,11.6,8.4,30.8,8.4c23.3,0,49-10.8,76.4-32.1c19.7-15.2,32.5-35.8,38.2-61.1c0.8-3.4,0-6.9-2.2-9.6
			c-2.2-2.7-5.5-4.3-9-4.3c-3.5,0-6.8,1.6-9,4.4c-9.4,12.2-39.8,23.5-65.1,24.3c-1.1,0-2.3,0.1-3.4,0.1c-21.2,0-42.2-6.4-54.7-16.8
			L240.6,551.6L240.6,551.6z"/>
	</g>
	<g class="st1">
		<path d="M258.6,576.4c-0.8-0.5-20-12.5-30.8-48.3l-3.7-12.1l10.9,6.3c0.1,0.1,15.2,8.4,41.5,8.4c0,0,0,0,0,0
			c16.6,0,34.1-3.3,52-9.8l13.7-5l-7.8,12.4c-1,1.5-24,37.2-72.1,48.6l-2,0.5L258.6,576.4z"/>
		<path class="st3" d="M330.2,525.7c0,0-22.4,35.4-69,46.4c0,0-18.2-11.1-28.6-45.4c0,0,15.8,9.1,44,9.1
			C291.2,535.8,309.3,533.3,330.2,525.7 M215.4,504.9l7.6,24.7c11.4,37.6,32.1,50.6,33,51.1l3.5,2.1l4-0.9
			c50.1-11.9,74.2-49.2,75.2-50.8l15.6-24.7l-27.5,10c-17.3,6.3-34.3,9.5-50.3,9.5c-24.2,0-38.3-7.4-39-7.8L215.4,504.9L215.4,504.9
			z"/>
	</g>
	<g class="st1">
		<g>
			<path class="st2" d="M310.7,616.9c-25.6,0-48.9-16.1-58-40.1c-1.5-4.1-2.7-8.3-3.3-12.6l-0.1-0.2l0-0.1c-1.9-6.7-4-13.4-6.1-19.7
				c-0.3-0.9-0.6-1.7-0.9-2.6l-0.6-1.6c-0.3-0.9-0.6-1.7-0.9-2.6c-0.4-1.1-0.8-2.2-1.2-3.3c-0.2-0.5-0.4-1-0.5-1.4h0l-0.6-1.6
				c-0.2-0.6-0.5-1.3-0.7-1.9c-0.3-0.7-0.6-1.4-0.8-2.1l-0.9-2.1l-0.9-2.1c-0.3-0.6-0.5-1.3-0.8-1.9c-1.6-3.8-3.2-7.3-4.9-10.7
				c-1.4-2.9-2.8-5.7-4.3-8.5l-0.1-0.1c-9.1-17.2-16.8-26.4-19.7-29.6l-0.3-0.4c-0.4-0.4-0.6-0.6-0.7-0.7
				c-17.5-13.8-28.3-40.3-28.3-69.3c0-13.5,2.4-26.9,6.9-38.6v-0.1l0.2-0.3c8.8-29.3-6-40.6-7.7-41.8c-4.6-2.7-8.4-6.6-10.8-11.4
				c-0.1-0.3-0.3-0.5-0.4-0.8l-0.1-0.2c-0.1-0.2-0.2-0.3-0.2-0.5c-0.1-0.2-0.2-0.5-0.3-0.7c-0.3-0.7-0.6-1.5-0.8-2.3
				c-0.2-0.6-0.3-1.1-0.4-1.6c-0.1-0.5-0.3-1.1-0.4-1.7c0-0.2-0.1-0.4-0.1-0.6c-0.1-0.5-0.1-1-0.2-1.5c0-0.3-0.1-0.6-0.1-1
				c0-0.3,0-0.6,0-0.9c0-0.3,0-0.6,0-1c0-0.6,0-1.1,0.1-1.6c0-0.2,0-0.5,0.1-0.8l0-0.5c0-0.2,0-0.4,0.1-0.6c0-0.2,0-0.4,0.1-0.6
				c0-0.4,0.1-0.7,0.2-1c0.1-0.4,0.1-0.7,0.2-1.1c0.1-0.4,0.2-0.8,0.3-1.2c0.1-0.2,0.1-0.4,0.2-0.6c0.1-0.2,0.1-0.4,0.2-0.6l0,0
				l0.1-0.2c0.1-0.3,0.2-0.7,0.4-1c0.1-0.2,0.2-0.5,0.3-0.8c0.1-0.2,0.2-0.5,0.3-0.8c0.3-0.7,0.7-1.5,1.1-2.2
				c0.1-0.2,0.3-0.5,0.4-0.7c0.2-0.3,0.4-0.6,0.6-0.9c0.1-0.2,0.2-0.4,0.4-0.6c0,0,0.1-0.1,0.2-0.2c0.6-0.8,1.2-1.6,1.8-2.3l0.1-0.1
				c1.5-2,11.9-16.1,13.6-30.5C186.9,158,261,87.6,351.1,87.6c93.2,0,169,75.8,169,169c0,8.4-0.6,16.8-1.8,25c0.4,0,0.9-0.1,1.3-0.1
				c0.8,0,1.7,0.1,2.5,0.2c8.5,1.6,14.8,11,17.8,26.6c2.8,14.8,2.4,33.7-1.1,53.1c-3.1,16.7-8.1,32.1-14.5,44.4
				c-2.3,4.3-4.7,8.2-7.2,11.5c-6.4,8.5-13.2,12.9-19.6,12.9c-0.8,0-1.7-0.1-2.5-0.2c-0.1,0-0.2,0-0.4-0.1
				c-0.9,8.3-2.4,16.5-4.5,24.7c-8.3,32.9-25.2,62.4-48.7,85.1c-5.2,4.7-10.8,9.4-16.6,14.1c-11.9,9.6-25.3,19.2-39.6,28.6
				c-19,12.5-35.2,21.6-43.1,25.9c-2.1,1.2-3.6,1.9-4.2,2.3v0c-0.1,0-0.2,0.1-0.2,0.1c-0.2,0.1-0.3,0.1-0.3,0.1l-0.1,0
				C329,614.9,320.1,616.9,310.7,616.9z"/>
			<path d="M351.1,90.1c92,0,166.5,74.6,166.5,166.5c0,9.1-0.7,17.9-2.1,26.6c-0.1,0.5-0.2,1.1-0.3,1.6c1.5-0.5,2.9-0.8,4.4-0.8
				c0.7,0,1.4,0.1,2,0.2c15.3,2.8,21.9,37.2,14.7,76.8c-3.1,17-8.2,32.1-14.3,43.7c-2.2,4.2-4.5,8-6.9,11.1
				c-5.7,7.6-11.8,11.9-17.6,11.9c-0.7,0-1.4-0.1-2-0.2c-1-0.2-2-0.5-3-1c-0.9,9.1-2.4,18.3-4.8,27.4c-8.5,33.6-25.6,62.3-48,83.9
				c-5.3,4.8-10.9,9.4-16.5,13.9c-13.3,10.6-26.9,20.3-39.4,28.4c-19.1,12.6-35.4,21.7-42.9,25.8c-2.2,1.2-3.7,2-4.3,2.3
				c0,0-0.1,0-0.1,0.1c-0.1,0.1-0.2,0.1-0.2,0.1h0c-7.8,3.7-16.5,5.8-25.7,5.8c-25.5,0-47.2-16-55.7-38.5c-1.5-3.9-2.6-8-3.2-12.3
				c0,0,0-0.1,0-0.1c-2-7.2-4.1-13.9-6.3-20.2c-0.4-1.2-0.8-2.5-1.3-3.7c-0.4-1.1-0.7-2.1-1.1-3.1c-0.4-1.1-0.8-2.2-1.2-3.3
				c-0.4-1-0.8-2-1.2-3h0c-0.2-0.6-0.5-1.3-0.7-1.9c-0.3-0.7-0.6-1.4-0.9-2.1c-0.3-0.7-0.6-1.4-0.9-2.1c-0.3-0.7-0.6-1.4-0.9-2.1
				c-0.3-0.7-0.6-1.3-0.9-2c-1.6-3.8-3.3-7.4-4.9-10.7c-1.5-3.1-2.9-5.9-4.3-8.6l-0.1-0.1c-9.2-17.5-17.1-26.8-20-30.1v0
				c-0.8-0.9-1.3-1.3-1.3-1.3c-16.3-12.8-27.5-38.2-27.5-67.4c0-13.9,2.5-26.9,6.9-38.1c0,0,0,0,0,0c9.5-31.3-6.9-43.6-8.6-44.8
				c-0.1-0.1-0.1-0.1-0.1-0.1c-4.2-2.4-7.6-6.1-9.9-10.4c-0.1-0.3-0.3-0.5-0.4-0.8c-0.1-0.2-0.2-0.4-0.3-0.6
				c-0.1-0.2-0.2-0.5-0.3-0.7c-0.3-0.7-0.5-1.4-0.8-2.1c-0.2-0.5-0.3-1-0.4-1.4c-0.1-0.5-0.2-1-0.3-1.5c0-0.2-0.1-0.3-0.1-0.5
				c-0.1-0.5-0.1-0.9-0.2-1.4c0-0.3-0.1-0.6-0.1-0.9c0-0.3,0-0.6,0-0.9c0-0.3,0-0.6,0-0.9c0-0.5,0-1,0-1.5c0-0.3,0-0.5,0-0.8
				c0-0.2,0-0.3,0-0.5c0-0.2,0-0.4,0.1-0.5c0-0.2,0-0.4,0.1-0.5c0-0.3,0.1-0.6,0.2-0.9c0.1-0.3,0.1-0.7,0.2-1
				c0.1-0.4,0.2-0.7,0.3-1.1c0.1-0.2,0.1-0.4,0.2-0.6c0.1-0.2,0.1-0.4,0.2-0.6c0,0,0-0.1,0-0.1c0.1-0.3,0.2-0.6,0.3-0.9
				c0.1-0.3,0.2-0.5,0.3-0.8c0.1-0.2,0.2-0.4,0.3-0.6c0.3-0.7,0.7-1.4,1-2.1c0.1-0.2,0.2-0.4,0.4-0.6c0.2-0.3,0.3-0.5,0.5-0.8
				c0.1-0.2,0.2-0.3,0.3-0.5c0,0,0.1-0.1,0.1-0.1h0c0.5-0.8,1.2-1.6,1.8-2.3c0,0,0,0,0,0c0,0,0,0,0-0.1c1-1.4,12.4-16.3,14.2-31.9v0
				C189.3,160,262,90.1,351.1,90.1 M351.1,85.1c-44.3,0-86.3,16.8-118.3,47.3c-31.9,30.4-50.7,71.3-53,115.1
				c-1.7,13.4-11.2,26.7-13,29.1l0,0l-0.1,0.2c-0.7,0.8-1.3,1.6-1.9,2.4c-0.1,0.1-0.2,0.2-0.3,0.4c-0.1,0.2-0.3,0.4-0.4,0.6
				c-0.2,0.3-0.4,0.6-0.6,0.9c-0.2,0.3-0.3,0.5-0.5,0.9c-0.4,0.8-0.8,1.5-1.2,2.4c-0.1,0.3-0.3,0.6-0.4,0.9
				c-0.1,0.3-0.2,0.6-0.3,0.9c-0.1,0.3-0.3,0.7-0.4,1l0,0.1c0,0,0,0,0,0l0,0.1l0,0c-0.1,0.2-0.1,0.4-0.2,0.7
				c-0.1,0.2-0.1,0.4-0.2,0.7c-0.1,0.4-0.2,0.9-0.3,1.3c-0.1,0.4-0.2,0.8-0.2,1.2c-0.1,0.4-0.1,0.8-0.2,1.1c0,0.2-0.1,0.4-0.1,0.6
				c0,0.2-0.1,0.5-0.1,0.7l0,0.5c0,0.3-0.1,0.7-0.1,1c0,0.6-0.1,1.1-0.1,1.7c0,0.3,0,0.7,0,1c0,0.4,0,0.7,0.1,1.1c0,0.4,0,0.7,0.1,1
				c0.1,0.5,0.1,1.1,0.2,1.7c0,0.2,0.1,0.4,0.1,0.7c0.1,0.6,0.2,1.3,0.4,1.9c0.1,0.5,0.3,1.1,0.5,1.8c0.3,0.9,0.6,1.7,0.9,2.5
				c0.1,0.3,0.2,0.5,0.3,0.7c0.1,0.2,0.2,0.4,0.3,0.6l0.1,0.1l0,0l0,0c0.1,0.3,0.3,0.5,0.4,0.8l0,0l0,0c2.7,5.2,6.7,9.4,11.7,12.4
				c2,1.4,14.7,11.8,6.7,38.7l-0.3,0.7l0,0.3c-4.5,11.9-6.9,25.3-6.9,39c0,29.6,11.2,56.8,29.2,71.1c0.1,0.1,0.3,0.3,0.6,0.6
				l0.3,0.3c2.8,3.1,10.3,12.1,19.3,29.1l0.1,0.1c1.4,2.7,2.9,5.5,4.2,8.4c1.6,3.3,3.2,6.9,4.8,10.5c0.3,0.6,0.6,1.3,0.8,2l0.3,0.7
				c0.2,0.4,0.4,0.9,0.5,1.3l0.6,1.4l0.3,0.7c0.3,0.7,0.6,1.4,0.8,2.1c0.2,0.6,0.5,1.2,0.7,1.9l1.2,3.2h0c0.4,1,0.8,2,1.1,3l0,0l0,0
				c0.3,0.8,0.6,1.7,0.9,2.5l0.2,0.6l0.4,1.1c0.3,0.8,0.6,1.7,0.9,2.5c2.2,6.4,4.2,13,6.1,19.7c0.7,4.5,1.8,8.9,3.4,13.1
				c4.6,12.1,12.6,22.5,23.3,30c10.9,7.7,23.7,11.7,37.1,11.7c9.7,0,19-2.1,27.7-6.2l0.1,0c0,0,0.1-0.1,0.3-0.2
				c0.1,0,0.2-0.1,0.4-0.2l0,0c0.7-0.4,2.1-1.1,4.2-2.3c7.9-4.3,24.2-13.5,43.3-26c14.4-9.4,27.7-19.1,39.7-28.7
				c5.9-4.7,11.5-9.5,16.7-14.1l0.1-0.1l0.1-0.1c23.8-23,40.9-52.9,49.3-86.3c1.9-7.4,3.3-15,4.3-22.5c0.2,0,0.4,0,0.6,0
				c7.3,0,14.7-4.8,21.6-13.9c2.6-3.4,5.1-7.4,7.4-11.8c6.6-12.5,11.7-28.1,14.8-45.1c3.6-19.7,4-38.9,1.1-54
				c-3.2-16.7-10.2-26.8-19.8-28.6c-0.5-0.1-0.9-0.1-1.4-0.2c1-7.4,1.5-15,1.5-22.5c0-45.8-17.8-88.9-50.2-121.3
				c-15.8-15.8-34.1-28.1-54.5-36.8C396.7,89.6,374.2,85.1,351.1,85.1L351.1,85.1z"/>
		</g>
		<g>
			<path class="st2" d="M310.7,616.9c-25.6,0-48.9-16.1-58-40.1c-1.5-4.1-2.7-8.3-3.3-12.6l-0.1-0.2l0-0.1c-1.9-6.7-4-13.4-6.1-19.7
				c-0.3-0.9-0.6-1.7-0.9-2.6l-0.6-1.6c-0.3-0.9-0.6-1.7-0.9-2.6c-0.4-1.1-0.8-2.2-1.2-3.3c-0.2-0.5-0.4-1-0.5-1.4h0l-0.6-1.6
				c-0.2-0.6-0.5-1.3-0.7-1.9c-0.3-0.7-0.6-1.4-0.8-2.1l-0.9-2.1l-0.9-2.1c-0.3-0.6-0.5-1.3-0.8-1.9c-1.6-3.8-3.2-7.3-4.9-10.7
				c-1.4-2.9-2.8-5.7-4.3-8.5l-0.1-0.1c-9.1-17.2-16.8-26.4-19.7-29.6l-0.3-0.4c-0.4-0.4-0.6-0.6-0.7-0.7
				c-17.5-13.8-28.3-40.3-28.3-69.3c0-13.5,2.4-26.9,6.9-38.6v-0.1l0.2-0.3c8.8-29.3-6-40.6-7.7-41.8c-4.6-2.7-8.4-6.6-10.8-11.4
				c-0.1-0.3-0.3-0.5-0.4-0.8l-0.1-0.2c-0.1-0.2-0.2-0.3-0.2-0.5c-0.1-0.2-0.2-0.5-0.3-0.7c-0.3-0.7-0.6-1.5-0.8-2.3
				c-0.2-0.6-0.3-1.1-0.4-1.6c-0.1-0.5-0.3-1.1-0.4-1.7c0-0.2-0.1-0.4-0.1-0.6c-0.1-0.5-0.1-1-0.2-1.5c0-0.3-0.1-0.6-0.1-1
				c0-0.3,0-0.6,0-0.9c0-0.3,0-0.6,0-1c0-0.6,0-1.1,0.1-1.6c0-0.2,0-0.5,0.1-0.8l0-0.5c0-0.2,0-0.4,0.1-0.6c0-0.2,0-0.4,0.1-0.6
				c0-0.4,0.1-0.7,0.2-1c0.1-0.4,0.1-0.7,0.2-1.1c0.1-0.4,0.2-0.8,0.3-1.2c0.1-0.2,0.1-0.4,0.2-0.6c0.1-0.2,0.1-0.4,0.2-0.6l0,0
				l0.1-0.2c0.1-0.3,0.2-0.7,0.4-1c0.1-0.2,0.2-0.5,0.3-0.8c0.1-0.2,0.2-0.5,0.3-0.8c0.3-0.7,0.7-1.5,1.1-2.2
				c0.1-0.2,0.3-0.5,0.4-0.7c0.2-0.3,0.4-0.6,0.6-0.9c0.1-0.2,0.2-0.4,0.4-0.6c0,0,0.1-0.1,0.2-0.2c0.6-0.8,1.2-1.6,1.8-2.3l0.1-0.1
				c1.5-2,11.9-16.1,13.6-30.5C186.9,158,261,87.6,351.1,87.6c93.2,0,169,75.8,169,169c0,8.4-0.6,16.8-1.8,25c0.4,0,0.9-0.1,1.3-0.1
				c0.8,0,1.7,0.1,2.5,0.2c8.5,1.6,14.8,11,17.8,26.6c2.8,14.8,2.4,33.7-1.1,53.1c-3.1,16.7-8.1,32.1-14.5,44.4
				c-2.3,4.3-4.7,8.2-7.2,11.5c-6.4,8.5-13.2,12.9-19.6,12.9c-0.8,0-1.7-0.1-2.5-0.2c-0.1,0-0.2,0-0.4-0.1
				c-0.9,8.3-2.4,16.5-4.5,24.7c-8.3,32.9-25.2,62.4-48.7,85.1c-5.2,4.7-10.8,9.4-16.6,14.1c-11.9,9.6-25.3,19.2-39.6,28.6
				c-19,12.5-35.2,21.6-43.1,25.9c-2.1,1.2-3.6,1.9-4.2,2.3v0c-0.1,0-0.2,0.1-0.2,0.1c-0.2,0.1-0.3,0.1-0.3,0.1l-0.1,0
				C329,614.9,320.1,616.9,310.7,616.9z"/>
			<path d="M351.1,90.1c92,0,166.5,74.6,166.5,166.5c0,9.1-0.7,17.9-2.1,26.6c-0.1,0.5-0.2,1.1-0.3,1.6c1.5-0.5,2.9-0.8,4.4-0.8
				c0.7,0,1.4,0.1,2,0.2c15.3,2.8,21.9,37.2,14.7,76.8c-3.1,17-8.2,32.1-14.3,43.7c-2.2,4.2-4.5,8-6.9,11.1
				c-5.7,7.6-11.8,11.9-17.6,11.9c-0.7,0-1.4-0.1-2-0.2c-1-0.2-2-0.5-3-1c-0.9,9.1-2.4,18.3-4.8,27.4c-8.5,33.6-25.6,62.3-48,83.9
				c-5.3,4.8-10.9,9.4-16.5,13.9c-13.3,10.6-26.9,20.3-39.4,28.4c-19.1,12.6-35.4,21.7-42.9,25.8c-2.2,1.2-3.7,2-4.3,2.3
				c0,0-0.1,0-0.1,0.1c-0.1,0.1-0.2,0.1-0.2,0.1h0c-7.8,3.7-16.5,5.8-25.7,5.8c-25.5,0-47.2-16-55.7-38.5c-1.5-3.9-2.6-8-3.2-12.3
				c0,0,0-0.1,0-0.1c-2-7.2-4.1-13.9-6.3-20.2c-0.4-1.2-0.8-2.5-1.3-3.7c-0.4-1.1-0.7-2.1-1.1-3.1c-0.4-1.1-0.8-2.2-1.2-3.3
				c-0.4-1-0.8-2-1.2-3h0c-0.2-0.6-0.5-1.3-0.7-1.9c-0.3-0.7-0.6-1.4-0.9-2.1c-0.3-0.7-0.6-1.4-0.9-2.1c-0.3-0.7-0.6-1.4-0.9-2.1
				c-0.3-0.7-0.6-1.3-0.9-2c-1.6-3.8-3.3-7.4-4.9-10.7c-1.5-3.1-2.9-5.9-4.3-8.6l-0.1-0.1c-9.2-17.5-17.1-26.8-20-30.1v0
				c-0.8-0.9-1.3-1.3-1.3-1.3c-16.3-12.8-27.5-38.2-27.5-67.4c0-13.9,2.5-26.9,6.9-38.1c0,0,0,0,0,0c9.5-31.3-6.9-43.6-8.6-44.8
				c-0.1-0.1-0.1-0.1-0.1-0.1c-4.2-2.4-7.6-6.1-9.9-10.4c-0.1-0.3-0.3-0.5-0.4-0.8c-0.1-0.2-0.2-0.4-0.3-0.6
				c-0.1-0.2-0.2-0.5-0.3-0.7c-0.3-0.7-0.5-1.4-0.8-2.1c-0.2-0.5-0.3-1-0.4-1.4c-0.1-0.5-0.2-1-0.3-1.5c0-0.2-0.1-0.3-0.1-0.5
				c-0.1-0.5-0.1-0.9-0.2-1.4c0-0.3-0.1-0.6-0.1-0.9c0-0.3,0-0.6,0-0.9c0-0.3,0-0.6,0-0.9c0-0.5,0-1,0-1.5c0-0.3,0-0.5,0-0.8
				c0-0.2,0-0.3,0-0.5c0-0.2,0-0.4,0.1-0.5c0-0.2,0-0.4,0.1-0.5c0-0.3,0.1-0.6,0.2-0.9c0.1-0.3,0.1-0.7,0.2-1
				c0.1-0.4,0.2-0.7,0.3-1.1c0.1-0.2,0.1-0.4,0.2-0.6c0.1-0.2,0.1-0.4,0.2-0.6c0,0,0-0.1,0-0.1c0.1-0.3,0.2-0.6,0.3-0.9
				c0.1-0.3,0.2-0.5,0.3-0.8c0.1-0.2,0.2-0.4,0.3-0.6c0.3-0.7,0.7-1.4,1-2.1c0.1-0.2,0.2-0.4,0.4-0.6c0.2-0.3,0.3-0.5,0.5-0.8
				c0.1-0.2,0.2-0.3,0.3-0.5c0,0,0.1-0.1,0.1-0.1h0c0.5-0.8,1.2-1.6,1.8-2.3c0,0,0,0,0,0c0,0,0,0,0-0.1c1-1.4,12.4-16.3,14.2-31.9v0
				C189.3,160,262,90.1,351.1,90.1 M351.1,85.1c-44.3,0-86.3,16.8-118.3,47.3c-31.9,30.4-50.7,71.3-53,115.1
				c-1.7,13.4-11.2,26.7-13,29.1l0,0l-0.1,0.2c-0.7,0.8-1.3,1.6-1.9,2.4c-0.1,0.1-0.2,0.2-0.3,0.4c-0.1,0.2-0.3,0.4-0.4,0.6
				c-0.2,0.3-0.4,0.6-0.6,0.9c-0.2,0.3-0.3,0.5-0.5,0.9c-0.4,0.8-0.8,1.5-1.2,2.4c-0.1,0.3-0.3,0.6-0.4,0.9
				c-0.1,0.3-0.2,0.6-0.3,0.9c-0.1,0.3-0.3,0.7-0.4,1l0,0.1c0,0,0,0,0,0l0,0.1l0,0c-0.1,0.2-0.1,0.4-0.2,0.7
				c-0.1,0.2-0.1,0.4-0.2,0.7c-0.1,0.4-0.2,0.9-0.3,1.3c-0.1,0.4-0.2,0.8-0.2,1.2c-0.1,0.4-0.1,0.8-0.2,1.1c0,0.2-0.1,0.4-0.1,0.6
				c0,0.2-0.1,0.5-0.1,0.7l0,0.5c0,0.3-0.1,0.7-0.1,1c0,0.6-0.1,1.1-0.1,1.7c0,0.3,0,0.7,0,1c0,0.4,0,0.7,0.1,1.1c0,0.4,0,0.7,0.1,1
				c0.1,0.5,0.1,1.1,0.2,1.7c0,0.2,0.1,0.4,0.1,0.7c0.1,0.6,0.2,1.3,0.4,1.9c0.1,0.5,0.3,1.1,0.5,1.8c0.3,0.9,0.6,1.7,0.9,2.5
				c0.1,0.3,0.2,0.5,0.3,0.7c0.1,0.2,0.2,0.4,0.3,0.6l0.1,0.1l0,0l0,0c0.1,0.3,0.3,0.5,0.4,0.8l0,0l0,0c2.7,5.2,6.7,9.4,11.7,12.4
				c2,1.4,14.7,11.8,6.7,38.7l-0.3,0.7l0,0.3c-4.5,11.9-6.9,25.3-6.9,39c0,29.6,11.2,56.8,29.2,71.1c0.1,0.1,0.3,0.3,0.6,0.6
				l0.3,0.3c2.8,3.1,10.3,12.1,19.3,29.1l0.1,0.1c1.4,2.7,2.9,5.5,4.2,8.4c1.6,3.3,3.2,6.9,4.8,10.5c0.3,0.6,0.6,1.3,0.8,2l0.3,0.7
				c0.2,0.4,0.4,0.9,0.5,1.3l0.6,1.4l0.3,0.7c0.3,0.7,0.6,1.4,0.8,2.1c0.2,0.6,0.5,1.2,0.7,1.9l1.2,3.2h0c0.4,1,0.8,2,1.1,3l0,0l0,0
				c0.3,0.8,0.6,1.7,0.9,2.5l0.2,0.6l0.4,1.1c0.3,0.8,0.6,1.7,0.9,2.5c2.2,6.4,4.2,13,6.1,19.7c0.7,4.5,1.8,8.9,3.4,13.1
				c4.6,12.1,12.6,22.5,23.3,30c10.9,7.7,23.7,11.7,37.1,11.7c9.7,0,19-2.1,27.7-6.2l0.1,0c0,0,0.1-0.1,0.3-0.2
				c0.1,0,0.2-0.1,0.4-0.2l0,0c0.7-0.4,2.1-1.1,4.2-2.3c7.9-4.3,24.2-13.5,43.3-26c14.4-9.4,27.7-19.1,39.7-28.7
				c5.9-4.7,11.5-9.5,16.7-14.1l0.1-0.1l0.1-0.1c23.8-23,40.9-52.9,49.3-86.3c1.9-7.4,3.3-15,4.3-22.5c0.2,0,0.4,0,0.6,0
				c7.3,0,14.7-4.8,21.6-13.9c2.6-3.4,5.1-7.4,7.4-11.8c6.6-12.5,11.7-28.1,14.8-45.1c3.6-19.7,4-38.9,1.1-54
				c-3.2-16.7-10.2-26.8-19.8-28.6c-0.5-0.1-0.9-0.1-1.4-0.2c1-7.4,1.5-15,1.5-22.5c0-45.8-17.8-88.9-50.2-121.3
				c-15.8-15.8-34.1-28.1-54.5-36.8C396.7,89.6,374.2,85.1,351.1,85.1L351.1,85.1z"/>
		</g>
		<path class="st4" d="M336.6,608.5c0.5-0.3,2-1.1,4.4-2.3C339.6,607,338.1,607.8,336.6,608.5z"/>
		<ellipse cx="221.8" cy="336" rx="12.4" ry="14.4"/>
		<ellipse cx="339.3" cy="336" rx="12.4" ry="14.4"/>
		<path class="st5" d="M312.5,433.2c-0.7,8.4-3.9,13.5-7.5,16.6"/>
		<path class="st6" d="M231.6,335.1c0,0,6.1,50.1-20.1,81c-2,2.6-3.6,5.5-4.7,8.7c-1.1,3.2-1.7,6.5-1.7,10.1c0,7.9,3,15.1,7.9,20.5"
			/>
		<path d="M382.4,490.2v44.6c0,3.8-3.1,6.8-6.8,6.8s-6.8-3.1-6.8-6.8v-40.9c0,0-36.3,9-91.7,10.3c0,0-11.2-2-14.9-14
			c0,0-2,12.7-11.8,12.3l-22.9-2l4.4,8.7c4.1,8.6,8.4,18.7,12.5,30.4c0.4,1.2,0.8,2.4,1.3,3.7c-2.7,1.3-7.2,1.8-11.5-5.1
			c-5.4-8.6-27.9-42.4-26.7-67.8c0.3-6.6,2.2-12.7,6.4-17.6c5.4,6,13.3,9.8,22.1,9.8c4.7,0,9.1-1.1,13.1-3
			c39.6-24.1,40.2-6.4,40.2-6.4s7.8,0.5,14.1-4.8l68.3,26.3C371.5,474.8,382.4,479.9,382.4,490.2z"/>
		<path d="M386.6,562.5c0.9-1.2,2.8-0.3,2.5,1.2c-4.5,19.9-14.6,39.8-34.6,55.4c-62.5,48.5-95.1,23.6-95.1,23.6
			c-12.3-24.4-11.2-58.7-10.3-70.9c13.9,11.4,37.7,19.8,64.8,19C339.6,589.8,374.1,578.7,386.6,562.5z"/>
		<path d="M330.2,525.7c0,0-22.4,35.4-69,46.4c0,0-18.2-11.1-28.6-45.4C232.5,526.7,269.3,547.8,330.2,525.7z"/>
		<path d="M382.4,490.2v44.6c0,3.8-3.1,6.8-6.8,6.8s-6.8-3.1-6.8-6.8v-40.9c0,0-36.3,9-91.7,10.3c0,0-11.2-2-14.9-14
			c0,0-2,12.7-11.8,12.3l-22.9-2l4.4,8.7c4.1,8.6,8.4,18.7,12.5,30.4c0.4,1.2,0.8,2.4,1.3,3.7c-2.7,1.3-7.2,1.8-11.5-5.1
			c-5.4-8.6-27.9-42.4-26.7-67.8c0.3-6.6,2.2-12.7,6.4-17.6c5.4,6,13.3,9.8,22.1,9.8c4.7,0,9.1-1.1,13.1-3
			c39.6-24.1,40.2-6.4,40.2-6.4s7.8,0.5,14.1-4.8l68.3,26.3C371.5,474.8,382.4,479.9,382.4,490.2z"/>
		<path d="M386.6,562.5c0.9-1.2,2.8-0.3,2.5,1.2c-4.5,19.9-14.6,39.8-34.6,55.4c-62.5,48.5-95.1,23.6-95.1,23.6
			c-12.3-24.4-11.2-58.7-10.3-70.9c13.9,11.4,37.7,19.8,64.8,19C339.6,589.8,374.1,578.7,386.6,562.5z"/>
		<path d="M330.2,525.7c0,0-22.4,35.4-69,46.4c0,0-18.2-11.1-28.6-45.4C232.5,526.7,269.3,547.8,330.2,525.7z"/>
		<path class="st6" d="M330.9,441c0,0,12.8,24.1,38.6,35.5"/>
		<path d="M420.8,312.2c0.2,1.1-1.3,1.7-1.9,0.8c-0.5-0.7-1-1.4-1.6-2.2c-7-9.5-23.1-27.3-45.8-28.7c-30.7-1.8-72.6,24.9-73.9,25.7
			c0,0,0,0,0,0c-2.8,2.1-5.6,3.8-8.4,5c-7.9,3.6-15.2,3.6-18.3-0.4c-1.8-2.4-1.8-5.8-0.4-9.6c1.8-4.9,6.1-10.3,12.1-14.8
			c2-1.5,4.1-2.8,6.1-3.9c0,0,0,0,0,0c1-0.7,37.4-25.5,84.1-19.1c35.2,4.8,44.9,31.1,47.5,44.3C420.5,310.3,420.7,311.3,420.8,312.2
			z"/>
		<path d="M215,314.9c-7.9-4.3-28.9-14.4-48.1-6.4c-1.8-3.5-2.8-7.5-2.8-11.7c0-5.4,1.7-10.4,4.5-14.5h0
			c14.5-2.4,39.7-1.5,48.7,30.7C217.7,314.4,216.3,315.5,215,314.9z"/>
		<path class="st6" d="M510.5,407.4c3,1.9,5.1,7.6,5.1,14.3c0,8.2-3.2,14.9-7.2,14.9c-2.7,0-5-3-6.2-7.4"/>
		<path class="st6" d="M518,398.3c3,1.9,5.1,7.6,5.1,14.3c0,8.2-3.2,14.9-7.2,14.9c-1.8,0-3.5-1.4-4.7-3.6"/>
		<path class="st5" d="M499,298.3c5.1-7.2,11.8-13.5,20.4-16.8"/>
	</g>
</g>
<g id="Overlays">
	<path class="st7" d="M214.4,76.9v121.6c0,5.5-4.5,10-10,10H26c-5.5,0-10-4.5-10-10V76.9c0-5.5,4.5-10,10-10h15.1V45.2
		c0-5.5,4.5-10,10-10h68.2c5.5,0,10,4.5,10,10v21.8h75.1C209.9,66.9,214.4,71.4,214.4,76.9z"/>
	<circle class="st7" cx="110.9" cy="372" r="30.2"/>
	<circle class="st7" cx="35.2" cy="263.8" r="30.2"/>
	<circle class="st7" cx="72.6" cy="473.2" r="30.2"/>
	<circle class="st7" cx="172.3" cy="580" r="30.2"/>
	<circle class="st7" cx="265.1" cy="35.2" r="30.2"/>
	<path class="st7" d="M155.6,643.8h69.8c6.6,0,12,5.4,12,12v69.8c0,6.6-5.4,12-12,12h-69.8c-6.6,0-12-5.4-12-12v-69.8
		C143.6,649.2,149,643.8,155.6,643.8z"/>
	<path class="st8" d="M110.9,674.7H70c-6.6,0-12-5.4-12-12v-40.8c0-6.6,5.4-12,12-12h40.8c6.6,0,12,5.4,12,12v40.8
		C122.9,669.3,117.5,674.7,110.9,674.7z"/>
	<polygon class="st3" points="340.6,35 340.6,35.2 323,52.7 323,44.6 295.3,44.6 295.3,25.2 323,25.2 323,17.3 	"/>
	<line class="st9" x1="110.9" y1="208.5" x2="110.9" y2="341.8"/>
</g>
<g id="Icons">
	<g>
		<path class="st10" d="M40.4,268.2c-1.5,0.6-3.2,1-5,1.1c-2,0-3.8-0.3-5.5-1c-0.5,0.6-1.2,1.4-1.8,2.2c2.2,1,4.8,1.6,7.4,1.5
			c2.5-0.1,4.8-0.7,6.8-1.6L40.4,268.2z"/>
		<path class="st10" d="M43.6,272.6c-2.4,1.2-5.2,2-8.1,2.1c-3.1,0.1-6.1-0.6-8.7-1.9c-0.7,0.9-1,1.2-1.8,2.2
			c3.1,1.6,6.7,2.5,10.6,2.4c3.6-0.1,7-1.1,9.9-2.7L43.6,272.6z"/>
		<path class="st10" d="M46.9,277c-3.3,1.9-7.1,3-11.2,3.1c-4.3,0.1-8.4-0.9-11.9-2.8c-0.8,1-0.9,1.1-1.8,2.2
			c4,2.2,8.7,3.5,13.7,3.3c4.8-0.1,9.3-1.5,13-3.8L46.9,277z"/>
		<path class="st10" d="M53.7,262.1v-7.2H42.3v2.7h-3.5v-4.9c0-1.5-1.5-3-3.3-3c-1.8,0-3.3,1.5-3.3,3v4.9h-3.6v-2.7H18.2v7.2h10.3
			v-2.7h3.6v4.7c0,1.5,1.7,3,3.3,3c1.6,0,3.4-1.5,3.4-3v-4.7h3.5v2.7H53.7z"/>
	</g>
	<g>
		<polyline class="st11" points="17.5,96.6 40.5,118.4 60.9,98.3 99.5,134.2 		"/>
		<polygon class="st12" points="35.6,121.8 23.6,115.9 20.3,121.8 19,106.8 		"/>
		<polygon class="st12" points="57.4,117.4 47.2,126.6 60.8,105.7 89.6,133.2 72.5,125.5 66.5,129.9 61.7,119.5 55.9,130.6 		"/>
		<g>
			<g>
				<line class="st11" x1="91.2" y1="136.6" x2="88.7" y2="136.6"/>
				<line class="st13" x1="85.6" y1="136.6" x2="21.5" y2="136.6"/>
				<line class="st11" x1="20" y1="136.6" x2="17.5" y2="136.6"/>
			</g>
		</g>
		<line class="st11" x1="93.5" y1="136.6" x2="211.6" y2="136.6"/>
		<g>
			<g>
				<polygon class="st10" points="103.6,189.5 103.4,188.6 105.1,184.7 102.4,183.6 96.6,186.5 94.3,185.4 94,184.5 95.7,180.9 
					93.6,180 88,182.7 85.8,181.7 85.6,180.8 87.2,177.3 85.5,176.7 80.1,179.2 78.1,178.3 77.8,177.4 81.1,170.9 84.8,165.3 
					86.6,163.7 88.6,155.6 89.5,146.8 89.3,138 87.9,129.3 85.3,120.8 81.3,112.5 88.8,104.6 88.7,100.6 83.2,95.1 82.3,93.4 
					80.5,88 80.9,85 82.5,82.8 84.8,81.9 87.2,81.6 89.7,82.3 90.9,83.7 92.4,81.5 94.8,80.6 97.4,80.3 100,81.1 101.7,83.1 
					111.5,85.1 113.2,83.5 115.9,83.2 118,83 120,84.3 121.2,86.6 124.7,100.1 132.7,106.8 133.4,106.8 136.9,107.4 140.2,108.4 
					143.4,109.6 146.5,111.2 148.5,113 150.1,115.3 151.4,117.9 152.3,120.9 152.8,124.1 152.9,127.4 152.5,131.6 151.9,135.7 
					150.8,139.8 149.5,143.7 147.9,147.4 145.9,150.9 140.8,158.5 135.1,165.8 132.9,168.2 133.7,169.1 130.1,173.1 123,179.5 
					115.4,185.5 112.3,187.5 110.7,188.3 106.2,190.7 				"/>
				<path class="st10" d="M97.4,80.8l2.3,0.7l1.8,2l10.4,2.2l0.1-0.2l1.5-1.5l2.5-0.3l1.9-0.2l1.7,1.1l1.1,2.1l3.5,13.6l8.2,6.9
					l0.9,0.1l3.4,0.6l3.3,0.9l3.2,1.2l3,1.5l1.9,1.7l1.6,2.2l1.3,2.6l0.9,2.9l0.5,3.1l0.1,3.2l-0.3,4.1l-0.7,4.1l-1,4l-1.3,3.9
					l-1.6,3.7l-1.9,3.4l-5.1,7.6l-5.7,7.2l-2.5,2.7l0.8,1l-3.3,3.6l-7,6.4l-7.6,5.9l-3.1,2l-1.6,0.8l-4.3,2.3l-2.1-0.9l-0.1-0.6
					l1.8-4.2l-3.4-1.4l-5.7,2.9l-1.9-0.8l-0.1-0.6l1.8-3.9l-2.8-1.2l-5.6,2.7l-1.8-0.8l-0.1-0.5l1.8-3.7l-2.4-1l-5.4,2.5l-1.6-0.7
					l-0.1-0.5l3.1-6.3l3.7-5.5l1.8-1.7l2-8.2l1-8.9l-0.2-8.9l-1.4-8.8l-2.6-8.5l-3.9-8.1l7.4-7.8l-0.1-4.4l-5.6-5.5l-0.9-1.7
					l-0.8-2.5L81,87.9l0.4-2.7l1.4-2l2.1-0.8l2.2-0.3l2.2,0.6l1.7,1.9l0,0l0.1-0.5l1.5-2.2l2.2-0.8L97.4,80.8 M97.5,79.8l-0.2,0
					l-2.5,0.3l-0.1,0l-0.1,0L92.4,81l-0.3,0.1l-0.2,0.3l-1,1.5l-0.7-0.8L90,81.9l-0.3-0.1l-2.2-0.6l-0.2-0.1l-0.2,0l-2.2,0.3l-0.1,0
					l-0.1,0l-2.1,0.8l-0.3,0.1L82,82.6l-1.4,2l-0.1,0.2l0,0.2l-0.4,2.7l0,0.2l0.1,0.2l0.8,2.6l0.8,2.5l0,0.1l0,0.1l0.9,1.7l0.1,0.1
					l0.1,0.1l5.3,5.2l0.1,3.6l-7.1,7.5l-0.5,0.5L81,113l3.8,8l2.6,8.4l1.4,8.6l0.2,8.7l-1,8.8l-1.9,7.9l-1.6,1.4l-0.1,0.1l-0.1,0.1
					l-3.7,5.5l0,0.1l0,0.1l-3.1,6.3l-0.2,0.3l0.1,0.4l0.1,0.5l0.1,0.5l0.4,0.2l1.6,0.7l0.4,0.2l0.4-0.2l5-2.3l1,0.4l-1.3,2.8
					l-0.2,0.3l0.1,0.3l0.1,0.5l0.1,0.5l0.4,0.2l1.8,0.8l0.4,0.2l0.4-0.2l5.2-2.5l1.4,0.6l-1.4,3l-0.1,0.3l0.1,0.3l0.1,0.6l0.1,0.5
					l0.5,0.2l1.9,0.8l0.4,0.2l0.4-0.2l5.3-2.7l2,0.8l-1.4,3.2l-0.1,0.3l0.1,0.3l0.1,0.6l0.1,0.5l0.4,0.2l2.1,0.9l0.4,0.2l0.4-0.2
					l4.3-2.3l1.6-0.8l0,0l0,0l3.1-2l0,0l0,0l7.6-5.9l0,0l0,0l7-6.4l0,0l0,0l3.3-3.6l0.6-0.6l-0.6-0.7l-0.2-0.3l1.9-2l0,0l0,0
					l5.7-7.2l0,0l0,0l5.1-7.6l0,0l0,0l1.9-3.4l0,0l0,0l1.6-3.7l0,0l0,0l1.3-3.9l0,0l0,0l1-4l0,0l0,0l0.7-4.1l0,0l0,0l0.3-4.1l0,0
					l0-0.1l-0.1-3.2l0-0.1l0-0.1l-0.5-3.1l0-0.1l0-0.1l-0.9-2.9l0-0.1l0-0.1l-1.3-2.6l0-0.1l0-0.1l-1.6-2.2l-0.1-0.1l-0.1-0.1
					l-1.9-1.7l-0.1-0.1l-0.1-0.1l-3-1.5l0,0l0,0l-3.2-1.2l0,0l0,0l-3.3-0.9l0,0l0,0l-3.4-0.6l-0.1,0l-0.1,0l-0.6,0l-7.8-6.5
					l-3.4-13.3l0-0.1l-0.1-0.1l-1.1-2.1l-0.1-0.2l-0.2-0.1l-1.7-1.1l-0.3-0.2l-0.3,0l-1.9,0.2l-2.6,0.3l-0.3,0l-0.2,0.2l-1.4,1.3
					l-9.4-2l-1.5-1.8l-0.2-0.2l-0.3-0.1l-2.3-0.7L97.5,79.8L97.5,79.8z"/>
			</g>
			<g>
				<polygon class="st2" points="88.1,181.6 92.3,175.4 94.2,172.5 101.4,169.4 93.4,179.2 88.1,181.8 				"/>
				<path class="st10" d="M100.5,170l-7.3,9l-4.5,2.2l3.9-5.7l1.8-2.8L100.5,170 M102.2,168.8l-8.2,3.5l-1.9,3l-4.3,6.3l0.1,0.6
					l5.6-2.7L102.2,168.8L102.2,168.8z"/>
			</g>
			<g>
				<polygon class="st10" points="108,170.7 99.7,174.4 97.8,177.5 96.4,180.6 93.5,179.4 102.2,168.8 				"/>
			</g>
			<g>
				<polygon class="st10" points="89.5,113 81.9,112.6 89.3,104.8 				"/>
			</g>
			<g>
				<polygon class="st10" points="99.3,167.8 91.2,171.2 89.3,174.2 87.9,177.1 85.5,176.1 94,166 				"/>
			</g>
			<g>
				<polygon class="st10" points="117.7,142.1 116.5,144.1 111.6,150.6 106.2,156.7 100.3,162.4 84.6,168.8 86.5,166.1 87.9,164.8 
					90,156 91,147.1 90.8,138.1 89.4,129.3 86.8,120.8 83.7,114.2 110.8,115.8 113.9,123.3 116.5,133.1 				"/>
			</g>
			<g>
				<polygon class="st2" points="80.2,178.2 84.3,172.3 86.1,169.5 93.2,166.6 85.4,175.9 80.3,178.3 				"/>
				<path class="st10" d="M92.3,167.2l-7.1,8.5l-4.4,2.1l3.7-5.4l1.8-2.7L92.3,167.2 M94,166l-8,3.3l-1.9,2.8l-4.1,6l0.1,0.5
					l5.4-2.5L94,166L94,166z"/>
			</g>
			<g>
				<polygon class="st10" points="114.5,172.9 114.3,173.9 112.8,175.3 112.1,176.5 109.1,177.9 107.2,181.2 105.7,184.4 
					102.3,183.1 111.2,171.8 				"/>
			</g>
			<g>
				<polygon class="st2" points="96.8,185.4 101.1,178.9 103,175.8 110.4,172.5 102.2,182.9 96.8,185.6 				"/>
				<path class="st10" d="M109.5,173.1l-7.5,9.5l-4.7,2.4l4-6.1l1.9-3L109.5,173.1 M111.2,171.8l-8.3,3.8l-2,3.1l-4.4,6.6l0.1,0.6
					l5.7-2.9L111.2,171.8L111.2,171.8z"/>
			</g>
			<g>
				<polygon class="st10" points="123.6,103.1 120.5,103.5 111.4,114 101.8,113.6 110.8,103.5 113.9,103.2 				"/>
			</g>
			<g>
				<polygon class="st10" points="118.3,164.2 119.5,153.8 119.4,143.5 118.1,133.3 115.5,123.4 111.6,114.1 120.6,103.7 
					123.5,103.4 126.9,107.4 129.8,107.3 133.3,107.6 136.8,108.2 140,109.1 143.1,110.3 146.1,111.8 147.9,113.5 149.5,115.7 
					150.7,118.3 151.6,121.1 152,124.2 152.1,127.4 151.8,131.5 151.1,135.6 150.1,139.6 148.8,143.4 147.2,147.1 145.3,150.5 
					140.2,158.1 134.5,165.3 132.2,167.8 131.4,166.8 130.8,166.6 118.5,171 116.1,173.5 				"/>
				<path class="st10" d="M123.4,103.6l3.2,3.7l0.1,0.1l0.2,0.2l0.2,0l2.7-0.1l2.6,0.2l0.9,0.1l3.4,0.6l3.2,0.9l3.1,1.2l2.9,1.5
					l1.8,1.7l1.5,2.1l1.2,2.5l0.9,2.8l0.5,3.1l0.1,3.2l-0.3,4.1l-0.7,4.1l-1,4l-1.3,3.8L147,147l-1.9,3.4l-5.1,7.6l-5.7,7.2
					l-2.1,2.3l-0.6-0.7l-0.1-0.1l-0.2,0l-0.4-0.1l-0.2,0l-0.2,0.1l-12.2,4.4l-0.1,0l-0.1,0.1l-1.7,1.8l2-8.5l0,0l0,0l1.2-10.3l0,0
					l0,0l0-10.3l0,0l0,0l-1.3-10.1l0,0l0,0l-2.6-9.9l0,0l0,0l-3.8-9.2l8.8-10.2L123.4,103.6 M123.6,103.1l-3.1,0.4l-9.1,10.6
					l3.9,9.4l2.6,9.9l1.3,10.1l0,10.3l-1.2,10.3l-2.4,10.2l3-3.1l12.2-4.4l0.4,0.1l0.9,1.2l2.5-2.7l5.7-7.2l5.1-7.6l1.9-3.4l1.6-3.7
					l1.3-3.9l1-4l0.7-4.1l0.3-4.1l-0.1-3.2l-0.5-3.1l-0.9-2.9l-1.2-2.6l-1.6-2.2l-1.9-1.7l-3-1.5l-3.1-1.2l-3.3-0.9l-3.4-0.6
					l-0.9-0.1l-2.6-0.2l-2.8,0.1L127,107L123.6,103.1L123.6,103.1z"/>
			</g>
			<polygon class="st14" points="112.1,176.5 110.9,178.6 109.1,177.9 			"/>
			<g>
				<polygon class="st10" points="99.4,113.5 91.7,113.1 99.2,104.9 				"/>
			</g>
			<g>
				<polygon class="st10" points="99.2,104.9 91.7,113.1 91.4,100.3 85.8,94.7 84.9,93 84.1,90.4 83.2,87.7 83.6,85 85,82.9 
					87.2,82.1 89.4,82.7 91.2,84.6 91.2,84.6 90.9,87 91.7,89.8 92.5,92.5 93.4,94.3 99.1,100.1 				"/>
			</g>
			<g>
				<polygon class="st2" points="101.6,100.1 99.1,100.1 93.4,94.3 92.5,92.5 91.7,89.8 90.9,87 91.2,84.6 91.2,84.1 92.7,82 
					94.9,81.1 97.4,80.8 95.2,81.7 93.7,83.8 93.3,86.8 94.2,89.6 95,92.3 95.9,94.2 				"/>
			</g>
			<g>
				<polygon class="st2" points="99.9,86.5 99.7,87.4 99.2,88 98.5,88.2 97.8,88 97.3,87.3 97.1,86.4 97.2,85.5 97.7,84.9 
					98.4,84.7 99.2,85 99.7,85.6 				"/>
			</g>
			<g>
				<polygon class="st2" points="119.2,88.5 119,89.3 118.6,89.9 118,90 117.4,89.8 116.9,89.2 116.8,88.3 116.9,87.5 117.4,86.9 
					118,86.7 118.6,87 119,87.6 				"/>
			</g>
			<line class="st15" x1="102.2" y1="168.8" x2="93.5" y2="179.4"/>
			<g>
				<path class="st10" d="M124.2,100.3l-3.5-13.6l-1.1-2.1l-1.7-1.1l-1.9,0.2l-1.5,1.5l-0.3,1l-2.3-0.5l-10.3-2.2l-1.8-2l-2.3-0.7
					l-2.2,0.8l-1.5,2.2l-0.4,2.9l0.9,2.8l0.8,2.7l0.9,1.9l5.7,5.9l0.3,13.5l9-10.1l3.1-0.4l9.7-0.1l3.3,3.9l0.1,0.1l2.8-0.1l2.6,0.2
					L124.2,100.3z M99.7,87.4L99.2,88l-0.7,0.2l-0.6,0.1L97.2,88l-0.5-0.7l-0.2-0.9l0.2-0.9l0.5-0.6l0.7-0.2l0.6-0.1l0.7,0.3
					l0.5,0.7l0.2,0.9L99.7,87.4z M119,89.3l-0.4,0.6L118,90l-0.6,0l-0.6-0.2l-0.5-0.6l-0.2-0.8l0.2-0.8l0.5-0.6l0.6-0.2l0.6-0.1
					l0.6,0.3l0.4,0.6l0.2,0.8L119,89.3z"/>
			</g>
			<g>
				<polygon class="st10" points="117.4,89.8 118,90 117.3,90.1 116.7,89.8 116.3,89.2 116.1,88.4 116.3,87.5 116.7,87 117.3,86.8 
					118,86.7 117.4,86.9 116.9,87.5 116.8,88.3 116.9,89.2 				"/>
			</g>
			<g>
				<polygon class="st10" points="98.5,88.2 97.9,88.3 97.2,88 96.6,87.3 96.4,86.4 96.6,85.6 97.1,84.9 97.8,84.7 98.4,84.7 
					97.7,84.9 97.2,85.5 97.1,86.4 97.3,87.3 97.8,88 				"/>
			</g>
			<line class="st15" x1="85.2" y1="165.6" x2="81.5" y2="171.1"/>
			<line class="st15" x1="81.9" y1="112.6" x2="89.3" y2="104.8"/>
			<g>
				<polygon class="st2" points="106.3,189.6 110.8,182.6 114.8,176.1 119.2,171.6 131.2,167.3 132.7,169.1 129.5,172.6 122.5,179 
					114.9,184.9 111.9,186.8 110.3,187.7 106.3,189.8 				"/>
				<path class="st10" d="M131.1,167.6l0.7,0.9l0.5,0.6l-3,3.3l-6.9,6.4l-7.6,5.9l-3,1.9l-1.6,0.8l-3.4,1.8l4.2-6.4l4-6.5l4.3-4.4
					L131.1,167.6 M131.2,167l-12.2,4.4l-4.5,4.6l-4,6.5l-4.6,7l0.1,0.6l4.3-2.3l1.6-0.8l3.1-2l7.6-5.9l7-6.4l3.3-3.6l-0.8-1
					L131.2,167L131.2,167z"/>
			</g>
			<line class="st15" x1="94" y1="166" x2="85.5" y2="176.1"/>
			<line class="st15" x1="85.5" y1="176.1" x2="87.9" y2="177.1"/>
			<g>
				<polygon class="st2" points="117.9,152 117.9,153.5 117.2,159.6 116.7,163.7 115.9,167.2 114.5,172.9 111.2,171.8 102.9,175.6 
					99.7,174.4 108,170.7 102.2,168.8 94,172.3 91.2,171.2 99.3,167.8 94,166 86,169.3 84.6,168.8 100.3,162.4 106.2,156.7 
					111.6,150.6 116.5,144.1 117.7,142.1 117.9,143.2 117.9,144.4 				"/>
			</g>
			<g>
				<polygon class="st10" points="80.1,178.7 78.5,178 78.4,177.4 80,178.1 				"/>
			</g>
			<line class="st15" x1="111.2" y1="171.8" x2="102.3" y2="183.1"/>
			<g>
				<polygon class="st10" points="106.2,190.1 104,189.2 103.9,188.6 106,189.5 				"/>
			</g>
			<g>
				<polygon class="st10" points="88,182.1 86.2,181.4 86.1,180.8 87.8,181.6 				"/>
			</g>
			<line class="st15" x1="97.8" y1="177.5" x2="99.7" y2="174.4"/>
			<g>
				<polygon class="st10" points="96.6,185.9 94.7,185.1 94.6,184.5 96.5,185.4 				"/>
			</g>
			<line class="st15" x1="109.1" y1="177.9" x2="112.1" y2="176.5"/>
			<line class="st15" x1="105.7" y1="184.4" x2="102.3" y2="183.1"/>
			<line class="st15" x1="93.5" y1="179.4" x2="96.4" y2="180.6"/>
			<line class="st15" x1="89.3" y1="174.2" x2="91.2" y2="171.2"/>
			<line class="st15" x1="89.4" y1="82.7" x2="87.2" y2="82.1"/>
			<line class="st15" x1="91.2" y1="84.6" x2="89.4" y2="82.7"/>
			<line class="st15" x1="91.2" y1="84.6" x2="91.2" y2="84.6"/>
			<g>
				<polygon class="st2" points="115.9,83.7 114.4,85.2 114.1,86.2 111.8,85.7 111.9,85.4 113.4,84 				"/>
			</g>
			<line class="st15" x1="91.7" y1="113.1" x2="99.2" y2="104.9"/>
			<g>
				<polygon class="st2" points="91.4,100.3 89.2,100.4 83.6,94.9 82.7,93.1 81.9,90.6 81,87.9 81.4,85.2 82.8,83.2 85,82.4 
					87.2,82.1 85,82.9 83.6,85 83.2,87.7 84.1,90.4 84.9,93 85.8,94.7 				"/>
			</g>
			<g>
				<polygon class="st2" points="86,169.3 84.1,172.1 80,178.1 78.4,177.4 81.5,171.1 83.4,168.3 84.6,168.8 				"/>
			</g>
			<g>
				<polygon class="st2" points="119.2,153.8 118,164.1 115.6,174.3 114.3,173.9 114.5,172.9 115.9,167.2 116.7,163.7 117.2,159.6 
					117.9,153.5 117.9,152 117.9,144.4 117.9,143.2 117.7,142.1 116.5,133.1 113.9,123.3 110.8,115.8 83.7,114.3 86.8,120.8 
					89.4,129.3 90.8,138.1 91,147.1 90,156 87.9,164.8 86.5,166.1 84.6,168.8 83.4,168.3 85.2,165.6 87,164 89,155.7 90,146.8 
					89.8,138 88.4,129.2 85.8,120.7 81.9,112.6 89.5,113 89.3,104.8 89.2,100.4 91.4,100.3 91.7,113.1 99.4,113.4 99.2,104.9 
					99.1,100.1 101.6,100.1 101.8,113.6 111.4,114 115.3,123.5 117.9,133.3 119.2,143.5 				"/>
			</g>
			<polygon class="st2" points="94,172.3 92.1,175.3 87.8,181.6 86.1,180.8 87.9,177.1 89.3,174.2 91.2,171.2 			"/>
			<polygon class="st2" points="102.9,175.6 100.9,178.7 96.5,185.4 94.6,184.5 96.4,180.6 97.8,177.5 99.7,174.4 			"/>
			<polygon class="st2" points="131.2,167 119,171.4 114.6,176 110.6,182.5 106,189.5 103.9,188.6 105.7,184.4 107.2,181.2 
				109.1,177.9 110.9,178.6 112.1,176.5 112.8,175.4 114.3,173.9 115.6,174.3 118.6,171.3 130.8,166.9 			"/>
		</g>
	</g>
	<g>
		<polygon class="st12" points="105.8,656.4 105.8,661.5 103.3,661.5 103.3,664.1 108.4,664.1 108.4,656.4 		"/>
		<rect x="95.6" y="661.5" class="st12" width="5.1" height="2.6"/>
		<rect x="87.9" y="661.5" class="st12" width="5.1" height="2.6"/>
		<rect x="80.2" y="661.5" class="st12" width="5.1" height="2.6"/>
		<polygon class="st12" points="77.6,661.5 77.6,664.1 72.5,664.1 72.5,656.4 75.1,656.4 75.1,661.5 		"/>
		<path d="M113.5,636h-5.1v12.7H97.1l0-2.6h8.8v-12.9l-15.4-12l-15.3,12v13h4.2c0.4,0.4,0.9,0.8,1.4,1.2l2,1.4H72.5V636h-5.2
			l23.1-18L113.5,636z"/>
		<rect x="72.5" y="648.7" class="st12" width="2.6" height="5.1"/>
		<rect x="105.8" y="648.7" class="st12" width="2.6" height="5.1"/>
		<path class="st10" d="M96.6,655.6l3,3.7l-0.4,0.5l-4.5-1.5l-4.1-4.1l-3-2.1l0.7-1l-6.9-4.8c-1.6-1.1-2.7-2.8-3-4.6l0,0
			c-0.4-1.9,0-3.9,1.2-5.6c0.9-1.3,2.1-2.2,3.5-2.7c0.1,0,0.4-0.1,0.4-0.1c0.6-0.2,1.1-0.7,1.6-1.3c0.5-0.8,0.8-1.8,0.6-2.8
			c-0.1-0.5,0.1-1.1,0.4-1.5c0.7-1,2.1-1.3,3.1-0.6c0.5,0.3,0.8,0.8,1.3,1.2c0.6,0.4,1.2,0.7,1.9,0.9c1.3,0.4,2.7,0.7,4,0.4
			c0.6-0.1,1.2-0.4,1.8-0.3c0.7,0.1,1.3,0.5,1.6,1.1c0.9,1.4-0.2,3.2-1.3,4.1c-0.8,0.7-1.7,1-2.6,1v4.1l0,15.5L96.6,655.6z"/>
		<path class="st16" d="M91.4,653.2l-10-6.9c-1.6-1.1-2.7-2.8-3-4.6l0,0c-0.4-1.9,0-3.9,1.2-5.6c0.9-1.3,2.1-2.2,3.5-2.7
			c0.1,0,0.2-0.1,0.3-0.1c0,0,0.1,0,0.1,0c0.9-0.3,1.8-0.4,2.8-0.3c0.1,0,0.1,0,0.2,0c1.6,0.1,2.4-0.9,4.3-2
			c0.2-0.2,0.5-0.3,0.8-0.5c0,0,0,0,0,0l0,0c1-0.4,2.1-0.3,3,0.3c0.3,0.2,0.6,0.5,0.8,0.8c0.4,0.5,0.6,1.2,0.6,1.8l0,1.2l0,4.9
			l0,15.5L91.4,653.2z"/>
		<path class="st16" d="M91.4,650.7l0,2.5l-10-6.9c-1.6-1.1-2.7-2.8-3-4.6L91.4,650.7z"/>
		<circle class="st2" cx="87.7" cy="629" r="0.9"/>
		<circle class="st17" cx="87.7" cy="629" r="1.5"/>
		<circle class="st2" cx="97.8" cy="631.5" r="0.9"/>
		<circle class="st17" cx="97.8" cy="631.5" r="1.5"/>
		<polygon class="st17" points="99.3,659.8 94.8,658.2 96.6,655.6 99.7,659.3 		"/>
		<polygon class="st16" points="96.6,655.6 94.8,658.2 90.7,654.1 87.7,652.1 88.4,651.1 91.4,653.2 		"/>
		<path class="st16" d="M95.8,655.2l-0.8-0.4l-3.6-1.6l0-22.6c1-0.4,2.1-0.3,3,0.3c0.3,0.2,0.6,0.5,0.8,0.8c0.4,0.5,0.6,1.2,0.6,1.8
			l0,1.2L95.8,655.2z"/>
	</g>
	<polygon points="57.7,480 87.1,475 87.1,462.8 57.7,467.7 	"/>
	<rect x="57.7" y="479.9" width="29.4" height="2.5"/>
	<rect x="166.6" y="565.3" width="3.6" height="29.4"/>
	<polygon points="171.8,577.9 171.8,565.3 182.6,571.6 	"/>
	<polygon points="272.7,34.9 268.7,36.9 271.7,27.7 252,37.7 250.6,34.7 270.2,24.8 261,21.8 265.1,19.7 276.5,23.4 	"/>
	<polygon points="250.2,49.1 278.5,35 278.5,49.1 	"/>
	<g>
		<g>
			<path d="M120,390.2l-5.1-1.7l-4.6-4.6l-3.4-2.3l0.8-1.1l-7.8-5.4c-1.8-1.3-3-3.1-3.4-5.2l0,0c-0.4-2.1,0-4.4,1.3-6.3
				c1-1.4,2.4-2.5,3.9-3c0.1,0,0.4-0.2,0.5-0.2c0.7-0.3,1.3-0.8,1.7-1.4c0.6-0.9,0.9-2,0.6-3.1c-0.1-0.6,0.1-1.2,0.4-1.7
				c0.8-1.1,2.3-1.4,3.5-0.6c0.5,0.4,0.9,0.9,1.5,1.3c0.6,0.4,1.4,0.8,2.1,1c1.4,0.5,3,0.7,4.5,0.5c0.7-0.1,1.3-0.5,2.1-0.4
				c0.8,0.1,1.4,0.5,1.8,1.2c1,1.6-0.2,3.6-1.5,4.6c-0.9,0.7-2,1.1-2.9,1.2v4.6l0,17.4l1,0.4l3.4,4.1L120,390.2z M107.8,356.3
				c0.3-0.4,0.2-1-0.2-1.3c-0.4-0.3-1-0.2-1.3,0.2c-0.3,0.4-0.2,1,0.2,1.3C106.8,356.8,107.4,356.7,107.8,356.3z M119,359.1
				c0.3-0.4,0.2-1-0.2-1.3c-0.4-0.3-1-0.2-1.3,0.2c-0.3,0.4-0.2,1,0.2,1.3C118.1,359.7,118.7,359.6,119,359.1z"/>
		</g>
	</g>
	<g>
		<path class="st18" d="M164.6,699.3l-8.3,5.7c0,0-1.9,3.8,4.5,3.8c3.5,0,56.8,0,56.8,0s9.2,0.4,5.8-3.4c-1.2-1.4-2-2.2-2-2.2
			s1.4-38.2-42.2-31c0,0-1.7,0.3-3.4,2.9c-1.2,1.8-3.6,6.1-3.6,6.1S164.5,689.4,164.6,699.3z"/>
		<path class="st19" d="M221.4,703.2c-38.7,3.4-56.8-3.9-56.8-3.9"/>
		<path class="st20" d="M221.4,703.2c0,0-1.6-25.8-25.6-28.7s-30.6,20.8-30.6,20.8"/>
		<path class="st19" d="M196,706.1h-3.9c-1.2,0-2.1-0.9-2.1-2.1v-0.2c0-1.2,0.9-2.1,2.1-2.1h3.9c1.2,0,2.1,0.9,2.1,2.1v0.2
			C198.1,705.2,197.1,706.1,196,706.1z"/>
		<path class="st19" d="M214.1,705.8h-2.3c-1.6,0-2.9-1.3-2.9-2.9v-0.5c0-1.6,1.3-2.9,2.9-2.9h2.3c1.6,0,2.9,1.3,2.9,2.9v0.5
			C217,704.5,215.7,705.8,214.1,705.8z"/>
		<path class="st19" d="M176.3,704.3l-2.3-0.4c-1.6-0.3-2.6-1.8-2.3-3.4l0.1-0.6c0.3-1.6,1.8-2.6,3.4-2.3l2.3,0.4
			c1.6,0.3,2.6,1.8,2.3,3.4l-0.1,0.6C179.4,703.6,177.9,704.6,176.3,704.3z"/>
	</g>
	<path class="st9" d="M71.9,503.4v40.3c0,0,0.2,36.3,36.3,36.3h32.9"/>
</g>
</svg>
