<?xml version="1.0" encoding="utf-8"?>
<!-- Generator: Adobe Illustrator 19.0.0, SVG Export Plug-In . SVG Version: 6.00 Build 0)  -->
<svg version="1.1" id="Layer_1" xmlns="http://www.w3.org/2000/svg" xmlns:xlink="http://www.w3.org/1999/xlink" x="0px" y="0px"
	 viewBox="0 0 32 32" style="enable-background:new 0 0 32 32;" xml:space="preserve">
<style type="text/css">
	.st0{fill:#010101;}
</style>
<path id="XMLID_28_" class="st0" d="M26.7,0H5.3C2.4,0,0,2.4,0,5.3v21.3C0,29.6,2.4,32,5.3,32h21.3c2.9,0,5.3-2.4,5.3-5.3V5.3
	C32,2.4,29.6,0,26.7,0z M26.2,10.7c0,0.2,0,0.5,0,0.7c0,7.1-5.3,15.2-15,15.2c-3,0-5.7-0.9-8.1-2.4c0.4,0,0.8,0.1,1.3,0.1
	c2.5,0,4.7-0.9,6.5-2.3c-2.3,0-4.2-1.6-4.9-3.7c0.3,0.1,0.7,0.1,1,0.1c0.5,0,0.9-0.1,1.4-0.2c-2.4-0.5-4.2-2.7-4.2-5.2
	c0,0,0,0,0-0.1c0.7,0.4,1.5,0.6,2.4,0.7c-1.4-1-2.3-2.6-2.3-4.5c0-1,0.3-1.9,0.7-2.7c2.6,3.2,6.5,5.4,10.8,5.6
	c-0.1-0.4-0.1-0.8-0.1-1.2c0-3,2.4-5.3,5.3-5.3c1.5,0,2.9,0.6,3.8,1.7c1.2-0.2,2.3-0.7,3.3-1.3c-0.4,1.2-1.2,2.3-2.3,3
	c1.1-0.1,2.1-0.4,3-0.8C28.1,9,27.2,9.9,26.2,10.7z"/>
</svg>
